{"glyphs":{"0":{"ha":393,"x_min":28,"x_max":497,"o":"m 178 -75 q 54 37 92 -75 q 54 250 28 128 q 78 336 62 294 q 281 627 157 547 q 378 662 334 662 q 473 579 447 662 q 467 347 497 491 q 342 39 429 171 q 259 -47 302 -20 q 178 -75 217 -75 m 194 11 q 273 75 229 12 q 381 347 348 189 q 395 436 389 383 q 388 540 401 490 q 354 576 376 576 q 302 549 332 576 q 160 323 218 475 q 138 247 146 286 q 127 177 133 222 q 138 76 122 132 q 194 11 158 11 z "},"1":{"ha":119,"x_min":-16,"x_max":253,"o":"m 21 -101 q -7 -88 2 -101 q -12 -57 -16 -75 q 165 618 76 281 q 184 648 169 636 q 218 659 200 659 q 244 645 235 658 q 250 614 253 632 l 73 -60 q 53 -90 67 -79 q 21 -101 38 -101 z "},"2":{"ha":458,"x_min":-5,"x_max":506,"o":"m 347 -75 l 253 -75 q 37 -62 85 -71 q -1 -37 7 -58 q -3 -12 -5 -25 q 21 29 1 7 q 119 121 40 50 q 253 248 187 182 q 403 459 382 378 q 404 522 412 500 q 341 566 388 566 q 315 562 329 566 q 207 494 254 545 q 166 475 188 475 q 142 483 153 475 q 131 520 125 496 q 144 545 134 533 q 320 650 222 629 q 361 654 342 654 q 432 638 395 654 q 490 566 469 623 q 494 467 506 524 l 487 435 q 431 333 481 405 q 313 194 379 262 q 127 20 258 138 q 319 15 222 15 q 410 17 395 15 q 442 7 431 17 q 452 -28 456 -5 q 436 -56 449 -43 q 404 -72 424 -68 q 347 -75 389 -74 z "},"3":{"ha":440,"x_min":-6,"x_max":511,"o":"m 174 -87 q 14 -41 91 -87 q -1 -4 -6 -28 q 9 16 1 6 q 52 39 27 39 q 71 34 62 39 q 194 -1 130 -1 q 306 28 256 -1 q 359 72 338 46 q 378 112 374 92 q 363 173 385 143 q 232 239 331 216 l 203 246 q 177 284 170 255 q 255 378 183 315 q 355 471 303 420 q 420 562 414 532 q 407 580 424 580 q 348 563 389 580 q 273 513 308 547 q 236 497 255 497 q 211 507 221 497 q 202 541 198 521 q 218 567 205 555 q 328 640 269 616 q 427 664 387 664 q 469 658 440 664 q 507 610 498 652 q 506 570 511 593 q 485 515 502 551 q 412 420 469 479 q 300 315 336 345 q 444 223 404 285 q 464 113 477 172 q 425 30 455 69 q 336 -45 391 -14 q 174 -87 264 -87 z "},"4":{"ha":441,"x_min":50,"x_max":575,"o":"m 344 -101 q 316 -88 325 -101 q 310 -56 307 -75 l 374 188 q 87 198 148 188 q 53 224 60 203 q 53 246 50 235 q 125 339 58 273 q 334 575 272 481 q 378 601 351 601 q 395 597 387 601 q 412 574 410 590 q 412 558 414 566 q 406 541 410 550 q 193 297 334 434 l 174 277 q 368 273 258 273 l 397 273 l 487 618 q 507 648 492 636 q 541 659 522 659 q 567 645 558 658 q 572 616 575 633 q 395 -60 406 -16 q 375 -90 390 -79 q 344 -101 360 -101 z "},"5":{"ha":399,"x_min":5,"x_max":525,"o":"m 180 -83 l 170 -83 q 10 10 59 -75 q 7 37 5 22 q 12 49 8 39 q 32 71 15 59 q 59 79 45 79 q 72 78 62 79 q 90 62 82 77 q 131 21 105 35 q 200 3 161 3 q 265 23 235 3 q 315 75 295 42 q 344 146 336 108 q 338 238 355 198 q 271 293 321 278 q 228 298 252 298 q 179 294 206 298 l 171 293 q 138 315 148 293 q 143 472 123 374 q 160 539 150 503 q 182 605 171 576 q 196 639 193 634 q 235 661 214 661 q 283 652 255 661 q 370 631 318 640 q 410 628 390 628 q 475 637 442 628 q 490 640 482 640 q 524 611 519 640 q 523 597 525 604 q 391 543 511 543 q 250 566 325 543 q 235 500 243 538 q 218 382 218 422 q 249 384 234 384 q 313 376 284 384 q 420 286 392 351 q 429 143 446 222 q 387 41 418 90 q 296 -50 351 -16 q 180 -83 244 -83 z "},"6":{"ha":321,"x_min":5,"x_max":378,"o":"m 163 -98 q 134 -96 149 -98 q 33 -32 57 -83 q 26 120 5 26 q 144 401 58 259 q 295 640 219 528 q 339 666 312 666 q 356 663 348 666 q 373 624 378 651 q 330 551 370 612 q 196 335 235 407 q 330 184 302 288 q 334 58 347 117 q 234 -82 313 -42 q 163 -98 203 -98 m 175 -12 q 250 56 236 -12 q 242 151 259 98 q 153 253 218 223 q 111 127 125 197 q 112 31 99 71 q 175 -12 125 -9 z "},"7":{"ha":365,"x_min":121,"x_max":492,"o":"m 168 -86 q 137 -68 146 -86 q 135 -43 132 -57 q 216 138 138 -27 q 390 530 349 411 q 395 542 392 536 q 398 551 397 547 q 393 556 399 556 q 376 553 387 556 q 232 540 283 540 q 144 557 183 540 q 127 596 121 570 q 135 614 129 605 q 178 640 151 640 q 195 635 187 640 q 253 626 218 626 q 280 627 258 626 q 343 633 302 627 q 414 639 384 639 q 444 637 423 639 q 479 615 465 635 q 483 554 492 597 q 296 117 466 473 q 218 -50 238 -2 q 195 -78 211 -68 q 168 -86 182 -86 z "},"8":{"ha":365,"x_min":10,"x_max":482,"o":"m 164 -79 q 71 -52 111 -79 q 22 12 37 -30 q 20 94 10 47 q 37 149 23 108 q 124 277 50 191 q 178 330 147 303 q 130 520 114 448 q 137 555 130 521 q 201 624 145 590 q 312 654 254 654 q 347 652 330 654 q 460 586 423 639 q 473 511 482 552 q 461 470 471 502 q 367 378 450 439 q 291 323 328 351 q 361 78 382 174 q 355 49 361 76 q 315 -14 349 22 q 237 -66 281 -50 q 164 -79 201 -79 m 182 7 q 256 36 226 7 q 275 74 270 50 q 279 95 276 78 q 269 154 281 111 q 217 262 250 208 q 185 230 199 245 q 105 94 117 149 q 106 52 100 69 q 182 7 125 7 m 252 391 q 326 444 288 418 q 386 512 380 483 q 383 532 388 524 q 316 566 363 559 q 292 568 303 568 q 237 555 261 568 q 216 522 221 545 q 214 490 214 514 q 249 397 214 465 l 252 391 z "},"9":{"ha":322,"x_min":66,"x_max":460,"o":"m 106 -86 q 90 -83 98 -86 q 72 -43 66 -71 q 79 -26 74 -35 q 250 244 201 157 q 224 257 235 250 q 115 395 139 309 q 111 521 98 462 q 211 661 132 621 q 285 677 243 677 q 311 676 298 677 q 420 460 460 651 q 302 178 387 320 q 151 -60 225 51 q 106 -86 134 -86 m 292 327 q 334 453 319 382 q 333 550 347 509 q 269 591 319 591 q 195 524 210 591 q 203 429 186 481 q 292 327 227 357 z "},"\u0000":{"ha":0,"x_min":0,"x_max":0,"o":""}," ":{"ha":471,"x_min":0,"x_max":0,"o":""},"!":{"ha":172,"x_min":-8,"x_max":410,"o":"m 102 170 q 72 184 81 170 q 68 214 64 197 q 322 1109 70 222 q 342 1138 327 1127 q 374 1149 357 1149 q 401 1134 393 1149 q 406 1105 410 1122 l 153 210 q 132 181 146 192 q 102 170 117 170 m 29 -64 q -1 -50 8 -64 q -5 -22 -8 -38 l 30 97 q 51 126 36 115 q 81 136 66 136 q 111 121 102 136 q 115 92 119 109 l 80 -26 q 59 -54 74 -44 q 29 -64 45 -64 z "},"\"":{"ha":194,"x_min":172,"x_max":395,"o":"m 207 781 q 180 795 189 783 q 175 824 172 807 l 202 930 q 221 960 207 948 q 254 971 236 971 q 282 958 271 971 q 287 929 290 945 l 260 823 q 240 793 255 804 q 207 781 225 781 m 311 782 q 284 796 294 783 q 279 827 275 808 l 307 931 q 326 960 311 949 q 357 972 340 972 q 386 959 376 972 q 391 928 395 945 l 364 823 q 344 793 359 805 q 311 782 329 782 z "},"#":{"ha":572,"x_min":39,"x_max":668,"o":"m 370 17 q 338 35 347 17 q 336 60 334 46 q 368 140 338 67 l 194 150 l 155 52 q 132 24 147 34 q 106 17 119 17 q 74 35 82 17 q 72 60 69 46 q 109 155 73 65 q 73 157 88 155 q 47 171 56 158 q 42 199 39 183 q 63 231 46 218 q 95 242 78 242 l 142 239 l 211 412 l 161 415 q 134 429 143 416 q 129 458 125 441 q 150 490 133 477 q 182 500 165 500 l 245 497 l 279 581 q 302 608 286 598 q 328 615 315 615 q 359 597 351 615 q 361 572 364 586 q 330 492 360 566 l 504 483 l 543 581 q 566 608 551 598 q 593 615 579 615 q 624 597 616 615 q 627 573 629 586 q 589 478 625 566 l 633 475 q 660 461 651 474 q 664 432 668 449 q 644 401 661 414 q 612 390 629 390 q 555 393 601 390 l 486 220 l 548 217 q 575 203 566 216 q 579 172 583 190 q 559 143 574 154 q 527 132 544 132 l 453 136 l 419 52 q 396 24 412 34 q 370 17 384 17 m 401 225 l 470 398 l 296 408 l 228 235 l 401 225 z "},"$":{"ha":445,"x_min":16,"x_max":554,"o":"m 138 -113 q 114 -100 121 -113 q 111 -79 108 -91 l 123 -39 q 117 -37 120 -37 q 32 39 62 -20 q 20 94 16 74 q 54 134 26 121 q 71 137 63 137 q 106 111 100 137 q 151 48 115 64 l 233 302 q 200 373 214 338 q 187 488 176 434 q 271 598 202 557 q 337 625 302 616 l 374 739 q 391 762 378 753 q 416 770 403 770 q 438 757 431 770 q 441 736 444 748 l 408 632 q 518 595 477 627 q 554 516 553 566 l 553 509 q 539 483 550 495 q 501 465 524 465 q 477 474 488 465 q 466 500 466 482 q 447 530 466 519 q 380 546 422 546 l 316 346 q 361 115 381 213 q 251 -21 342 30 q 191 -42 223 -37 l 178 -82 q 162 -104 174 -96 q 138 -113 150 -113 m 277 437 l 306 528 l 304 528 q 274 486 280 514 q 277 437 269 462 m 221 50 q 283 123 273 75 q 273 212 292 163 l 221 50 z "},"%":{"ha":370,"x_min":2,"x_max":489,"o":"m 39 -124 q 5 -100 12 -124 q 4 -81 2 -92 q 304 482 5 -75 q 202 441 257 441 q 147 458 172 441 q 119 560 104 491 q 174 659 132 618 q 260 699 216 699 q 322 672 294 699 q 353 573 358 632 l 401 663 q 429 688 411 680 q 448 692 438 692 q 461 690 455 692 q 482 650 489 680 q 477 636 481 643 q 235 185 356 411 q 294 201 262 201 q 355 176 328 201 q 387 94 385 144 q 383 64 387 79 q 352 1 376 31 q 267 -51 316 -39 q 235 -55 250 -55 q 180 -38 205 -55 q 148 23 152 -19 l 85 -94 q 39 -124 68 -124 m 222 527 q 238 530 227 527 q 265 561 260 538 q 265 582 267 568 q 254 606 263 596 q 241 612 248 612 q 224 600 233 612 q 205 558 210 583 q 203 543 203 551 q 209 531 203 534 q 222 527 214 527 m 254 31 q 270 35 260 31 q 298 64 293 42 q 297 86 299 73 q 286 110 295 100 q 273 115 280 115 q 253 102 264 115 q 237 63 243 88 q 254 31 231 31 z "},"&":{"ha":456,"x_min":-10,"x_max":503,"o":"m 298 -117 q 283 -115 290 -117 q 266 -77 260 -103 q 272 -60 267 -68 q 296 -2 289 -35 q 300 26 298 12 q 258 -1 280 12 q 87 -69 155 -69 q 8 38 -10 -69 q 142 244 28 133 q 212 309 178 279 q 213 309 212 309 l 231 326 q 224 490 207 412 q 278 610 241 570 q 366 655 322 655 q 450 600 423 655 q 456 503 469 562 q 327 313 437 416 q 370 172 362 202 q 412 210 393 192 q 433 229 420 218 q 467 242 449 242 q 492 231 481 242 q 499 201 503 219 q 385 87 494 176 q 379 -1 389 43 q 342 -92 369 -48 q 298 -117 325 -117 m 306 397 q 374 505 362 456 q 364 565 382 543 q 351 572 359 572 q 337 564 345 572 q 308 497 319 545 q 306 397 298 446 m 106 12 q 142 22 115 12 q 292 113 203 47 q 254 246 285 148 q 195 191 222 217 q 92 39 105 103 q 106 12 85 12 z "},"'":{"ha":111,"x_min":173,"x_max":311,"o":"m 209 784 q 177 804 185 784 q 176 826 173 814 q 226 938 177 831 q 251 964 234 956 q 274 970 262 970 q 307 950 298 970 q 309 928 311 940 q 258 817 307 922 q 233 790 249 799 q 209 784 221 784 z "},"(":{"ha":292,"x_min":42,"x_max":545,"o":"m 135 -89 q 43 79 43 -89 q 77 363 42 197 q 160 675 110 516 q 319 1044 230 889 q 509 1219 419 1217 q 536 1206 527 1219 q 543 1176 545 1194 q 524 1145 538 1158 q 490 1133 509 1133 q 385 1016 448 1131 q 244 665 312 877 q 165 374 196 517 q 130 97 130 208 q 155 -2 130 -1 l 159 -2 q 185 -12 174 -2 q 193 -45 197 -25 q 176 -74 189 -61 q 135 -89 161 -89 z "},")":{"ha":250,"x_min":-12,"x_max":441,"o":"m 38 -87 q -7 -64 1 -87 q -9 -43 -12 -55 q 20 -5 -3 -18 q 43 1 31 1 l 58 -1 q 117 68 83 -1 q 243 416 179 192 q 299 637 278 539 q 345 1045 355 899 q 300 1137 339 1126 q 276 1155 283 1141 q 273 1181 271 1166 q 299 1215 278 1202 q 325 1223 311 1223 q 391 1175 368 1220 q 413 827 441 1080 q 371 569 399 702 q 270 217 333 390 q 106 -62 193 7 q 38 -87 74 -87 z "},"*":{"ha":317,"x_min":189,"x_max":517,"o":"m 311 709 q 283 721 293 709 q 277 751 274 733 l 288 806 l 245 786 q 224 781 235 781 q 191 805 199 781 q 191 824 189 814 q 222 863 197 850 l 237 869 l 213 881 q 195 920 190 893 q 203 937 197 928 q 247 963 220 963 q 264 960 256 963 l 313 937 l 323 993 q 342 1023 328 1011 q 375 1036 357 1036 q 402 1024 393 1036 q 410 994 412 1013 l 399 944 l 462 972 q 483 977 473 977 q 515 954 507 977 q 515 934 517 943 q 484 896 511 909 l 441 876 l 465 865 q 484 825 489 853 q 476 808 481 817 q 432 783 459 783 q 415 786 423 783 l 374 806 l 363 753 q 345 722 359 734 q 311 709 330 710 z "},"+":{"ha":492,"x_min":58,"x_max":556,"o":"m 243 19 q 216 32 224 20 q 210 63 207 45 l 254 243 l 95 245 q 67 258 77 246 q 62 288 58 271 q 81 319 66 307 q 114 331 96 331 l 275 329 l 319 511 q 339 541 324 529 q 372 553 354 553 q 399 539 390 552 q 404 509 408 527 l 360 328 l 519 326 q 547 313 537 326 q 552 283 556 301 q 533 253 548 265 q 500 241 518 241 l 340 243 l 296 60 q 276 31 291 42 q 243 19 261 19 z "},",":{"ha":111,"x_min":-31,"x_max":106,"o":"m 6 -174 q -26 -154 -18 -174 q -28 -131 -31 -143 q 22 -20 -25 -121 q 47 6 31 -3 q 70 12 58 12 q 102 -8 94 12 q 104 -30 106 -18 q 54 -142 103 -35 q 28 -168 45 -159 q 6 -174 18 -174 z "},"-":{"ha":492,"x_min":58,"x_max":556,"o":"m 500 241 l 95 245 q 67 258 77 246 q 62 288 58 271 q 81 319 66 307 q 114 331 96 331 l 519 326 q 547 313 537 326 q 552 283 556 301 q 533 253 548 265 q 500 241 518 241 z "},".":{"ha":96,"x_min":-9,"x_max":94,"o":"m 31 -75 q -2 -56 8 -75 q -5 -26 -9 -42 q 22 13 -1 -2 q 54 22 37 22 q 87 3 77 22 q 91 -26 94 -10 q 64 -65 85 -52 q 31 -75 48 -75 z "},"/":{"ha":304,"x_min":-13,"x_max":440,"o":"m 24 -92 q 11 -90 17 -92 q -9 -68 -5 -83 q -11 -50 -13 -60 q 357 640 -9 -43 q 384 665 367 658 q 404 670 394 670 q 437 647 431 670 q 438 628 440 637 q 71 -62 437 621 q 44 -87 60 -79 q 24 -92 33 -92 z "},":":{"ha":97,"x_min":40,"x_max":189,"o":"m 125 365 q 91 384 101 365 q 87 412 85 397 q 116 452 93 438 q 147 462 131 462 q 181 443 171 462 q 185 414 189 430 q 157 374 180 389 q 125 365 142 365 m 81 155 q 47 175 57 155 q 43 203 40 188 q 71 243 49 229 q 101 253 85 253 q 136 233 126 253 q 140 205 144 221 q 113 165 135 180 q 81 155 98 155 z "},";":{"ha":123,"x_min":13,"x_max":215,"o":"m 50 29 q 17 50 25 29 q 15 71 13 60 q 65 183 16 77 q 91 210 74 201 q 114 216 102 216 q 146 195 138 216 q 148 174 151 185 q 98 62 147 168 q 73 35 90 44 q 50 29 61 29 m 151 365 q 117 384 127 365 q 114 412 111 397 q 142 452 119 438 q 174 462 157 462 q 208 443 198 462 q 212 414 215 430 q 183 374 204 387 q 151 365 168 365 z "},"<":{"ha":405,"x_min":51,"x_max":469,"o":"m 393 125 l 385 125 q 334 131 363 125 q 168 186 254 148 q 62 290 51 240 q 197 389 72 338 q 419 467 273 420 q 434 469 427 469 q 468 440 464 469 q 467 426 469 433 q 429 386 461 397 q 165 289 261 332 l 217 265 q 368 215 296 231 q 401 211 390 211 l 408 211 q 433 201 423 211 q 441 168 445 188 q 424 140 437 153 q 393 125 411 127 z "},"=":{"ha":368,"x_min":45,"x_max":451,"o":"m 363 182 l 82 185 q 55 198 64 186 q 49 229 45 210 q 68 259 54 247 q 101 271 83 271 l 383 267 q 410 254 401 267 q 416 224 420 242 q 397 194 412 205 q 363 182 382 182 m 395 330 l 114 334 q 86 347 96 334 q 81 377 77 359 q 100 407 85 395 q 133 420 115 419 l 414 416 q 442 403 433 415 q 448 372 451 391 q 428 342 443 354 q 395 330 414 330 z "},">":{"ha":404,"x_min":33,"x_max":476,"o":"m 73 125 q 39 140 49 125 q 36 168 33 153 q 58 201 40 188 q 87 211 71 211 l 94 211 q 128 215 104 211 q 300 265 206 231 l 363 289 q 140 386 294 329 q 119 426 113 397 q 124 440 120 433 q 170 469 140 469 q 184 467 177 469 q 374 389 311 420 q 466 290 476 338 q 316 186 455 240 q 127 131 213 148 q 73 125 94 125 z "},"?":{"ha":424,"x_min":6,"x_max":646,"o":"m 133 269 q 102 284 112 269 q 99 311 96 296 l 100 316 q 214 507 138 419 q 327 628 267 570 q 459 772 413 712 q 535 925 520 855 q 537 987 543 960 q 511 1044 532 1023 q 435 1074 481 1074 q 298 1006 365 1074 q 261 989 281 989 q 237 997 248 989 q 227 1032 222 1011 q 241 1057 230 1045 q 453 1159 341 1159 q 580 1109 530 1159 q 621 924 646 1042 q 604 865 617 909 q 530 737 590 821 q 416 609 477 669 q 282 469 342 538 q 184 306 214 391 q 162 278 177 288 q 133 269 148 269 m 42 3 q 14 19 23 3 q 9 46 6 31 l 45 165 q 66 194 52 184 q 98 205 81 205 q 125 189 117 205 q 130 162 134 178 l 94 43 q 74 14 89 24 q 42 3 59 3 z "},"@":{"ha":640,"x_min":28,"x_max":728,"o":"m 273 -111 l 267 -111 q 50 56 90 -84 q 46 217 28 132 q 109 376 63 298 q 213 508 151 449 q 350 600 275 566 q 494 631 426 631 q 580 618 538 631 q 707 484 673 587 q 707 319 728 416 l 703 298 q 595 77 661 155 q 514 28 553 28 q 458 118 458 28 q 471 269 459 186 q 400 165 434 213 q 321 84 359 110 q 250 59 282 59 q 185 100 207 60 q 178 217 162 143 q 210 308 187 262 q 308 440 245 384 q 451 504 370 497 q 480 492 469 504 q 487 462 491 480 q 469 432 483 445 q 437 418 456 420 q 351 376 390 414 q 287 286 312 338 q 262 215 270 250 q 271 136 248 136 q 330 197 289 136 q 503 458 446 375 q 546 485 521 485 q 559 482 553 485 q 580 439 587 470 q 566 319 576 379 q 545 140 550 241 q 618 302 589 202 l 621 317 q 622 446 637 395 q 475 546 589 546 q 370 522 426 546 q 261 447 310 496 q 179 340 212 399 q 133 221 146 281 q 126 184 132 218 q 135 95 119 150 q 245 -14 155 19 q 296 -26 268 -22 q 320 -41 313 -28 q 324 -69 327 -54 q 300 -102 319 -90 q 273 -111 287 -111 z "},"A":{"ha":865,"x_min":1,"x_max":1000,"o":"m 777 -39 q 764 -39 769 -39 q 671 49 696 -26 q 664 337 639 155 q 701 554 677 441 l 718 625 q 517 528 618 587 l 504 522 q 240 164 351 304 q 39 -31 87 -31 q 23 -28 34 -31 q 5 -9 12 -26 q 3 14 1 2 q 32 52 8 38 q 349 444 98 94 l 351 446 q 260 427 301 427 q 199 444 226 427 q 188 475 184 454 q 197 493 190 484 q 231 511 212 511 q 248 505 240 511 q 278 498 260 498 q 428 555 322 498 q 732 1000 593 790 q 914 1286 860 1194 q 943 1312 925 1304 q 962 1316 953 1316 q 996 1295 987 1316 q 998 1271 1000 1284 q 976 1206 994 1256 q 830 719 901 998 l 840 719 q 978 658 918 719 q 984 630 987 647 q 970 608 981 618 q 941 595 956 595 q 919 604 928 595 q 821 646 878 646 l 812 646 q 790 550 800 597 q 754 93 718 211 q 796 50 766 55 l 800 50 q 826 35 818 47 q 831 5 834 22 q 808 -29 826 -16 q 777 -39 793 -39 m 586 640 q 736 703 663 680 q 811 972 771 838 q 586 640 709 817 z "},"B":{"ha":751,"x_min":58,"x_max":865,"o":"m 366 -25 q 255 -1 304 -25 q 200 59 214 18 q 200 79 197 69 q 233 119 205 105 q 254 123 244 123 q 288 98 281 123 q 321 75 295 83 q 383 64 354 64 q 494 90 434 64 q 641 212 581 132 q 708 357 692 283 q 664 520 731 464 q 525 559 618 559 q 411 546 475 559 l 404 545 q 370 565 378 545 q 368 591 364 576 q 371 602 368 593 q 391 624 374 611 q 644 861 540 739 q 764 1067 745 979 q 764 1130 772 1103 q 709 1190 752 1173 q 651 1200 684 1200 q 407 1086 531 1200 q 282 915 336 1021 q 254 888 272 897 q 232 883 243 883 q 198 906 206 883 q 197 928 195 916 q 201 940 198 934 q 352 1145 267 1065 q 669 1289 511 1289 q 758 1273 718 1289 q 852 1168 831 1244 q 853 1067 865 1124 q 826 984 848 1043 q 708 812 805 926 q 545 648 635 728 q 732 593 668 648 q 800 477 786 547 q 797 355 810 419 q 778 289 793 339 q 706 164 763 239 q 517 10 631 64 q 366 -25 435 -25 m 111 -37 q 101 -37 110 -37 q 81 -22 92 -36 q 73 124 58 18 q 91 225 79 171 q 315 962 139 453 q 338 991 323 981 q 368 1001 353 1001 q 399 984 389 1001 q 403 957 406 972 l 401 951 q 173 199 230 465 q 157 117 168 174 q 161 37 147 61 q 166 8 170 24 q 163 -3 165 7 q 144 -26 160 -14 q 111 -37 127 -37 z "},"C":{"ha":783,"x_min":42,"x_max":866,"o":"m 294 -24 l 280 -24 q 89 86 135 -24 q 81 379 42 197 q 263 843 127 599 q 414 1071 334 968 q 734 1298 591 1298 q 857 1232 808 1298 q 862 1201 866 1218 q 859 1191 862 1200 q 841 1169 857 1181 q 808 1157 825 1157 q 798 1158 807 1157 q 778 1172 788 1158 q 716 1208 752 1208 q 618 1167 672 1208 q 477 1022 549 1115 q 342 814 406 929 q 168 371 214 585 q 174 140 138 227 q 305 65 205 65 q 494 135 378 65 q 753 335 615 207 q 791 351 771 351 q 817 340 807 351 q 826 306 830 326 q 809 277 823 290 q 529 62 660 140 q 294 -24 395 -19 z "},"D":{"ha":800,"x_min":127,"x_max":970,"o":"m 182 -21 q 171 -20 180 -21 q 151 -6 161 -20 q 141 134 127 32 q 159 232 147 179 q 378 943 206 457 q 399 971 385 962 q 430 981 414 981 q 462 964 452 981 q 465 939 468 953 l 463 932 q 241 207 291 441 q 226 128 236 182 q 231 50 216 74 q 235 22 239 37 q 233 12 235 21 q 214 -9 230 2 q 182 -21 198 -21 m 374 -27 q 302 -11 338 -27 q 282 28 277 1 q 290 45 284 37 q 336 72 307 72 q 353 68 345 72 q 389 60 370 60 q 496 111 439 60 q 602 237 555 166 q 813 680 733 435 q 852 824 838 754 q 869 920 859 855 q 869 1061 880 985 q 713 1215 845 1215 q 553 1174 637 1215 q 403 1074 472 1135 q 281 907 311 992 q 261 879 276 889 q 229 868 245 868 q 198 883 208 868 q 193 911 190 895 l 195 915 q 358 1139 235 1036 q 544 1256 444 1212 q 739 1301 644 1301 q 884 1248 824 1301 q 959 1076 944 1195 q 939 812 970 964 q 901 671 924 743 q 669 192 813 399 q 374 -27 520 -21 z "},"E":{"ha":748,"x_min":57,"x_max":854,"o":"m 283 -25 q 209 -14 250 -25 q 127 41 168 -2 q 68 184 79 98 q 77 360 57 267 q 149 551 98 459 q 272 700 199 637 q 426 785 339 757 q 404 1076 377 952 q 418 1133 406 1087 q 480 1227 431 1179 q 642 1297 551 1297 q 767 1256 710 1297 q 852 1119 830 1211 q 852 1101 854 1109 q 817 1061 846 1073 q 798 1057 807 1057 q 764 1084 769 1057 q 709 1175 748 1143 q 621 1207 669 1207 q 541 1175 578 1207 q 490 1075 505 1143 q 490 933 478 1018 q 530 779 500 863 q 531 757 533 768 q 469 709 522 718 q 228 520 315 673 q 165 359 183 441 q 157 223 151 288 q 197 115 163 158 q 302 64 242 64 q 330 66 316 64 q 496 138 414 81 q 709 323 595 206 q 747 341 726 341 q 773 332 762 341 q 784 298 788 319 q 769 270 781 283 q 536 68 647 144 q 327 -22 433 -2 q 283 -25 305 -25 z "},"F":{"ha":694,"x_min":7,"x_max":948,"o":"m 68 -28 q 57 -28 66 -28 q 38 -14 47 -28 q 50 234 7 35 q 201 759 105 479 q 401 1284 373 1266 q 429 1293 415 1293 q 466 1263 461 1293 q 494 1259 475 1259 q 630 1278 528 1259 q 815 1301 742 1301 q 930 1268 884 1301 q 943 1230 948 1254 q 930 1206 940 1218 q 889 1187 913 1187 q 866 1194 877 1187 q 794 1211 840 1211 q 628 1190 736 1211 q 481 1171 530 1171 q 439 1174 458 1171 q 290 755 376 1006 q 294 750 292 753 q 326 741 299 741 q 463 760 357 741 q 648 783 575 783 q 763 751 718 783 q 776 714 781 736 q 763 689 773 701 q 722 669 745 669 q 699 676 709 669 q 626 694 672 694 q 460 672 566 694 q 311 653 360 653 q 258 659 281 653 q 126 208 161 368 q 111 116 117 165 q 117 46 104 67 q 122 16 125 33 q 119 5 122 14 q 100 -16 117 -4 q 68 -28 84 -28 z "},"G":{"ha":683,"x_min":66,"x_max":918,"o":"m 480 -125 l 474 -125 q 448 -115 458 -125 q 438 -87 437 -105 q 448 26 442 -35 q 279 -28 363 -28 q 198 -14 239 -28 q 95 82 124 12 q 68 242 66 151 q 91 425 71 334 q 153 643 115 540 q 346 1024 224 847 q 498 1192 415 1123 q 672 1284 582 1261 q 736 1293 705 1293 q 900 1237 819 1293 q 912 1200 918 1223 q 900 1175 909 1187 q 858 1154 882 1154 q 836 1162 846 1154 q 718 1203 777 1203 q 674 1198 696 1203 q 414 981 539 1164 q 189 460 263 754 q 180 421 184 441 q 296 62 104 62 q 461 135 376 62 q 492 323 476 247 q 608 570 532 511 q 672 595 641 595 q 717 576 698 595 q 741 513 736 556 q 736 427 746 477 q 677 279 721 357 q 547 105 626 186 q 528 -75 536 9 l 528 -81 q 512 -109 524 -96 q 480 -125 499 -122 m 569 259 q 646 428 629 347 q 650 488 655 470 q 648 499 650 499 q 637 484 647 499 q 582 323 605 432 q 569 259 574 288 z "},"H":{"ha":833,"x_min":60,"x_max":1024,"o":"m 620 -29 l 610 -29 q 590 -14 600 -28 q 600 226 558 33 q 703 596 631 374 q 562 541 635 571 q 309 450 427 485 q 126 -20 153 -4 q 99 -29 113 -29 q 66 -11 75 -29 q 63 16 60 1 q 98 113 65 26 q 213 431 154 265 q 190 430 201 430 q 109 460 136 430 q 103 487 100 471 q 119 511 106 500 q 145 522 131 522 q 168 512 160 522 q 208 499 180 499 q 237 502 221 499 q 408 1064 368 876 q 415 1218 434 1189 q 410 1248 406 1232 l 412 1258 q 431 1281 414 1267 q 463 1293 447 1293 l 474 1293 q 494 1278 484 1292 q 485 1042 525 1230 q 334 526 444 852 q 547 606 434 560 q 728 675 642 646 q 816 932 772 810 q 933 1255 906 1184 q 958 1284 941 1274 q 986 1293 971 1293 q 1018 1275 1008 1293 q 1021 1249 1024 1263 q 986 1152 1020 1246 q 825 701 901 924 q 878 707 854 707 q 915 703 892 707 q 951 673 937 699 q 954 651 957 663 q 950 640 954 648 q 935 624 947 632 q 911 615 922 615 q 885 630 894 615 q 859 640 878 640 q 801 629 838 640 q 678 206 710 358 q 662 116 669 165 q 668 46 655 67 q 673 17 677 33 l 671 5 q 652 -17 669 -4 q 620 -29 636 -29 z "},"I":{"ha":212,"x_min":19,"x_max":472,"o":"m 68 -29 q 57 -29 66 -29 q 38 -15 48 -28 q 26 93 19 15 q 48 227 33 153 q 97 419 66 313 q 253 899 168 662 q 382 1253 319 1084 q 406 1282 389 1272 q 434 1291 419 1291 q 466 1273 457 1291 q 469 1247 472 1261 l 340 892 q 180 410 252 649 q 125 205 144 291 q 117 45 98 74 q 122 16 125 32 q 120 5 122 14 q 100 -18 117 -4 q 68 -29 85 -29 z "},"J":{"ha":583,"x_min":31,"x_max":835,"o":"m 195 -25 q 74 57 114 -25 q 58 273 31 145 q 80 354 63 296 q 166 514 98 413 q 212 540 184 540 q 230 535 221 540 q 247 495 253 523 q 239 476 245 486 q 147 271 168 372 q 140 178 136 220 q 181 77 142 109 q 216 64 195 64 q 236 67 225 64 q 433 281 340 96 q 595 729 516 446 q 667 996 635 870 q 745 1272 711 1172 q 768 1301 751 1290 q 795 1310 781 1310 q 829 1291 819 1310 q 832 1264 835 1279 l 830 1258 q 755 993 798 1163 q 588 433 671 656 q 414 104 508 222 q 242 -19 338 9 q 195 -25 217 -25 z "},"K":{"ha":737,"x_min":7,"x_max":991,"o":"m 68 -25 q 58 -25 67 -25 q 39 -11 49 -24 q 45 212 7 37 q 204 761 91 428 q 374 1236 273 964 l 382 1261 q 407 1291 390 1280 q 436 1300 421 1300 q 468 1282 458 1300 q 471 1255 474 1270 l 444 1181 q 292 759 349 922 q 424 881 356 821 q 814 1188 651 1084 q 952 1251 913 1251 q 979 1240 968 1251 q 987 1207 991 1227 q 969 1178 983 1191 q 937 1162 956 1164 q 835 1108 909 1158 q 659 976 760 1057 q 281 634 452 809 q 348 547 306 591 q 437 456 390 503 q 625 238 570 328 q 673 58 677 153 l 672 54 q 656 24 669 37 q 618 7 640 7 q 591 17 602 7 q 581 45 581 27 q 549 172 585 109 q 468 280 517 227 q 366 387 419 334 q 221 545 281 467 q 123 199 156 343 q 117 50 99 81 q 122 20 125 36 q 120 9 122 18 q 101 -13 117 -1 q 68 -25 85 -25 z "},"L":{"ha":707,"x_min":48,"x_max":756,"o":"m 271 -26 l 264 -26 q 87 109 134 -26 q 92 435 48 228 q 137 600 109 511 q 283 996 208 813 q 375 1208 338 1126 q 396 1256 388 1237 q 422 1286 405 1276 q 448 1293 435 1293 q 481 1272 472 1293 q 483 1248 486 1261 l 480 1238 q 368 983 425 1118 q 217 585 288 798 q 175 426 190 498 q 165 165 139 258 q 284 62 194 62 q 527 179 382 62 q 675 323 597 237 q 718 342 694 342 q 741 334 730 342 q 751 297 756 319 q 738 272 749 284 q 583 122 659 184 q 271 -26 403 -22 z "},"M":{"ha":1094,"x_min":19,"x_max":1289,"o":"m 68 -29 q 57 -29 66 -29 q 38 -15 48 -28 q 26 93 19 15 q 48 227 33 153 q 185 701 85 401 q 382 1253 259 922 q 406 1282 389 1272 q 434 1291 419 1291 q 466 1273 457 1291 q 469 1247 472 1261 q 452 1200 467 1239 l 452 1197 q 631 1293 547 1293 q 751 1010 775 1293 q 727 854 746 942 q 704 758 718 809 l 702 748 l 708 760 q 901 1086 801 948 q 1052 1242 981 1192 q 1160 1283 1113 1283 q 1253 1207 1225 1283 q 1240 877 1289 1109 q 1112 433 1212 746 q 1015 101 1032 183 q 1005 29 1005 56 q 1004 18 1005 24 q 991 -7 1002 5 q 949 -26 975 -26 q 926 -18 937 -26 q 914 8 915 -10 q 926 101 913 44 q 1025 441 945 191 q 1150 880 1118 732 q 1131 1192 1216 1192 q 975 1051 1077 1192 q 788 734 869 901 q 644 436 715 590 q 581 307 592 323 q 538 283 560 283 q 506 298 516 283 q 502 328 498 310 q 569 587 519 412 q 639 859 621 772 q 661 992 655 934 q 645 1177 674 1126 q 610 1204 631 1203 q 551 1178 587 1204 q 345 890 445 1101 q 187 435 272 728 q 125 205 147 306 q 117 45 98 73 q 122 16 125 32 q 120 5 122 14 q 100 -18 117 -4 q 68 -29 85 -29 z "},"N":{"ha":672,"x_min":8,"x_max":901,"o":"m 71 -25 q 60 -25 69 -25 q 41 -11 50 -24 q 50 235 8 40 q 119 498 77 361 q 256 903 193 735 l 384 1257 q 408 1286 391 1276 q 437 1295 422 1295 q 469 1277 459 1295 q 471 1250 475 1265 l 470 1244 q 358 939 427 1131 q 435 1060 396 1002 q 579 1221 505 1162 q 732 1289 665 1289 q 817 890 901 1289 q 755 655 794 785 q 686 436 719 538 q 587 104 606 194 q 578 34 577 60 q 576 22 578 28 q 564 -3 574 10 q 522 -22 548 -22 q 499 -14 510 -22 q 486 12 488 -7 q 497 104 486 47 q 599 446 518 201 q 668 663 635 558 q 727 889 706 789 q 753 1067 749 992 q 704 1198 760 1198 q 605 1139 665 1198 q 509 1023 553 1088 q 396 841 452 938 q 174 385 237 573 q 123 203 141 283 q 110 117 115 162 q 119 50 105 72 q 124 20 127 36 q 122 9 124 18 q 103 -14 119 0 q 71 -25 87 -25 z "},"O":{"ha":645,"x_min":62,"x_max":819,"o":"m 245 -30 q 129 24 168 -28 q 71 286 62 113 q 87 412 75 352 q 197 728 117 549 q 223 756 205 747 q 248 762 235 762 q 267 758 260 762 q 286 891 273 829 q 349 1068 308 991 q 462 1218 398 1163 q 614 1284 539 1284 q 778 1133 732 1284 q 767 737 819 983 l 764 720 q 585 243 696 442 q 425 48 517 125 q 245 -30 333 -28 m 267 59 q 395 124 330 60 q 507 273 460 189 q 682 754 618 471 q 692 1092 726 963 q 595 1192 665 1192 q 584 1192 590 1192 q 435 1057 505 1180 q 376 892 395 985 q 425 421 320 630 q 428 396 431 409 q 423 381 427 392 q 401 359 419 370 q 374 351 387 351 q 360 352 370 351 q 342 370 350 354 q 266 676 271 509 q 176 409 200 524 q 168 182 151 291 q 267 59 186 66 z "},"P":{"ha":702,"x_min":6,"x_max":941,"o":"m 66 -33 q 57 -33 66 -33 q 37 -19 47 -33 q 47 223 6 28 q 363 1201 109 515 l 380 1249 q 405 1278 387 1267 q 433 1287 418 1287 q 465 1269 455 1287 q 468 1242 471 1257 q 435 1152 467 1237 q 339 888 387 1021 l 330 863 q 602 1184 479 1080 q 808 1286 724 1286 q 899 1241 869 1286 q 918 1067 941 1177 q 896 994 910 1032 q 745 759 854 878 q 271 473 572 572 q 256 471 264 471 q 221 501 225 471 q 222 516 220 509 q 261 558 229 547 q 684 812 532 647 q 831 1074 803 943 q 819 1181 846 1146 q 784 1196 806 1196 q 744 1188 772 1196 q 650 1123 715 1181 q 473 922 576 1059 q 286 648 374 789 q 226 542 248 589 q 178 406 205 494 q 125 203 143 289 q 115 41 96 69 q 121 12 124 28 q 118 1 120 10 q 99 -22 115 -8 q 66 -33 83 -33 z "},"Q":{"ha":637,"x_min":12,"x_max":811,"o":"m 313 -322 q 286 -311 296 -322 q 277 -278 273 -296 q 296 -248 281 -261 q 338 -163 326 -219 q 347 -16 351 -105 q 263 -33 302 -33 q 205 -22 233 -33 q 87 408 12 59 q 196 724 116 545 q 222 752 205 743 q 247 758 234 758 q 278 742 269 758 q 298 914 278 823 q 436 1202 338 1105 q 602 1282 517 1282 q 710 1240 658 1282 q 785 1090 762 1198 q 768 746 811 948 q 584 239 705 456 q 436 43 516 117 q 425 -165 444 -79 q 348 -308 406 -254 q 313 -322 332 -321 m 427 150 q 602 481 522 268 q 680 749 651 612 q 695 1057 718 924 q 584 1192 666 1192 q 484 1137 533 1192 q 388 916 420 1067 q 369 753 368 825 q 406 332 370 596 q 427 150 418 238 m 283 56 q 342 72 311 56 q 315 304 332 181 q 278 703 281 560 q 174 402 201 530 q 243 66 121 134 q 283 56 262 56 z "},"R":{"ha":710,"x_min":8,"x_max":943,"o":"m 568 -24 q 500 25 531 -24 q 437 157 469 75 q 268 484 317 456 q 225 526 218 490 q 241 555 229 541 q 276 574 254 569 q 687 823 536 661 q 833 1084 806 955 q 822 1193 849 1157 q 787 1208 809 1208 q 747 1200 775 1208 q 652 1135 718 1192 q 290 660 508 1008 q 228 553 250 601 q 181 417 207 505 q 127 215 146 300 q 118 53 99 81 q 123 23 127 39 q 121 13 123 22 q 102 -9 119 3 q 69 -22 85 -22 q 59 -21 68 -22 q 39 -7 50 -21 q 50 235 8 40 q 254 906 98 459 q 383 1261 349 1171 q 407 1290 391 1279 q 436 1299 420 1299 q 467 1280 458 1299 q 471 1255 473 1268 q 438 1163 469 1249 q 333 874 367 972 q 605 1196 482 1091 q 811 1298 727 1298 q 901 1253 871 1298 q 920 1077 943 1187 q 747 770 887 922 q 366 518 603 614 q 498 267 421 448 q 591 66 582 70 l 597 67 q 623 57 612 67 q 632 22 637 45 q 616 -6 629 7 q 568 -24 600 -24 z "},"S":{"ha":648,"x_min":28,"x_max":876,"o":"m 279 -28 q 138 3 201 -28 q 55 82 81 31 q 41 195 28 133 q 75 279 50 235 q 103 304 85 297 q 123 309 113 309 q 158 283 151 309 q 159 264 161 274 q 153 249 157 257 q 131 195 136 219 q 138 134 123 159 q 192 84 154 102 q 300 61 238 61 q 463 123 402 61 q 503 199 494 157 q 471 397 519 279 q 371 598 435 484 q 287 766 323 685 q 246 917 251 846 q 254 1005 245 964 q 308 1123 267 1062 q 433 1230 349 1185 q 677 1293 549 1293 q 825 1257 768 1293 q 876 1168 874 1225 l 875 1159 q 860 1133 871 1146 q 820 1116 844 1116 q 796 1124 807 1116 q 785 1151 785 1133 q 753 1187 783 1174 q 656 1204 717 1204 q 568 1194 614 1204 q 372 1070 435 1164 q 343 1001 351 1040 q 338 939 337 972 q 376 807 342 880 q 500 567 406 740 q 557 441 532 504 q 591 194 614 301 q 583 159 591 191 q 524 71 575 126 q 401 -7 471 17 q 279 -28 340 -28 z "},"T":{"ha":817,"x_min":225,"x_max":1084,"o":"m 275 -33 l 265 -33 q 245 -18 256 -32 q 233 87 225 11 q 255 219 239 146 q 303 408 273 303 q 456 878 373 646 q 578 1211 511 1030 l 526 1211 q 416 1206 465 1211 q 332 1175 355 1199 q 290 1154 315 1154 q 269 1160 278 1154 q 254 1198 250 1174 q 267 1221 257 1209 q 337 1269 292 1252 q 438 1292 381 1285 q 558 1298 494 1298 q 734 1292 636 1298 q 911 1285 836 1286 q 996 1294 987 1285 q 1042 1320 1014 1320 q 1059 1316 1050 1320 q 1078 1277 1084 1305 q 1070 1259 1076 1268 q 875 1200 1029 1200 q 667 1206 816 1200 q 385 398 489 736 q 333 200 351 283 q 323 41 304 68 q 329 13 332 28 l 326 1 q 308 -20 323 -8 q 275 -33 292 -33 z "},"U":{"ha":661,"x_min":-5,"x_max":887,"o":"m 458 -33 q 427 -14 437 -33 q 425 13 421 -2 q 456 102 425 18 q 537 323 497 212 q 460 202 499 260 q 317 42 391 101 q 162 -26 231 -26 q 79 373 -5 -26 q 210 826 115 538 q 309 1158 290 1069 q 318 1229 319 1202 q 319 1240 318 1235 q 332 1265 322 1252 q 373 1284 347 1284 q 397 1277 385 1284 q 397 1156 420 1262 q 297 817 377 1060 q 228 600 260 704 q 168 373 190 473 q 142 195 146 271 q 192 64 136 64 q 291 123 232 64 q 387 240 343 174 q 500 421 444 324 q 722 878 659 689 q 772 1059 755 979 q 786 1145 781 1101 q 777 1213 791 1190 q 772 1243 768 1226 q 774 1254 772 1244 q 793 1275 777 1263 q 825 1288 809 1288 q 836 1288 826 1288 q 855 1273 845 1287 q 846 1027 887 1222 q 640 359 792 774 q 512 5 604 260 q 487 -24 505 -14 q 458 -33 473 -33 z "},"V":{"ha":732,"x_min":56,"x_max":999,"o":"m 153 -24 q 63 210 56 -24 q 93 439 68 320 q 155 690 117 547 q 188 814 173 753 q 261 1116 243 1031 q 274 1227 281 1211 q 268 1257 264 1240 q 270 1267 268 1258 q 289 1290 273 1277 q 321 1302 304 1302 l 332 1302 q 351 1289 341 1302 q 349 1120 374 1251 l 338 1066 q 277 811 314 954 q 186 439 214 570 q 151 235 164 335 q 174 62 130 62 q 245 120 200 62 q 571 699 335 234 q 787 1102 686 928 q 928 1289 868 1240 q 960 1301 944 1301 q 971 1301 962 1301 q 990 1287 981 1301 q 996 1257 999 1273 q 993 1246 996 1255 q 974 1223 991 1237 q 864 1073 931 1188 q 651 673 768 906 q 402 215 490 360 q 235 11 313 71 q 153 -24 189 -24 z "},"W":{"ha":1021,"x_min":31,"x_max":1280,"o":"m 685 -28 q 577 105 608 -28 q 586 585 545 260 q 416 258 498 406 q 277 55 347 133 q 136 -24 208 -24 q 40 72 52 -20 q 54 254 31 145 q 277 904 96 451 q 409 1238 399 1215 q 401 1271 397 1252 q 419 1301 405 1288 q 454 1316 437 1316 q 483 1305 472 1316 q 492 1234 504 1287 q 415 1022 480 1174 q 241 576 329 815 q 141 248 169 377 q 125 124 127 180 q 157 64 123 67 q 338 285 218 67 q 475 549 405 407 q 630 844 554 709 q 678 873 648 873 q 694 870 686 873 q 713 827 720 858 q 662 449 674 608 q 667 140 646 242 q 706 62 683 62 q 768 121 727 62 q 1025 780 893 309 q 1120 1104 1087 1004 q 1240 1287 1180 1287 q 1265 1278 1255 1287 q 1275 1243 1280 1264 q 1260 1215 1272 1228 q 1200 1076 1234 1185 q 1114 774 1170 981 q 843 92 974 281 q 685 -28 758 -28 z "},"X":{"ha":941,"x_min":1,"x_max":1198,"o":"m 687 -53 q 671 -50 679 -53 q 651 -26 655 -43 q 650 -9 649 -18 q 658 8 652 -1 q 690 96 680 48 q 700 175 696 121 q 686 321 703 229 q 614 580 662 447 q 421 320 516 444 q 209 74 307 170 q 39 -24 111 -22 q 11 -11 21 -24 q 4 20 1 2 q 24 52 9 39 q 58 65 40 64 q 176 148 100 67 q 349 357 252 229 q 549 629 446 485 l 581 671 q 491 891 536 787 q 407 1101 440 1009 q 378 1253 368 1206 q 394 1279 381 1266 q 432 1295 410 1295 q 458 1285 447 1295 q 468 1257 469 1276 q 498 1134 467 1217 q 576 939 529 1050 q 648 764 612 855 q 1046 1223 902 1115 q 1160 1272 1112 1272 q 1188 1260 1178 1272 q 1196 1229 1198 1248 q 1177 1197 1192 1210 q 1143 1183 1162 1184 q 1067 1143 1113 1181 q 683 674 947 1042 q 778 92 823 306 q 734 -24 765 30 q 705 -49 723 -41 q 687 -53 696 -53 z "},"Y":{"ha":642,"x_min":94,"x_max":899,"o":"m 269 -22 q 153 27 200 -22 q 98 157 105 77 q 102 228 94 192 q 112 266 104 238 q 154 336 120 294 q 197 357 173 357 q 219 351 209 357 q 232 313 237 337 q 220 289 229 301 q 191 226 197 259 q 189 176 185 202 q 224 96 195 128 q 288 67 251 67 q 431 186 358 69 q 578 520 511 319 q 719 979 660 762 q 745 1068 720 983 q 626 899 685 987 q 491 709 557 798 q 359 565 424 621 q 233 509 295 510 q 147 694 109 512 q 351 1202 189 882 q 379 1260 370 1240 q 406 1289 388 1279 q 431 1295 418 1295 q 463 1274 456 1295 q 465 1250 468 1263 q 432 1179 464 1242 q 237 698 272 862 q 252 598 216 600 q 437 772 311 600 q 553 937 493 849 q 688 1128 621 1037 q 861 1297 814 1297 q 886 1286 876 1297 q 895 1253 899 1272 q 886 1232 892 1243 q 807 972 864 1174 q 664 509 747 754 q 502 157 593 307 q 269 -22 390 -22 z "},"Z":{"ha":729,"x_min":29,"x_max":956,"o":"m 355 -22 q 41 106 90 -22 q 39 184 29 139 q 60 249 43 203 q 159 388 77 294 q 562 742 276 527 q 848 1065 821 937 q 853 1092 848 1067 q 838 1149 857 1116 q 728 1222 805 1203 q 635 1233 682 1233 q 452 1191 530 1233 q 380 1119 401 1163 q 355 1091 372 1101 q 330 1084 343 1084 q 296 1105 305 1084 q 294 1128 292 1116 q 298 1139 296 1134 q 408 1260 334 1215 q 647 1322 513 1322 q 924 1199 850 1322 q 941 1070 956 1145 q 607 675 904 900 q 132 189 164 342 q 130 159 128 173 q 211 83 138 102 q 357 66 273 66 q 566 84 465 66 q 660 106 633 96 q 692 118 676 118 q 717 109 706 118 q 728 73 732 95 q 680 25 721 41 q 569 -2 646 12 q 355 -22 461 -22 z "},"[":{"ha":319,"x_min":-9,"x_max":572,"o":"m 160 -88 q 109 -86 135 -88 q 6 -63 18 -79 q 49 231 -9 -43 q 144 615 88 415 q 341 1185 244 974 q 360 1208 348 1199 q 389 1217 373 1217 q 468 1219 431 1219 q 536 1217 507 1218 q 563 1203 555 1215 q 568 1174 572 1191 q 549 1143 564 1155 q 515 1131 534 1131 q 450 1133 484 1133 l 406 1133 q 229 610 319 931 q 136 235 174 416 q 92 4 111 117 q 178 -3 132 -3 l 201 -2 q 228 -14 218 -2 q 235 -45 239 -26 q 217 -74 231 -62 q 185 -87 203 -86 l 160 -88 z "},"\\":{"ha":396,"x_min":227,"x_max":386,"o":"m 333 -96 q 311 -89 321 -96 q 298 -65 300 -82 q 227 1072 227 1067 q 239 1095 230 1082 q 279 1114 254 1114 q 301 1106 290 1114 q 314 1082 313 1099 q 385 -54 386 -49 q 373 -77 382 -64 q 333 -96 358 -96 z "},"]":{"ha":294,"x_min":26,"x_max":481,"o":"m 103 -87 q 62 -86 81 -87 q 35 -72 43 -84 q 30 -44 26 -60 q 50 -12 35 -23 q 84 0 66 0 q 127 -2 104 -2 q 194 2 159 -1 q 290 386 248 186 q 333 608 313 494 q 394 1133 389 930 q 306 1135 355 1135 l 285 1135 q 257 1146 267 1135 q 250 1177 247 1158 q 269 1207 254 1195 q 300 1220 283 1219 q 334 1221 318 1220 q 472 1206 459 1221 q 481 1183 481 1196 q 419 611 481 970 q 375 383 399 494 q 267 -40 328 161 q 249 -67 262 -56 q 220 -79 236 -77 q 103 -87 159 -87 z "},"^":{"ha":342,"x_min":170,"x_max":519,"o":"m 465 779 q 431 805 437 779 q 393 922 416 875 l 382 944 q 250 801 342 916 q 208 780 233 780 q 187 786 197 780 q 175 823 170 799 q 186 845 177 834 q 292 966 250 924 q 402 1033 357 1033 q 473 973 441 1033 q 517 838 501 917 q 517 821 519 830 q 482 782 511 794 q 465 779 473 779 z "},"_":{"ha":583,"x_min":-5,"x_max":584,"o":"m 528 -56 l 31 -52 q 4 -40 14 -52 q -2 -9 -5 -28 q 17 21 3 9 q 50 33 32 33 l 547 29 q 574 17 565 29 q 580 -14 584 5 q 561 -44 576 -32 q 528 -56 547 -56 z "},"`":{"ha":250,"x_min":189,"x_max":432,"o":"m 375 789 q 356 793 366 789 l 210 875 q 194 912 189 887 q 203 932 196 922 q 246 956 220 956 q 264 951 256 956 l 411 869 q 427 831 432 857 q 418 812 425 822 q 375 789 401 789 z "},"a":{"ha":1026,"x_min":5,"x_max":1163,"o":"m 106 -27 q 75 -20 89 -27 q 26 35 41 -5 q 26 199 5 97 q 79 355 41 272 q 157 489 111 425 q 458 694 283 665 q 507 699 482 699 q 604 686 554 699 q 627 665 621 681 q 629 643 631 655 q 599 604 623 618 q 574 597 587 597 q 564 599 569 597 q 494 608 528 608 q 457 606 475 608 q 315 540 379 592 q 161 334 220 463 q 116 201 129 262 q 108 144 110 172 q 137 60 101 60 q 254 144 176 60 q 533 539 363 264 q 579 567 551 567 q 597 564 588 567 q 616 523 622 552 q 613 514 615 518 q 553 317 571 400 q 549 136 528 200 q 612 68 566 79 q 651 63 630 63 q 733 78 688 63 q 937 187 833 111 q 1082 318 1017 246 q 1123 337 1100 337 q 1147 329 1136 337 q 1158 293 1163 315 q 1145 267 1155 279 q 966 110 1065 180 q 745 -7 853 29 q 633 -26 684 -26 q 460 96 498 -26 q 457 278 439 163 q 301 91 370 160 q 106 -27 182 -27 z "},"b":{"ha":800,"x_min":-16,"x_max":932,"o":"m 224 -38 q 194 -31 208 -38 q 155 26 161 -15 q 157 64 153 44 q 225 178 169 117 q 370 262 301 258 l 382 262 q 407 260 395 262 q 456 394 430 309 q 481 490 471 442 q 480 630 506 609 q 473 633 477 633 q 414 593 454 633 q 316 473 370 548 q 95 68 175 275 l 74 9 q 52 -18 67 -8 q 22 -28 37 -28 q -9 -12 1 -28 q -13 17 -16 1 l 1 75 q 75 366 22 166 q 386 1276 193 803 q 411 1304 394 1295 q 437 1312 424 1312 q 470 1293 461 1312 q 473 1267 475 1281 l 471 1259 q 178 412 291 823 q 348 637 264 551 q 484 711 423 711 q 520 703 504 711 q 566 464 608 659 q 486 234 544 360 l 502 227 q 612 194 563 194 q 633 195 623 194 q 857 323 722 204 q 892 338 873 338 q 920 325 909 338 q 928 294 932 313 q 909 263 924 277 q 751 149 821 184 q 591 104 667 104 q 448 145 524 104 l 441 149 q 224 -38 329 -38 m 249 53 q 263 59 253 53 q 359 173 306 82 q 286 125 330 172 q 244 62 250 87 q 249 53 243 53 z "},"c":{"ha":669,"x_min":11,"x_max":804,"o":"m 218 -26 q 51 52 99 -26 q 36 232 11 117 q 156 488 62 356 q 354 670 245 612 q 451 695 404 695 q 536 645 518 695 q 539 584 546 616 q 534 567 537 576 q 468 498 511 498 q 453 501 460 498 q 433 543 427 513 q 439 559 435 551 q 450 584 448 572 q 449 599 452 592 q 430 606 447 606 q 384 595 408 606 q 227 447 304 554 q 151 313 181 383 q 125 231 133 271 q 119 187 120 209 q 243 65 115 65 q 287 67 254 65 q 374 89 319 70 q 599 208 488 130 q 724 318 669 259 q 765 337 742 337 q 788 329 778 337 q 800 292 804 315 q 787 267 797 279 q 641 139 723 197 q 387 5 516 51 q 218 -26 297 -26 z "},"d":{"ha":1045,"x_min":1,"x_max":1179,"o":"m 641 -28 q 551 -3 586 -28 q 483 304 450 66 l 485 319 q 461 288 473 303 q 303 98 364 161 q 182 -3 243 34 q 106 -27 142 -27 q 23 34 45 -27 q 24 200 1 96 q 76 355 39 273 q 170 512 113 437 q 299 637 227 587 q 471 695 382 695 q 563 670 549 695 q 568 643 570 658 q 729 1052 627 827 q 836 1255 781 1164 q 883 1284 854 1284 q 899 1280 891 1284 q 919 1240 924 1268 q 911 1222 917 1232 q 815 1038 863 1141 q 669 675 727 842 q 587 396 612 514 q 677 65 517 65 q 749 78 709 65 q 977 205 862 115 q 1099 318 1044 258 q 1140 337 1117 337 q 1163 329 1152 337 q 1175 292 1179 315 q 1161 267 1172 279 q 1031 146 1102 202 q 761 -7 895 39 q 641 -28 692 -28 m 134 60 q 175 76 149 60 q 389 318 241 116 q 514 503 469 427 q 555 604 536 543 q 564 631 558 617 q 537 604 554 613 q 513 597 526 597 q 503 599 508 597 q 456 605 479 605 q 338 564 398 605 q 233 459 279 522 q 159 334 186 396 q 113 200 125 262 q 104 144 106 171 q 134 60 98 60 z "},"e":{"ha":604,"x_min":28,"x_max":740,"o":"m 203 -26 q 35 123 54 -26 q 42 249 28 184 q 68 336 51 292 q 184 547 117 454 q 344 698 276 670 q 399 711 374 711 q 441 700 422 711 q 468 598 484 673 q 358 437 452 519 q 155 323 275 363 q 130 241 138 283 q 149 90 106 132 q 224 63 176 63 q 393 113 297 63 q 659 318 544 190 q 701 337 677 337 q 724 329 713 337 q 734 292 740 316 q 634 181 729 264 q 421 35 532 92 q 289 -15 355 1 q 203 -26 244 -26 m 209 433 q 307 498 263 460 q 382 606 369 553 q 381 619 385 614 q 376 621 380 621 q 367 618 373 621 q 256 507 326 602 q 209 433 231 473 z "},"f":{"ha":640,"x_min":-208,"x_max":777,"o":"m -102 -842 q -175 -804 -147 -842 q -205 -694 -203 -766 q -176 -444 -208 -593 q -159 -370 -168 -408 q 44 271 -81 -62 q 181 619 116 465 q 302 876 262 810 q 349 904 320 904 q 366 901 357 904 q 385 859 391 888 q 378 842 382 850 q 264 600 341 782 q 98 172 176 392 q 123 179 111 179 q 137 177 127 179 q 155 162 147 176 q 193 113 173 129 q 286 83 232 83 q 506 159 382 83 q 696 318 608 221 q 738 337 715 337 q 761 329 751 337 q 772 292 777 315 q 760 267 770 279 q 541 85 660 158 q 318 -2 426 15 q 267 -6 292 -6 q 205 1 235 -6 q 182 -400 227 -190 q 45 -736 140 -602 q -102 -842 -34 -842 m -86 -751 q -26 -696 -66 -751 q 94 -401 55 -583 q 120 -87 129 -233 q 79 95 114 33 l 75 105 q -86 -441 -38 -214 q -115 -672 -116 -581 q -86 -751 -113 -749 z "},"g":{"ha":898,"x_min":-138,"x_max":1034,"o":"m -35 -840 q -117 -770 -93 -837 q -117 -598 -138 -702 q -72 -458 -103 -534 q 280 -62 35 -217 q 361 -14 319 -37 q 453 274 414 143 q 301 91 383 176 q 106 -27 183 -27 q 75 -20 89 -27 q 26 35 41 -5 q 26 199 5 97 q 79 355 41 272 q 157 489 111 425 q 458 694 283 665 q 508 699 482 699 q 604 686 554 699 q 627 665 621 681 q 629 643 631 655 q 599 604 623 618 q 574 597 587 597 q 564 599 569 597 q 494 608 528 608 q 457 606 475 608 q 227 446 326 583 q 116 201 143 330 q 108 144 110 172 q 137 60 102 60 q 254 144 176 60 q 433 382 350 253 q 530 533 484 458 q 578 568 546 568 q 595 564 587 568 q 616 522 623 554 l 614 517 q 566 357 588 437 q 470 44 538 254 q 573 96 521 71 q 805 218 692 153 q 959 326 891 267 q 995 339 977 339 q 1022 326 1011 339 q 1029 294 1034 313 q 1011 264 1026 277 q 848 149 937 201 q 602 18 727 79 q 432 -68 516 -23 q 345 -302 390 -189 q -35 -840 135 -837 m -14 -749 q 13 -736 -4 -749 q 92 -637 47 -707 q 318 -134 200 -460 q 136 -284 212 -201 q 12 -477 60 -367 q -27 -598 -16 -543 q -31 -725 -44 -675 q -14 -749 -26 -749 z "},"h":{"ha":960,"x_min":-16,"x_max":1100,"o":"m 23 -41 q -9 -24 0 -41 q -14 3 -16 -12 q 1 61 -2 44 q 68 326 29 180 q 237 852 126 541 q 395 1253 306 1044 q 420 1280 404 1271 q 446 1287 433 1287 q 479 1267 471 1287 q 482 1244 484 1257 q 479 1234 481 1239 q 172 374 284 779 q 472 700 359 700 q 491 697 481 700 q 547 580 549 681 q 529 456 543 519 q 513 393 522 425 l 494 309 q 481 240 488 280 q 507 93 466 140 q 584 63 532 63 q 713 94 641 63 q 945 245 833 146 q 1019 318 985 280 q 1061 337 1038 337 q 1084 329 1073 337 q 1095 292 1100 315 q 1001 187 1089 264 q 734 13 872 73 q 566 -26 643 -26 q 393 232 367 -20 q 412 358 399 294 q 428 422 419 389 q 443 487 437 456 q 450 610 469 610 q 418 584 443 610 q 138 135 296 457 q 75 -3 94 46 q 51 -32 66 -22 q 23 -41 38 -41 z "},"i":{"ha":585,"x_min":21,"x_max":720,"o":"m 191 -38 q 94 -12 134 -38 q 26 116 35 26 q 34 225 21 163 q 245 670 73 411 q 292 696 263 696 q 309 693 300 696 q 327 652 332 680 q 319 634 325 643 q 123 228 157 389 q 117 141 113 178 q 210 52 127 52 q 480 174 315 52 q 641 319 557 233 q 682 337 659 337 q 705 328 695 337 q 715 292 720 313 q 701 266 713 278 q 529 111 613 175 q 191 -38 330 -38 m 313 717 l 310 717 q 301 735 305 718 q 294 780 296 753 q 298 842 292 814 q 326 904 307 880 q 378 935 351 935 q 406 919 394 935 q 410 858 418 903 q 475 884 450 884 l 490 884 q 511 866 503 884 q 513 842 515 856 q 499 811 511 831 q 444 764 488 791 q 366 728 405 741 q 313 717 332 717 z "},"j":{"ha":468,"x_min":-527,"x_max":601,"o":"m -435 -840 l -437 -840 q -524 -728 -518 -837 q -513 -594 -527 -663 q -477 -479 -500 -538 q -319 -226 -419 -337 q -39 -14 -210 -108 q 162 647 58 277 q 183 677 168 666 q 216 689 199 689 q 245 673 235 689 q 250 642 254 661 q 70 44 158 311 q 140 79 104 62 q 380 209 267 139 q 523 321 459 258 q 562 337 541 337 q 587 328 576 337 q 596 293 601 314 q 581 265 593 279 q 410 132 503 189 q 167 1 293 61 q 32 -68 99 -33 q -307 -771 -154 -611 q -435 -840 -376 -840 m -411 -749 q -368 -721 -395 -749 q -291 -612 -332 -684 q -81 -134 -193 -442 q -397 -502 -303 -271 q -424 -590 -414 -547 q -433 -703 -436 -648 q -411 -749 -431 -749 m 228 717 q 189 764 216 717 q 167 868 157 820 q 201 922 174 905 q 226 930 214 930 q 250 923 235 930 q 274 874 265 916 q 353 926 316 926 q 372 920 364 926 q 382 873 389 906 q 345 807 376 845 q 281 748 315 773 q 228 717 248 723 z "},"k":{"ha":734,"x_min":-18,"x_max":867,"o":"m 22 -34 q -11 -18 -1 -34 q -14 9 -18 -5 l -1 65 q 67 332 27 185 q 235 859 125 547 q 394 1259 304 1051 q 419 1287 402 1278 q 445 1294 432 1294 q 478 1274 470 1294 q 481 1251 484 1263 q 477 1240 479 1246 q 170 381 283 785 q 212 450 191 417 q 498 707 328 627 q 519 712 509 712 q 554 688 545 712 q 555 668 557 678 q 522 628 549 642 q 391 538 448 592 q 280 397 321 473 q 243 298 254 349 q 237 211 235 256 q 354 70 245 70 q 454 90 398 70 q 646 199 549 125 q 786 325 723 256 q 827 344 805 344 q 850 336 840 344 q 862 299 867 321 q 848 274 859 286 q 694 134 779 197 q 469 7 581 49 q 335 -20 396 -20 q 293 -16 313 -20 q 153 174 158 13 q 73 3 98 66 q 50 -25 65 -15 q 22 -34 37 -34 z "},"l":{"ha":618,"x_min":48,"x_max":749,"o":"m 263 -24 l 256 -24 q 81 111 127 -24 q 73 378 48 210 q 83 431 78 404 q 130 602 100 509 q 277 998 200 815 q 368 1210 332 1128 q 389 1258 380 1239 q 414 1287 397 1278 q 440 1294 427 1294 q 473 1274 465 1294 q 475 1250 478 1263 q 449 1186 474 1242 q 361 985 414 1109 q 210 587 280 799 q 169 433 184 503 q 158 166 132 260 q 277 64 187 64 q 519 181 374 64 q 669 325 590 239 q 709 344 686 344 q 732 336 722 344 q 745 300 749 322 q 731 274 742 286 q 576 124 651 186 q 263 -24 396 -20 z "},"m":{"ha":1213,"x_min":-11,"x_max":1354,"o":"m 36 -20 q 2 -9 16 -20 q -7 22 -11 2 l -4 37 q 1 65 -1 52 q 7 100 3 79 q 20 153 12 120 q 93 425 64 328 q 114 455 98 444 q 147 467 130 467 q 179 448 170 467 q 256 583 220 531 q 383 686 325 686 q 435 654 418 686 q 423 320 471 584 q 616 616 518 498 q 761 711 697 711 q 780 708 771 711 q 818 557 845 686 q 779 426 804 496 q 741 292 750 338 q 730 222 734 263 q 739 139 726 180 q 840 70 757 73 q 942 91 888 70 q 1130 195 1035 125 q 1273 325 1208 254 q 1314 344 1292 344 q 1337 336 1327 344 q 1349 298 1354 322 q 1336 274 1346 286 q 1184 136 1267 199 q 958 8 1071 50 q 817 -19 884 -19 q 653 292 589 -12 q 703 467 667 355 q 740 587 732 553 q 736 620 747 620 q 680 568 725 620 q 520 324 602 473 l 499 288 q 360 18 395 107 q 337 -11 353 0 q 308 -20 323 -20 q 277 -3 287 -20 q 274 28 270 9 q 302 140 290 79 q 325 253 315 202 l 338 319 q 370 551 366 447 q 365 595 371 595 q 343 568 360 595 l 329 546 q 136 134 239 411 q 91 12 113 73 q 68 -13 84 -5 q 36 -20 53 -20 z "},"n":{"ha":917,"x_min":-40,"x_max":1058,"o":"m 525 -26 q 483 -23 503 -26 q 370 51 399 -6 q 360 291 327 135 q 398 441 369 332 q 426 546 416 499 q 432 616 441 616 q 400 595 424 616 q 285 451 347 546 q 157 233 216 343 q 69 55 90 108 l 56 25 q 1 -24 35 -24 q -32 -7 -21 -24 q -36 22 -40 4 q 42 253 -33 37 q 111 456 80 362 q 134 486 118 475 q 163 496 148 496 q 199 469 193 496 l 212 487 q 450 706 353 706 q 486 699 469 706 q 524 592 537 671 l 520 571 q 490 463 510 526 q 444 295 458 360 q 448 116 420 178 q 545 63 473 63 q 628 78 583 63 q 861 210 743 116 q 977 318 924 260 q 1018 337 995 337 q 1041 329 1031 337 q 1053 293 1058 315 q 1040 267 1050 279 q 911 147 981 203 q 639 -7 774 39 q 525 -26 578 -26 z "},"o":{"ha":819,"x_min":-9,"x_max":960,"o":"m 104 -33 q -1 66 18 -33 q 4 174 -9 110 q 51 311 18 238 q 75 338 59 329 q 102 346 88 346 l 109 345 l 113 365 q 149 486 125 427 q 272 647 184 578 q 407 701 345 701 q 499 656 467 701 q 514 484 538 601 q 491 406 506 446 q 297 79 421 216 l 295 76 q 371 66 330 66 q 475 80 419 66 q 735 197 610 114 q 880 318 819 252 q 920 337 897 337 q 943 329 933 337 q 956 293 960 315 q 942 267 952 279 q 780 130 873 192 q 479 -7 633 33 q 353 -24 412 -24 q 214 5 272 -24 q 104 -33 155 -33 m 226 121 l 235 130 q 406 420 345 252 q 425 484 418 454 q 432 547 432 517 q 387 611 431 611 q 317 581 357 611 q 233 468 259 534 q 201 365 213 416 q 226 121 165 191 m 124 56 q 146 60 134 56 q 98 194 106 112 l 94 175 q 89 97 83 127 q 124 56 95 56 z "},"p":{"ha":843,"x_min":-301,"x_max":981,"o":"m -259 -831 q -293 -814 -281 -831 q -297 -781 -301 -801 q -245 -608 -294 -764 q 100 435 -114 -192 q 124 465 107 454 q 153 473 138 473 q 184 456 175 473 q 188 429 191 444 q 118 223 186 422 q 397 637 252 488 q 533 711 472 711 q 569 703 553 711 q 615 464 656 658 q 534 234 590 349 l 551 227 q 661 194 612 194 q 682 195 671 194 q 814 252 736 200 q 905 323 855 279 q 941 338 922 338 q 968 326 958 338 q 977 294 981 312 q 958 263 973 277 q 850 178 900 211 q 674 106 747 113 q 640 104 656 104 q 496 145 572 104 l 490 149 q 430 61 462 103 q 346 -15 398 20 q 273 -41 306 -41 q 235 -31 253 -41 q 205 24 208 -14 q 207 60 203 41 q 229 117 212 86 q 340 235 269 191 q 431 262 386 262 q 455 260 443 262 l 471 297 q 504 394 484 325 q 530 492 519 444 q 528 630 555 608 q 521 633 526 633 q 463 593 503 633 q 239 278 343 469 q 97 -12 162 136 q -104 -519 14 -201 q -210 -795 -155 -657 q -259 -831 -224 -831 m 297 53 q 312 59 302 53 q 408 173 351 81 q 334 125 379 173 q 305 87 315 104 q 292 62 295 72 q 297 53 291 53 z "},"q":{"ha":1026,"x_min":1,"x_max":1166,"o":"m 286 -842 q 213 -804 241 -842 q 182 -694 186 -766 q 213 -430 180 -582 q 409 219 280 -136 q 298 91 356 150 q 103 -27 180 -27 q 72 -20 85 -27 q 23 35 38 -5 q 24 200 1 96 q 154 489 56 351 q 455 694 279 665 q 505 699 479 699 q 601 686 551 699 q 630 694 615 694 q 668 675 657 694 q 671 655 673 667 l 669 648 q 486 172 590 467 q 511 179 498 179 q 525 177 515 179 q 543 162 535 176 q 674 83 586 83 q 711 86 692 83 q 894 159 797 100 q 1085 318 996 221 q 1126 337 1103 337 q 1149 329 1139 337 q 1161 293 1166 315 q 1147 267 1158 279 q 929 85 1048 158 q 706 -2 814 15 q 654 -6 680 -6 q 593 1 623 -6 q 572 -393 617 -173 q 433 -736 528 -601 q 286 -842 354 -842 m 134 60 q 250 144 172 60 q 516 517 369 276 q 557 600 536 548 q 490 608 522 608 q 454 606 471 608 q 312 540 376 592 q 159 334 218 464 q 113 199 126 261 q 104 144 106 170 q 134 60 98 60 m 302 -751 q 362 -696 321 -751 q 481 -401 443 -583 q 508 -87 517 -233 q 467 95 502 33 l 463 105 q 318 -372 374 -148 q 302 -441 309 -408 q 273 -672 272 -581 q 302 -751 275 -749 z "},"r":{"ha":729,"x_min":-29,"x_max":867,"o":"m 9 -38 q -20 -22 -10 -38 q -25 9 -29 -9 l 98 440 q 119 470 104 458 q 152 481 134 481 q 186 457 178 481 l 193 468 q 388 694 298 652 q 431 706 411 706 q 447 704 439 706 q 488 557 500 692 q 574 258 470 315 q 629 247 597 247 q 785 321 719 247 q 826 342 803 342 q 849 335 839 342 q 862 297 867 321 q 850 273 859 285 q 605 157 747 157 q 539 168 568 157 q 412 326 445 203 q 398 556 385 441 q 395 602 408 602 q 379 591 390 602 q 158 224 286 494 q 62 0 98 96 q 40 -28 54 -18 q 9 -38 26 -38 z "},"s":{"ha":528,"x_min":-29,"x_max":665,"o":"m 52 -47 q -1 -24 22 -47 q -16 72 -29 12 q -3 113 -12 92 q 87 197 26 175 q 71 328 80 267 q 69 518 54 444 q 121 639 85 593 q 267 715 186 715 q 356 675 320 715 q 385 567 393 636 l 385 561 q 365 529 380 543 q 330 516 349 516 q 301 529 311 516 q 295 562 291 543 q 283 609 298 593 q 247 625 268 625 q 190 595 216 625 q 159 522 170 570 q 157 394 149 469 l 180 210 l 218 209 q 445 239 331 209 q 582 321 530 262 q 625 343 600 343 q 646 337 637 343 q 660 298 665 323 q 649 276 657 287 q 453 154 579 191 q 201 120 326 120 l 182 120 q 176 69 180 93 q 76 -44 157 -20 q 52 -47 64 -47 m 75 43 q 85 65 81 43 q 90 107 92 107 q 79 91 87 107 q 73 71 75 81 q 71 58 72 65 q 75 43 71 43 z "},"t":{"ha":610,"x_min":-54,"x_max":748,"o":"m 262 -31 l 255 -31 q 80 104 126 -31 q 83 430 40 223 q 241 906 121 603 q 103 916 159 916 q 52 913 79 916 q 20 896 24 911 q 3 872 15 882 q -23 863 -9 863 q -46 874 -39 863 q -51 900 -54 884 q 24 974 -34 956 q 127 987 68 987 q 269 977 175 987 l 276 991 q 389 1253 330 1122 q 414 1280 396 1271 q 439 1287 427 1287 q 473 1267 464 1287 q 475 1243 477 1256 l 472 1234 q 360 978 418 1116 q 355 967 357 972 q 486 957 446 957 q 532 966 525 957 q 554 987 540 981 q 572 991 563 991 q 600 972 593 991 q 600 957 602 965 q 595 945 599 951 q 539 900 578 912 q 449 888 500 888 q 326 897 401 888 q 210 580 262 744 q 166 420 182 492 q 157 159 131 254 q 276 57 186 57 q 519 174 374 57 q 667 318 589 232 q 709 337 686 337 q 732 329 722 337 q 743 292 748 315 q 730 267 741 279 q 574 117 650 179 q 262 -31 394 -27 z "},"u":{"ha":955,"x_min":-5,"x_max":1093,"o":"m 90 -26 q 29 4 49 -26 q 23 186 -5 55 q 42 258 31 220 q 140 527 81 389 q 195 667 168 596 q 218 696 202 686 q 246 705 233 705 q 279 687 270 705 q 282 661 285 675 q 226 515 279 644 q 106 164 134 294 q 111 62 86 66 q 155 96 123 63 q 248 225 198 145 q 383 473 321 348 l 419 547 q 479 668 448 608 q 507 694 490 686 q 528 699 518 699 q 542 696 535 699 q 564 653 571 686 l 562 647 q 512 456 541 579 q 602 68 429 68 q 718 98 650 68 q 1013 325 873 170 q 1053 344 1031 344 q 1077 336 1067 344 q 1088 299 1093 321 q 1075 274 1086 286 q 971 172 1027 220 q 740 18 857 72 q 582 -22 652 -22 q 398 159 428 -22 q 399 325 389 236 q 216 45 297 134 q 90 -26 152 -26 z "},"v":{"ha":841,"x_min":4,"x_max":979,"o":"m 103 -27 l 98 -27 q 24 137 4 -18 q 37 210 28 172 q 113 473 54 295 q 165 649 152 587 l 169 667 q 186 696 172 684 q 221 711 203 711 q 250 700 239 711 q 258 670 260 689 l 254 649 q 200 464 239 579 q 119 182 140 283 q 111 144 115 163 q 123 62 98 68 q 171 94 138 62 q 277 227 224 149 q 294 429 273 329 q 427 684 334 619 q 485 703 458 703 q 554 650 538 703 q 553 576 562 615 q 505 448 541 516 q 372 220 448 334 q 487 68 382 68 q 602 98 536 68 q 805 234 704 145 q 898 325 854 277 q 939 344 916 344 q 962 336 952 344 q 974 300 979 322 q 960 274 971 286 q 625 18 802 99 q 467 -22 537 -22 q 296 117 338 -22 q 103 -27 181 -27 m 380 389 q 463 574 445 500 q 465 587 465 579 q 467 602 466 595 q 466 613 467 610 q 387 426 421 589 q 380 389 382 405 z "},"w":{"ha":1105,"x_min":0,"x_max":1243,"o":"m 368 -34 l 363 -34 q 289 131 268 -25 q 180 6 233 45 q 96 -28 133 -28 q 28 19 50 -28 q 26 197 0 76 q 36 241 31 218 q 174 633 86 413 q 197 692 189 669 q 221 721 205 710 q 248 730 234 730 q 281 712 272 730 q 284 685 288 700 q 258 617 282 675 q 110 178 140 317 q 118 68 87 68 q 240 209 154 68 q 378 473 320 347 q 433 509 397 509 q 465 486 459 509 q 466 460 469 474 q 452 415 464 450 q 382 168 402 263 l 376 138 q 389 55 362 61 q 435 87 404 55 q 543 220 481 134 q 559 422 538 322 q 692 677 600 614 q 749 696 722 696 q 819 644 803 696 q 819 572 827 610 q 770 441 806 511 q 637 214 711 323 q 663 113 645 147 q 751 61 690 61 q 867 91 800 61 q 1070 227 969 138 q 1162 318 1120 270 q 1204 337 1181 337 q 1227 329 1217 337 q 1238 292 1243 315 q 1225 267 1236 279 q 889 11 1067 93 q 732 -28 802 -28 q 561 110 603 -28 q 368 -34 445 -34 m 645 382 q 728 568 712 500 q 730 580 729 572 q 731 595 731 588 q 730 606 732 603 q 701 572 714 597 q 652 419 672 516 q 645 382 647 398 z "},"x":{"ha":686,"x_min":-159,"x_max":822,"o":"m -120 -19 q -131 -19 -121 -19 q -150 -5 -140 -18 q -155 25 -159 9 l -153 35 q -135 58 -151 45 q 83 260 -41 133 q 64 666 47 446 l 64 673 q 80 701 68 688 q 118 718 96 718 q 144 708 133 718 q 155 679 155 698 q 151 508 149 614 q 163 345 151 427 q 446 682 340 537 q 490 706 463 706 q 509 702 500 706 q 526 662 531 688 q 517 642 524 652 q 182 248 393 471 q 349 75 232 75 q 526 141 425 75 q 741 325 646 219 q 782 344 759 344 q 805 336 795 344 q 817 300 822 322 q 804 274 814 286 q 561 68 695 155 q 426 1 495 26 q 323 -18 373 -18 q 181 41 237 -18 q 106 170 136 88 q -120 -19 -83 -19 z "},"y":{"ha":873,"x_min":-162,"x_max":1010,"o":"m -58 -840 q -139 -770 -115 -837 q -140 -600 -162 -703 q -94 -458 -126 -534 q 257 -62 11 -218 q 338 -14 296 -37 q 407 215 353 30 q 444 350 418 254 q 233 61 334 176 q 90 -25 151 -25 q 37 2 58 -25 q 28 197 -3 53 q 151 533 59 342 q 237 692 191 619 q 283 720 255 720 q 300 717 292 720 q 319 675 326 705 q 313 659 317 667 q 232 511 271 591 q 117 193 146 333 q 106 111 106 146 q 122 63 106 63 q 302 283 159 63 q 490 581 444 499 q 543 668 517 629 q 586 690 560 690 q 623 664 615 690 q 625 642 627 653 l 621 632 q 581 511 596 572 l 547 382 q 447 44 501 213 q 614 127 505 74 q 936 326 824 229 q 972 339 954 339 q 1000 326 989 339 q 1006 294 1010 313 q 988 264 1003 277 q 641 50 862 157 q 409 -68 446 -48 q 144 -671 277 -454 q 95 -741 124 -704 q -58 -840 17 -838 m -37 -749 q -10 -736 -27 -749 q 68 -637 25 -707 q 295 -134 177 -460 q 113 -284 189 -201 q -12 -477 37 -367 q -50 -598 -39 -543 q -54 -725 -67 -675 q -37 -749 -50 -749 z "},"z":{"ha":811,"x_min":-248,"x_max":948,"o":"m -113 -839 q -222 -775 -190 -839 q -231 -643 -248 -724 q -134 -431 -208 -534 q 62 -227 -47 -312 q 360 -35 171 -142 q 241 273 377 189 q 224 314 219 286 q 245 345 229 330 q 362 461 320 406 q 420 568 412 527 q 399 614 430 614 q 259 498 349 614 q 145 304 192 406 q 119 277 136 286 q 95 271 107 271 q 61 294 70 271 q 60 316 57 304 q 64 328 61 321 q 186 535 115 436 q 427 705 318 705 q 481 686 459 705 q 510 585 518 655 q 507 568 509 577 q 433 422 494 504 q 341 322 397 373 q 454 19 456 220 q 664 151 563 81 q 866 327 779 229 q 907 347 885 347 q 931 340 920 347 q 943 302 948 326 q 930 278 941 290 q 706 82 832 168 q 454 -74 584 -1 l 446 -79 q 435 -142 441 -111 q 368 -351 412 -247 q 227 -601 310 -488 q -4 -810 106 -760 q -113 -839 -65 -839 m -87 -751 q 157 -559 11 -751 q 284 -333 232 -458 q 345 -142 324 -238 l 346 -136 q 108 -294 220 -208 q -65 -477 5 -373 q -142 -640 -128 -574 q -102 -750 -161 -738 q -87 -751 -95 -751 z "},"{":{"ha":292,"x_min":64,"x_max":547,"o":"m 168 -98 q 78 31 64 -98 q 90 98 82 62 q 120 214 101 152 q 160 368 146 304 q 170 491 174 434 q 162 525 168 512 q 134 561 153 541 q 126 594 122 574 q 145 624 130 611 q 149 628 147 627 q 162 642 155 631 q 242 799 214 722 q 286 926 265 862 q 371 1139 332 1073 q 509 1228 423 1224 q 537 1217 527 1228 q 544 1187 547 1205 q 526 1156 540 1168 q 493 1143 511 1143 q 407 1027 448 1141 q 369 916 388 977 q 322 780 348 848 q 226 599 280 669 q 248 561 241 578 q 258 516 255 543 q 246 369 263 446 q 208 219 229 292 q 175 99 189 162 q 165 41 169 68 q 197 -12 157 -12 l 206 -12 q 231 -21 221 -12 q 240 -53 244 -33 q 224 -81 237 -68 q 193 -97 211 -94 q 168 -98 180 -98 z "},"|":{"ha":115,"x_min":-8,"x_max":314,"o":"m 28 -64 q 1 -50 10 -62 q -4 -20 -8 -38 l 225 922 q 245 952 230 940 q 278 964 260 964 q 305 950 296 963 q 310 920 314 938 l 81 -22 q 61 -52 76 -40 q 28 -64 46 -64 z "},"}":{"ha":292,"x_min":26,"x_max":421,"o":"m 81 -98 q 58 -97 70 -98 q 33 -81 40 -94 q 29 -53 26 -68 q 53 -20 34 -33 q 81 -12 66 -12 l 90 -12 q 144 41 128 -12 q 157 96 151 66 q 177 219 172 165 q 203 374 186 292 q 254 516 220 448 q 282 561 267 543 q 321 599 296 578 q 312 916 287 692 q 322 1027 319 977 q 284 1143 328 1140 q 257 1156 266 1143 q 252 1187 248 1168 q 272 1217 257 1205 q 304 1228 287 1228 q 405 1139 389 1224 q 399 926 416 1073 q 389 799 393 862 q 406 631 385 720 q 406 630 406 631 q 409 628 406 629 q 418 596 421 612 q 396 561 414 575 q 353 525 368 541 q 330 491 340 512 q 288 368 302 434 q 262 214 274 304 q 244 98 256 152 q 227 31 237 62 q 81 -98 186 -98 z "},"~":{"ha":502,"x_min":50,"x_max":564,"o":"m 399 189 q 277 222 352 189 q 186 246 223 246 q 119 220 153 246 q 86 208 103 208 q 58 221 69 208 q 53 250 50 234 q 72 281 57 269 q 197 334 140 334 q 235 331 202 334 q 324 302 268 328 q 418 277 378 277 q 493 307 454 277 q 526 320 509 320 q 555 308 543 320 q 561 278 564 295 q 543 248 557 260 q 444 194 489 203 q 399 189 420 189 z "},"":{"ha":172,"x_min":-8,"x_max":410,"o":"m 28 -65 q -1 -50 9 -65 q -5 -23 -8 -39 l 249 874 q 270 903 255 892 q 302 914 284 914 q 330 899 320 914 q 334 870 338 887 l 80 -25 q 59 -54 74 -43 q 28 -65 45 -65 m 318 947 q 290 963 300 947 q 286 990 283 975 l 322 1109 q 342 1138 327 1128 q 374 1149 357 1149 q 402 1133 393 1149 q 406 1104 410 1121 l 371 987 q 350 958 366 968 q 318 947 335 947 z "},"":{"ha":585,"x_min":9,"x_max":648,"o":"m 159 -131 q 131 -118 140 -131 q 125 -88 122 -105 l 126 -85 q 15 7 31 -83 q 20 93 9 43 q 144 364 45 210 q 294 559 216 477 l 323 669 q 343 699 329 688 q 375 710 358 710 q 403 697 394 710 q 408 667 412 684 l 404 647 q 469 665 437 665 q 520 642 503 665 q 533 560 544 611 q 506 513 526 526 q 477 505 492 505 q 447 521 456 505 q 444 547 441 532 l 448 563 q 449 574 450 568 q 445 580 449 580 q 372 526 433 580 l 240 23 q 569 296 405 101 q 609 315 587 315 q 631 309 621 315 q 643 273 648 296 q 560 171 638 251 q 216 -70 372 -20 l 211 -90 q 191 -120 205 -109 q 159 -131 176 -131 m 149 -1 l 201 201 l 247 378 q 106 94 130 206 q 149 -1 86 1 z "},"":{"ha":464,"x_min":50,"x_max":566,"o":"m 97 -69 q 77 -64 86 -69 q 60 -30 55 -51 q 72 -5 62 -19 q 174 220 149 100 l 178 242 q 161 243 169 243 q 128 232 140 243 q 88 214 110 214 q 66 221 75 214 q 54 256 50 234 q 67 281 57 269 q 176 330 113 330 l 186 330 q 182 401 186 366 q 186 492 178 450 q 211 557 194 527 q 298 654 245 621 q 406 688 351 688 q 530 622 483 688 q 565 507 562 571 q 564 494 566 500 q 553 471 562 484 q 513 452 538 452 q 478 484 481 452 q 453 566 475 529 q 388 602 429 602 q 333 584 360 602 q 287 532 305 566 q 273 493 277 514 q 270 428 267 464 q 273 312 276 370 l 297 304 q 395 282 366 282 q 428 291 414 282 q 454 299 441 299 q 468 298 458 299 q 486 282 477 296 q 490 256 492 270 q 486 244 489 254 q 466 222 482 234 q 380 197 424 197 q 260 221 330 197 q 197 46 241 130 q 350 73 283 73 q 397 70 368 73 q 454 45 425 66 q 466 9 471 31 q 453 -15 463 -3 q 414 -34 435 -34 q 391 -26 401 -34 q 331 -11 368 -11 q 142 -57 271 -11 q 97 -69 110 -69 z "},"":{"ha":738,"x_min":31,"x_max":847,"o":"m 69 26 q 56 27 66 26 q 37 43 46 28 q 34 68 31 55 q 38 81 35 71 q 58 102 41 91 l 194 193 q 177 274 168 229 q 222 359 186 319 l 115 459 q 105 494 100 473 q 119 519 108 507 q 158 536 136 536 q 181 527 171 536 l 296 420 q 470 467 374 467 q 621 424 568 462 l 782 531 q 810 540 796 540 q 822 539 812 540 q 840 524 832 538 q 844 497 847 511 q 840 485 843 494 q 820 463 837 475 l 671 364 q 678 291 686 329 q 619 201 668 241 l 711 115 q 721 81 725 102 q 707 56 718 68 q 669 39 690 39 q 645 47 656 39 l 530 154 q 378 129 463 131 q 263 146 314 129 l 96 35 q 69 26 82 26 m 418 215 q 553 250 499 220 q 593 292 588 270 q 564 348 599 321 q 444 381 522 381 q 320 343 371 378 q 263 277 271 311 q 292 234 258 252 q 395 215 334 215 l 418 215 z "},"":{"ha":459,"x_min":61,"x_max":530,"o":"m 271 -115 q 243 -100 253 -115 q 239 -70 235 -87 q 276 54 258 -9 l 239 54 q 211 66 221 54 q 205 96 201 79 q 224 126 209 114 q 257 139 239 139 l 301 139 l 305 153 l 256 154 q 229 166 239 154 q 223 197 219 179 q 242 227 227 214 q 275 239 257 239 l 330 239 q 385 432 358 337 q 261 314 313 347 q 182 286 217 286 q 117 549 61 286 q 138 633 125 588 q 159 662 144 651 q 191 672 174 672 q 218 657 209 672 q 222 628 227 646 q 201 545 209 582 q 190 389 178 435 q 201 372 195 372 q 224 382 207 372 q 446 646 305 434 q 490 672 464 672 q 507 668 499 672 q 524 627 530 655 q 446 342 492 504 q 416 239 431 291 l 464 239 q 491 227 481 239 q 497 196 501 214 q 478 166 494 178 q 446 153 463 153 l 391 153 l 387 139 l 446 139 q 474 126 464 139 q 479 96 484 114 q 461 66 476 79 q 428 54 446 54 l 362 54 l 323 -75 q 303 -104 319 -94 q 271 -115 288 -115 z "},"":{"ha":124,"x_min":-8,"x_max":257,"o":"m 28 -64 q 0 -50 9 -64 q -4 -20 -8 -37 l 72 245 q 92 274 77 263 q 124 285 107 285 q 153 270 143 285 q 157 243 160 258 q 81 -24 155 233 q 60 -54 75 -43 q 28 -64 45 -64 m 124 292 q 96 306 104 292 q 91 336 87 319 l 168 612 q 189 641 174 630 q 221 652 203 652 q 249 637 239 652 q 254 608 257 625 l 176 332 q 156 303 170 314 q 124 292 141 292 z "},"":{"ha":334,"x_min":4,"x_max":471,"o":"m 39 -87 q 4 -56 8 -87 q 5 -43 4 -50 q 45 -3 12 -14 q 78 30 73 5 q 66 115 82 52 q 54 256 43 205 q 99 334 63 298 q 227 386 135 370 l 226 389 q 216 533 204 477 q 245 593 224 567 q 429 664 290 651 l 433 664 q 459 654 449 664 q 467 621 471 642 q 450 593 463 606 q 419 579 437 581 q 309 543 329 571 q 299 521 302 533 q 312 423 294 494 q 324 291 334 338 q 302 240 319 270 q 212 188 286 210 q 199 186 205 186 q 165 217 168 186 q 165 229 164 223 q 205 270 172 260 q 237 300 233 279 l 238 304 q 139 251 148 292 q 151 151 134 214 q 164 18 174 63 q 142 -33 159 -3 q 52 -85 125 -63 q 39 -87 45 -87 z "},"":{"ha":277,"x_min":178,"x_max":465,"o":"m 401 815 q 368 833 379 815 q 363 864 360 847 q 390 901 369 887 q 422 911 406 911 q 457 893 448 911 q 461 863 465 880 q 435 825 456 840 q 401 815 419 815 m 221 811 q 186 829 197 811 q 182 859 178 842 q 208 897 187 882 q 240 907 224 907 q 275 888 266 906 q 279 859 283 876 q 253 821 274 836 q 221 811 238 811 z "},"":{"ha":713,"x_min":43,"x_max":793,"o":"m 343 -61 q 156 -11 227 -61 q 63 127 85 40 q 61 287 43 203 q 138 460 81 379 q 304 606 201 551 q 513 654 396 654 q 705 589 637 654 q 778 450 762 534 q 775 295 793 376 q 709 139 758 214 q 570 3 656 57 q 343 -61 473 -58 m 359 25 q 534 73 458 25 q 639 174 599 113 q 690 299 676 232 q 692 418 703 361 q 638 521 680 479 q 497 568 589 568 q 330 529 405 568 q 206 422 254 490 q 147 289 162 359 q 147 164 133 223 q 221 60 164 100 q 359 25 272 25 m 333 70 l 329 70 q 264 109 283 75 q 257 241 239 156 q 299 357 269 297 q 412 494 344 446 q 502 524 456 524 q 581 494 541 524 q 593 458 597 481 q 581 434 590 446 q 541 416 562 416 q 518 422 528 416 q 480 437 498 437 q 451 427 465 437 q 376 333 408 396 q 342 241 352 285 q 338 208 339 224 q 353 156 334 160 q 418 201 363 156 q 504 260 460 239 q 522 263 513 263 q 556 238 549 263 q 555 220 557 229 q 522 181 550 194 q 465 140 508 176 q 333 70 386 70 z "},"":{"ha":374,"x_min":109,"x_max":544,"o":"m 388 357 q 365 366 375 357 q 354 391 354 374 q 361 444 355 413 q 410 615 374 503 q 281 480 322 518 q 197 432 231 432 q 134 468 153 436 q 125 590 109 511 q 170 704 137 646 q 292 829 216 789 q 359 846 326 846 q 398 842 370 846 q 470 795 427 838 q 474 791 473 793 q 498 798 487 798 q 527 719 544 798 q 500 630 520 686 q 447 445 458 498 q 441 399 444 434 q 427 374 438 387 q 388 357 412 357 m 221 517 q 254 555 224 519 q 406 726 307 618 l 401 729 q 340 760 368 760 q 316 754 328 760 q 244 675 275 732 q 211 590 220 631 q 221 517 197 523 z "},"":{"ha":403,"x_min":56,"x_max":511,"o":"m 380 104 q 316 144 356 104 q 269 203 290 171 q 238 309 229 264 q 315 418 248 355 q 443 527 360 463 q 475 538 459 538 q 485 538 475 538 q 503 525 494 538 q 508 496 511 511 q 506 486 508 494 q 488 464 503 477 q 368 363 410 404 q 326 310 329 327 q 346 258 322 294 q 414 186 381 204 q 433 148 438 175 q 426 131 431 140 q 380 104 409 104 m 206 105 q 141 147 182 105 q 94 205 115 173 q 66 310 56 265 q 142 418 75 356 q 271 527 188 463 q 302 538 286 538 q 312 538 302 538 q 330 525 321 538 q 336 496 339 511 q 333 486 336 494 q 315 464 331 477 q 193 360 218 388 q 153 311 157 327 q 172 260 150 295 q 241 187 208 204 q 258 149 263 174 q 250 130 256 140 q 206 105 233 105 z "},"":{"ha":692,"x_min":194,"x_max":892,"o":"m 787 679 q 760 692 768 680 q 754 720 751 704 q 793 883 758 736 l 231 886 q 203 898 213 886 q 197 928 194 910 q 217 959 202 947 q 250 971 231 970 q 866 966 851 968 q 886 953 880 964 q 884 903 892 942 l 879 882 q 840 720 865 827 q 820 690 834 702 q 787 679 805 679 z "},"":{"ha":713,"x_min":47,"x_max":796,"o":"m 345 -44 q 160 6 231 -44 q 66 144 89 56 q 64 304 47 220 q 141 477 84 396 q 308 622 205 567 q 519 671 400 671 q 708 606 641 671 q 782 467 766 550 q 779 312 796 393 q 713 156 761 231 q 573 20 660 74 q 345 -44 477 -41 m 363 41 q 481 62 425 41 q 467 60 473 60 q 374 177 435 60 l 350 98 q 329 70 344 80 q 299 60 315 60 q 270 75 279 60 q 267 105 262 87 q 309 252 289 180 q 302 281 300 263 q 326 316 308 303 q 341 373 335 347 q 327 411 322 388 q 340 435 330 424 q 361 456 351 447 l 370 494 q 387 523 372 509 q 419 536 401 536 q 452 517 443 536 q 518 532 488 532 q 534 531 527 532 q 618 460 602 519 q 620 406 626 434 q 439 252 596 295 q 513 131 472 193 q 519 102 522 118 q 516 92 519 101 q 498 71 513 83 q 482 62 490 65 q 642 191 587 104 q 694 312 680 248 q 696 435 707 376 q 642 537 684 496 q 498 585 593 585 q 333 546 408 585 q 210 438 258 507 q 151 305 165 376 q 152 180 136 239 q 224 77 168 116 q 363 41 276 41 m 416 331 q 534 406 523 353 q 534 423 536 414 q 499 447 526 447 q 439 421 476 447 q 416 331 430 382 z "},"":{"ha":476,"x_min":194,"x_max":677,"o":"m 621 883 l 231 886 q 203 898 212 886 q 197 928 194 910 q 216 959 201 947 q 249 971 231 970 l 640 968 q 667 956 658 968 q 673 926 677 944 q 654 896 669 907 q 621 883 640 884 z "},"":{"ha":231,"x_min":178,"x_max":427,"o":"m 276 787 q 220 803 245 787 q 193 905 178 840 q 228 983 201 948 q 333 1041 274 1041 q 394 1016 368 1041 q 425 942 422 987 q 423 905 427 923 q 392 842 416 873 q 309 791 357 804 q 276 787 292 787 m 294 872 q 305 874 299 872 q 337 905 332 883 q 337 923 339 913 q 315 955 332 955 q 287 930 298 955 q 278 904 280 914 q 276 888 277 897 q 281 876 276 880 q 294 872 287 872 z "},"":{"ha":498,"x_min":20,"x_max":591,"o":"m 277 155 q 251 168 260 155 q 245 199 241 180 l 289 379 l 130 381 q 102 394 112 382 q 96 425 93 406 q 116 454 101 442 q 149 467 130 467 l 310 465 l 354 647 q 374 677 359 665 q 407 688 389 688 q 434 675 425 688 q 439 644 443 663 l 395 464 l 554 462 q 581 449 572 461 q 587 419 591 437 q 568 389 583 401 q 535 376 553 377 l 374 378 l 330 196 q 311 166 326 178 q 277 155 296 155 m 462 61 l 56 66 q 29 79 39 66 q 23 109 20 91 q 42 139 28 127 q 75 151 57 151 l 481 146 q 508 134 498 146 q 514 104 517 122 q 495 74 509 85 q 462 61 480 62 z "},"":{"ha":260,"x_min":123,"x_max":416,"o":"m 304 564 q 162 569 196 564 q 130 614 123 578 q 149 646 134 629 q 197 692 160 659 q 307 806 259 745 q 325 844 321 829 q 324 858 326 852 q 308 867 320 867 q 267 843 290 867 q 227 825 250 825 q 205 831 214 825 q 193 867 189 845 q 205 891 196 880 q 326 953 262 953 q 407 900 386 953 q 410 842 416 876 q 375 769 402 808 q 264 650 324 702 l 288 649 q 348 650 343 649 q 355 650 352 650 q 380 641 370 650 q 389 608 394 629 q 374 581 386 593 q 344 565 362 568 q 304 564 336 564 z "},"":{"ha":278,"x_min":130,"x_max":438,"o":"m 259 557 q 218 561 248 557 q 143 603 188 564 q 134 637 130 616 q 148 663 136 651 q 185 680 165 680 q 210 671 199 680 q 277 643 241 643 q 323 659 303 643 q 334 672 332 665 q 267 709 337 690 q 239 746 233 718 q 286 807 244 773 q 348 869 343 856 q 330 873 339 872 q 293 859 308 873 q 257 845 277 845 q 232 854 242 845 q 224 888 220 868 q 239 915 227 902 q 350 959 287 959 q 435 902 420 959 q 435 873 438 888 q 363 773 425 827 q 419 670 433 734 q 388 613 412 640 q 326 570 363 586 q 259 557 294 557 z "},"":{"ha":250,"x_min":178,"x_max":449,"o":"m 212 802 q 180 826 186 802 q 180 845 178 836 q 211 884 184 871 l 393 966 q 413 970 404 970 q 446 946 439 970 q 447 926 449 937 q 414 888 441 901 l 233 807 q 212 802 222 802 z "},"":{"ha":368,"x_min":-15,"x_max":507,"o":"m 22 -93 q -5 -82 4 -92 q -12 -56 -15 -71 l 167 663 q 185 688 171 678 q 218 699 200 699 q 246 687 237 697 q 252 661 255 677 l 193 421 q 214 307 187 342 q 249 288 230 288 q 291 307 267 288 q 372 425 334 341 q 422 587 401 489 q 434 648 429 616 q 448 670 437 661 q 475 680 460 679 q 498 671 490 680 q 505 650 507 663 q 494 589 500 618 q 429 392 470 477 q 336 266 387 307 q 236 225 286 225 q 153 264 185 225 l 73 -58 q 55 -83 69 -73 q 22 -93 40 -93 z "},"":{"ha":665,"x_min":151,"x_max":844,"o":"m 452 -93 q 425 -80 434 -92 q 420 -49 416 -67 q 621 781 521 366 l 473 783 q 271 -52 371 366 q 251 -81 265 -70 q 218 -93 236 -93 q 191 -80 199 -92 q 185 -51 182 -68 l 336 572 q 279 564 305 564 q 192 598 233 564 q 151 698 151 631 q 154 724 151 711 q 394 867 182 857 q 496 868 445 868 q 834 850 820 868 q 840 819 844 838 q 820 789 835 801 q 787 777 806 777 q 707 779 746 778 l 505 -52 q 486 -81 500 -70 q 452 -93 471 -93 m 303 651 q 349 664 324 651 q 359 669 354 667 l 387 782 l 378 782 q 239 720 251 776 q 238 712 238 715 q 271 660 237 678 q 303 651 286 651 z "},"":{"ha":96,"x_min":60,"x_max":165,"o":"m 102 256 q 68 274 79 256 q 64 304 60 287 q 90 342 69 328 q 123 352 106 352 q 158 334 147 351 q 161 304 165 321 q 135 266 156 279 q 102 256 119 256 z "},"":{"ha":231,"x_min":-55,"x_max":232,"o":"m 25 -374 q -28 -347 -6 -374 q -52 -288 -47 -323 q -49 -231 -55 -259 q -18 -159 -41 -194 q 127 -72 32 -88 l 142 -9 q 162 21 148 9 q 195 33 177 33 q 223 19 214 32 q 228 -12 232 7 l 191 -165 q 171 -195 186 -183 q 138 -207 156 -207 q 111 -193 120 -205 q 106 -161 102 -181 q 37 -232 48 -178 q 36 -259 34 -246 q 40 -280 37 -273 q 47 -288 43 -288 q 74 -267 52 -287 q 139 -231 114 -231 q 166 -255 160 -231 q 166 -274 168 -264 q 159 -293 165 -281 q 133 -314 153 -305 q 104 -334 120 -320 q 25 -374 64 -374 z "},"":{"ha":106,"x_min":118,"x_max":308,"o":"m 155 529 q 127 542 136 529 q 121 572 118 555 l 219 939 q 240 968 224 957 q 273 979 255 979 q 299 965 291 978 q 304 934 308 952 q 206 569 255 751 q 187 540 201 551 q 155 529 172 529 z "},"":{"ha":237,"x_min":140,"x_max":416,"o":"m 239 543 l 231 543 q 155 609 178 543 q 155 728 140 656 q 168 770 160 749 q 231 884 193 840 q 340 949 283 945 q 406 890 394 949 q 401 772 416 839 q 336 611 382 680 q 239 543 290 546 m 250 629 l 252 629 q 294 705 269 640 q 315 770 309 743 q 323 847 326 820 q 315 861 321 861 q 268 799 298 861 q 241 727 246 753 q 239 648 231 678 q 250 629 245 629 z "},"":{"ha":403,"x_min":32,"x_max":479,"o":"m 66 104 q 33 131 39 104 q 33 148 32 140 q 68 186 39 175 q 167 258 108 204 q 209 310 205 294 q 189 363 213 327 q 112 464 164 404 q 105 496 102 477 q 122 524 109 511 q 157 538 139 538 q 184 527 174 538 q 266 418 239 463 q 296 309 306 355 q 221 203 286 264 q 149 144 186 171 q 66 104 91 104 m 242 105 q 209 130 216 105 q 209 149 207 140 q 242 187 214 174 q 340 260 282 204 q 382 311 378 295 q 363 360 385 327 q 285 464 350 388 q 277 496 274 477 q 296 525 281 511 q 330 538 312 538 q 356 527 346 538 q 438 418 412 463 q 469 310 479 356 q 395 205 460 265 q 325 147 361 173 q 242 105 267 105 z "},"":{"ha":516,"x_min":75,"x_max":667,"o":"m 161 510 q 133 523 142 510 q 127 555 123 536 l 229 939 q 250 968 235 957 q 283 979 264 979 q 310 965 301 978 q 314 936 318 953 l 213 551 q 193 521 208 532 q 161 510 178 510 m 511 264 q 482 277 492 264 q 477 309 473 290 l 509 430 q 359 437 387 430 q 329 461 335 441 q 328 481 326 471 q 363 532 332 501 l 382 553 q 493 679 460 630 q 538 705 511 705 q 554 701 546 705 q 572 674 571 692 l 578 697 q 598 727 583 715 q 630 738 613 738 q 658 725 648 738 q 663 693 667 711 l 562 304 q 542 275 557 286 q 511 264 528 264 m 531 515 l 565 646 l 564 645 q 456 517 514 572 q 531 515 493 515 m 113 334 q 92 342 102 334 q 80 378 75 355 q 92 401 83 389 l 518 892 q 557 911 535 911 q 579 904 570 911 q 591 868 596 890 q 580 845 589 856 l 154 354 q 113 334 136 334 z "},"":{"ha":505,"x_min":75,"x_max":605,"o":"m 505 302 l 433 302 q 351 307 391 302 q 320 330 328 311 q 319 353 316 341 q 337 385 322 369 q 379 424 367 416 q 439 481 407 449 q 513 581 506 546 q 513 596 515 590 q 497 606 509 606 q 456 581 479 606 q 416 562 438 562 q 394 570 404 562 q 382 605 378 583 q 395 629 385 618 q 515 691 452 691 q 596 638 575 691 q 598 580 605 613 q 564 507 591 547 q 454 388 513 440 q 498 387 471 387 q 520 387 507 387 q 537 388 532 387 q 544 389 541 389 q 569 379 559 389 q 578 346 583 367 q 563 319 575 332 q 533 303 551 306 q 505 302 525 302 m 113 334 q 92 342 102 334 q 80 378 75 355 q 92 401 83 389 l 517 892 q 557 911 535 911 q 579 904 570 911 q 591 868 596 891 q 579 845 589 856 l 154 354 q 113 334 136 334 m 161 510 q 133 523 142 510 q 127 555 123 536 l 229 939 q 250 968 235 957 q 283 979 264 979 q 310 965 301 978 q 314 936 318 953 l 212 551 q 192 521 207 532 q 161 510 178 510 z "},"":{"ha":658,"x_min":132,"x_max":809,"o":"m 256 334 q 234 342 243 334 q 222 378 218 355 q 235 401 225 389 l 660 892 q 700 911 677 911 q 722 904 712 911 q 733 868 739 891 q 722 845 731 856 l 296 354 q 256 334 278 334 m 652 264 q 624 277 633 264 q 618 307 615 290 l 651 430 q 501 437 534 430 q 471 460 477 441 q 470 481 467 469 q 505 532 475 502 q 635 679 602 629 q 680 705 652 705 q 696 701 688 705 q 714 674 713 692 l 721 697 q 740 727 726 715 q 772 738 755 738 q 801 724 791 738 q 806 695 809 712 l 750 481 l 749 475 q 745 463 748 469 l 703 304 q 684 275 699 286 q 652 264 669 264 m 673 515 l 707 645 q 597 517 656 572 q 673 515 635 515 m 261 563 q 220 566 250 563 q 146 608 191 570 q 136 642 132 622 q 151 669 139 656 q 188 686 168 686 q 212 677 201 686 q 279 648 244 648 q 310 654 296 648 q 336 676 334 665 q 281 711 341 696 l 268 714 q 241 751 235 723 q 288 812 247 779 q 333 854 309 831 q 351 875 349 871 q 332 878 346 878 q 296 866 310 878 q 260 850 280 850 q 235 861 245 850 q 227 894 222 873 q 242 921 229 908 q 353 964 289 964 q 375 962 364 964 q 437 907 429 953 q 437 880 441 895 q 366 779 429 836 q 422 677 435 741 q 391 619 415 646 q 329 576 367 592 q 261 563 297 563 z "},"":{"ha":424,"x_min":43,"x_max":667,"o":"m 220 17 q 94 67 144 17 q 50 159 60 102 q 54 253 43 201 q 70 311 57 268 q 144 439 83 355 q 258 567 197 508 q 392 708 349 658 q 490 871 459 785 q 513 899 496 888 q 541 908 526 908 q 572 892 562 908 q 575 866 578 881 l 574 861 q 460 669 536 758 q 347 549 407 607 q 215 404 263 466 q 139 252 154 321 q 136 189 132 216 q 163 133 142 154 q 239 103 192 103 q 376 171 309 103 q 414 188 393 188 q 437 179 427 188 q 447 144 452 165 q 433 119 444 132 q 220 17 332 17 m 578 972 q 548 987 557 972 q 544 1015 541 999 l 579 1134 q 600 1162 585 1152 q 630 1173 614 1173 q 660 1158 650 1173 q 664 1131 667 1146 l 629 1011 q 608 982 623 993 q 578 972 593 972 z "},"":{"ha":850,"x_min":1,"x_max":1075,"o":"m 1018 1316 q 1000 1320 1008 1316 l 853 1402 q 837 1440 831 1415 q 846 1459 839 1450 q 889 1483 863 1483 q 907 1479 899 1483 l 1055 1397 q 1069 1359 1075 1385 q 1061 1340 1067 1350 q 1018 1316 1044 1316 m 777 -39 q 764 -39 769 -39 q 671 49 696 -26 q 664 337 639 155 q 701 554 677 441 l 718 625 q 517 528 618 587 l 504 522 q 240 164 351 304 q 39 -31 87 -31 q 23 -28 34 -31 q 5 -9 12 -26 q 3 14 1 2 q 32 52 8 38 q 349 444 98 94 l 351 446 q 260 427 301 427 q 199 444 226 427 q 188 475 184 454 q 197 493 190 484 q 231 511 212 511 q 248 505 240 511 q 278 498 260 498 q 428 555 322 498 q 732 1000 593 790 q 914 1286 860 1194 q 943 1312 925 1304 q 962 1316 953 1316 q 996 1295 987 1316 q 998 1271 1000 1284 q 976 1206 994 1256 q 830 719 901 998 l 840 719 q 978 658 918 719 q 984 630 987 647 q 970 608 981 618 q 941 595 956 595 q 919 604 928 595 q 821 646 878 646 l 812 646 q 790 550 800 597 q 754 93 718 211 q 796 50 766 55 l 800 50 q 826 35 818 47 q 831 5 834 22 q 808 -29 826 -16 q 777 -39 793 -39 m 586 640 q 736 703 663 680 q 811 972 771 838 q 586 640 709 817 z "},"":{"ha":850,"x_min":1,"x_max":1141,"o":"m 905 1316 q 872 1340 879 1316 q 872 1359 870 1350 q 903 1397 878 1385 l 1086 1479 q 1105 1483 1096 1483 q 1139 1459 1131 1483 q 1139 1440 1141 1450 q 1107 1402 1134 1415 l 926 1320 q 905 1316 915 1316 m 777 -39 q 764 -39 769 -39 q 671 49 696 -26 q 664 337 639 155 q 701 554 677 441 l 718 625 q 517 528 618 587 l 504 522 q 240 164 351 304 q 39 -31 87 -31 q 23 -28 34 -31 q 5 -9 12 -26 q 3 14 1 2 q 32 52 8 38 q 349 444 98 94 l 351 446 q 260 427 301 427 q 199 444 226 427 q 188 475 184 454 q 197 493 190 484 q 231 511 212 511 q 248 505 240 511 q 278 498 260 498 q 428 555 322 498 q 732 1000 593 790 q 914 1286 860 1194 q 943 1312 925 1304 q 962 1316 953 1316 q 996 1295 987 1316 q 998 1271 1000 1284 q 976 1206 994 1256 q 830 719 901 998 l 840 719 q 978 658 918 719 q 984 630 987 647 q 970 608 981 618 q 941 595 956 595 q 919 604 928 595 q 821 646 878 646 l 812 646 q 790 550 800 597 q 754 93 718 211 q 796 50 766 55 l 800 50 q 826 35 818 47 q 831 5 834 22 q 808 -29 826 -16 q 777 -39 793 -39 m 586 640 q 736 703 663 680 q 811 972 771 838 q 586 640 709 817 z "},"":{"ha":850,"x_min":1,"x_max":1120,"o":"m 1065 1273 q 1031 1299 1038 1273 q 994 1417 1017 1369 l 983 1438 q 850 1295 943 1410 q 809 1274 833 1274 q 788 1280 798 1274 q 776 1318 770 1293 q 787 1339 778 1329 q 893 1460 850 1418 q 1003 1527 958 1527 q 1074 1468 1042 1527 q 1118 1333 1102 1411 q 1118 1316 1120 1324 q 1083 1276 1112 1289 q 1065 1273 1074 1273 m 777 -39 q 764 -39 769 -39 q 671 49 696 -26 q 664 337 639 155 q 701 554 677 441 l 718 625 q 517 528 618 587 l 504 522 q 240 164 351 304 q 39 -31 87 -31 q 23 -28 34 -31 q 5 -9 12 -26 q 3 14 1 2 q 32 52 8 38 q 349 444 98 94 l 351 446 q 260 427 301 427 q 199 444 226 427 q 188 475 184 454 q 197 493 190 484 q 231 511 212 511 q 248 505 240 511 q 278 498 260 498 q 428 555 322 498 q 732 1000 593 790 q 914 1286 860 1194 q 943 1312 925 1304 q 962 1316 953 1316 q 996 1295 987 1316 q 998 1271 1000 1284 q 976 1206 994 1256 q 830 719 901 998 l 840 719 q 978 658 918 719 q 984 630 987 647 q 970 608 981 618 q 941 595 956 595 q 919 604 928 595 q 821 646 878 646 l 812 646 q 790 550 800 597 q 754 93 718 211 q 796 50 766 55 l 800 50 q 826 35 818 47 q 831 5 834 22 q 808 -29 826 -16 q 777 -39 793 -39 m 586 640 q 736 703 663 680 q 811 972 771 838 q 586 640 709 817 z "},"":{"ha":991,"x_min":1,"x_max":1289,"o":"m 1124 1297 q 1002 1330 1077 1297 q 911 1354 947 1354 q 844 1329 878 1354 q 811 1316 828 1316 q 783 1329 794 1316 q 778 1358 774 1342 q 797 1390 781 1377 q 921 1442 865 1442 q 959 1439 926 1442 q 1048 1410 992 1436 q 1143 1385 1102 1385 q 1218 1415 1179 1385 q 1251 1428 1234 1428 q 1279 1416 1268 1428 q 1285 1386 1289 1403 q 1267 1356 1282 1369 q 1168 1302 1213 1312 q 1124 1297 1145 1297 m 777 -39 q 764 -39 769 -39 q 671 49 696 -26 q 664 337 639 155 q 701 554 677 441 l 718 625 q 517 528 618 587 l 504 522 q 240 164 351 304 q 39 -31 87 -31 q 23 -28 34 -31 q 5 -9 12 -26 q 3 14 1 2 q 32 52 8 38 q 349 444 98 94 l 351 446 q 260 427 301 427 q 199 444 226 427 q 188 475 184 454 q 197 493 190 484 q 231 511 212 511 q 248 505 240 511 q 278 498 260 498 q 428 555 322 498 q 732 1000 593 790 q 914 1286 860 1194 q 943 1312 925 1304 q 962 1316 953 1316 q 996 1295 987 1316 q 998 1271 1000 1284 q 976 1206 994 1256 q 830 719 901 998 l 840 719 q 978 658 918 719 q 984 630 987 647 q 970 608 981 618 q 941 595 956 595 q 919 604 928 595 q 821 646 878 646 l 812 646 q 790 550 800 597 q 754 93 718 211 q 796 50 766 55 l 800 50 q 826 35 818 47 q 831 5 834 22 q 808 -29 826 -16 q 777 -39 793 -39 m 586 640 q 736 703 663 680 q 811 972 771 838 q 586 640 709 817 z "},"":{"ha":850,"x_min":1,"x_max":1116,"o":"m 1053 1310 q 1019 1328 1031 1310 q 1015 1358 1012 1341 q 1042 1396 1021 1381 q 1074 1406 1057 1406 q 1109 1388 1099 1405 q 1113 1358 1116 1375 q 1086 1320 1108 1334 q 1053 1310 1071 1310 m 873 1305 q 838 1323 848 1305 q 834 1353 830 1337 q 860 1392 839 1377 q 892 1401 876 1401 q 927 1383 918 1400 q 931 1354 935 1370 q 905 1315 926 1330 q 873 1305 890 1305 m 777 -39 q 764 -39 769 -39 q 671 49 696 -26 q 664 337 639 155 q 701 554 677 441 l 718 625 q 517 528 618 587 l 504 522 q 240 164 351 304 q 39 -31 87 -31 q 23 -28 34 -31 q 5 -9 12 -26 q 3 14 1 2 q 32 52 8 38 q 349 444 98 94 l 351 446 q 260 427 301 427 q 199 444 226 427 q 188 475 184 454 q 197 493 190 484 q 231 511 212 511 q 248 505 240 511 q 278 498 260 498 q 428 555 322 498 q 732 1000 593 790 q 914 1286 860 1194 q 943 1312 925 1304 q 962 1316 953 1316 q 996 1295 987 1316 q 998 1271 1000 1284 q 976 1206 994 1256 q 830 719 901 998 l 840 719 q 978 658 918 719 q 984 630 987 647 q 970 608 981 618 q 941 595 956 595 q 919 604 928 595 q 821 646 878 646 l 812 646 q 790 550 800 597 q 754 93 718 211 q 796 50 766 55 l 800 50 q 826 35 818 47 q 831 5 834 22 q 808 -29 826 -16 q 777 -39 793 -39 m 586 640 q 736 703 663 680 q 811 972 771 838 q 586 640 709 817 z "},"":{"ha":850,"x_min":1,"x_max":1131,"o":"m 981 1336 q 925 1352 950 1336 q 897 1455 883 1389 q 932 1533 906 1497 q 1038 1590 979 1590 q 1099 1565 1073 1590 q 1130 1491 1126 1536 q 1128 1455 1131 1472 q 1097 1392 1120 1422 q 1013 1340 1061 1353 q 981 1336 996 1336 m 998 1421 q 1010 1423 1004 1421 q 1042 1454 1037 1432 q 1042 1472 1044 1463 q 1019 1504 1036 1504 q 991 1479 1004 1504 q 983 1453 985 1463 q 981 1437 981 1446 q 986 1425 981 1429 q 998 1421 991 1421 m 777 -39 q 764 -39 769 -39 q 671 49 696 -26 q 664 337 639 155 q 701 554 677 441 l 718 625 q 517 528 618 587 l 504 522 q 240 164 351 304 q 39 -31 87 -31 q 23 -28 34 -31 q 5 -9 12 -26 q 3 14 1 2 q 32 52 8 38 q 349 444 98 94 l 351 446 q 260 427 301 427 q 199 444 226 427 q 188 475 184 454 q 197 493 190 484 q 231 511 212 511 q 248 505 240 511 q 278 498 260 498 q 428 555 322 498 q 732 1000 593 790 q 914 1286 860 1194 q 943 1312 925 1304 q 962 1316 953 1316 q 996 1295 987 1316 q 998 1271 1000 1284 q 976 1206 994 1256 q 830 719 901 998 l 840 719 q 978 658 918 719 q 984 630 987 647 q 970 608 981 618 q 941 595 956 595 q 919 604 928 595 q 821 646 878 646 l 812 646 q 790 550 800 597 q 754 93 718 211 q 796 50 766 55 l 800 50 q 826 35 818 47 q 831 5 834 22 q 808 -29 826 -16 q 777 -39 793 -39 m 586 640 q 736 703 663 680 q 811 972 771 838 q 586 640 709 817 z "},"":{"ha":1527,"x_min":1,"x_max":1661,"o":"m 777 -39 q 764 -39 769 -39 q 671 49 696 -26 q 664 337 639 155 q 701 554 677 441 l 718 625 q 517 528 618 587 l 504 522 q 240 164 351 304 q 39 -31 87 -31 q 23 -28 34 -31 q 5 -9 12 -26 q 3 14 1 2 q 32 52 8 38 q 349 444 98 94 l 351 446 q 260 427 301 427 q 199 444 226 427 q 188 475 184 454 q 197 493 190 484 q 231 511 212 511 q 248 505 240 511 q 278 498 260 498 q 428 555 322 498 q 732 1000 593 790 q 914 1286 860 1194 q 943 1312 925 1304 q 962 1316 953 1316 q 996 1295 987 1316 q 998 1271 1000 1284 q 976 1206 994 1256 q 830 719 901 998 l 840 719 q 978 658 918 719 q 984 630 987 647 q 970 608 981 618 q 941 595 956 595 q 919 604 928 595 q 821 646 878 646 l 812 646 q 790 550 800 597 q 754 93 718 211 q 796 50 766 55 l 800 50 q 826 35 818 47 q 831 5 834 22 q 808 -29 826 -16 q 777 -39 793 -39 m 586 640 q 736 703 663 680 q 811 972 771 838 q 586 640 709 817 m 1090 -25 q 1015 -14 1057 -25 q 934 41 974 -2 q 874 184 886 98 q 883 360 863 267 q 956 551 904 459 q 1078 700 1005 637 q 1232 785 1145 757 q 1210 1076 1183 952 q 1225 1133 1212 1087 q 1286 1227 1238 1179 q 1449 1297 1358 1297 q 1573 1256 1516 1297 q 1659 1119 1636 1211 q 1659 1101 1661 1109 q 1623 1061 1653 1073 q 1605 1057 1613 1057 q 1570 1084 1575 1057 q 1515 1175 1554 1143 q 1428 1207 1476 1207 q 1348 1175 1384 1207 q 1296 1075 1311 1143 q 1296 933 1284 1018 q 1336 779 1306 863 q 1337 757 1339 768 q 1275 709 1329 718 q 1034 520 1121 673 q 972 359 989 441 q 963 223 957 288 q 1004 115 970 158 q 1109 64 1048 64 q 1137 66 1122 64 q 1302 138 1220 81 q 1515 323 1402 206 q 1554 341 1533 341 q 1579 332 1569 341 q 1590 298 1594 319 q 1575 270 1587 283 q 1342 68 1453 144 q 1133 -22 1240 -2 q 1090 -25 1112 -25 z "},"":{"ha":1326,"x_min":62,"x_max":1460,"o":"m 889 -25 q 814 -14 856 -25 q 733 41 773 -2 q 673 184 685 98 q 682 360 663 267 q 755 551 703 459 q 878 700 804 637 q 1031 785 945 757 q 1009 1076 983 952 q 1024 1133 1011 1087 q 1086 1227 1037 1179 q 1248 1297 1157 1297 q 1373 1256 1316 1297 q 1458 1119 1436 1211 q 1458 1101 1460 1109 q 1422 1061 1452 1073 q 1404 1057 1413 1057 q 1369 1084 1375 1057 q 1314 1175 1354 1143 q 1227 1207 1275 1207 q 1147 1175 1183 1207 q 1095 1075 1110 1143 q 1095 933 1084 1018 q 1135 779 1105 863 q 1137 757 1139 768 q 1074 709 1128 718 q 833 520 920 673 q 771 359 789 441 q 763 223 756 288 q 803 115 769 158 q 908 64 848 64 q 936 66 922 64 q 1101 138 1019 81 q 1314 323 1201 206 q 1353 341 1332 341 q 1379 332 1368 341 q 1390 298 1394 319 q 1375 270 1386 283 q 1141 68 1253 144 q 932 -22 1039 -2 q 889 -25 911 -25 m 245 -30 q 129 24 168 -28 q 71 286 62 113 q 87 412 75 352 q 197 728 117 549 q 223 756 205 747 q 248 762 235 762 q 267 758 260 762 q 286 891 273 829 q 349 1068 308 991 q 462 1218 398 1163 q 614 1284 539 1284 q 778 1133 732 1284 q 767 737 819 983 l 764 720 q 585 243 696 442 q 425 48 517 125 q 245 -30 333 -28 m 267 59 q 395 124 330 60 q 507 273 460 189 q 682 754 618 471 q 692 1092 726 963 q 595 1192 665 1192 q 584 1192 590 1192 q 435 1057 505 1180 q 376 892 395 985 q 425 421 320 630 q 428 396 431 409 q 423 381 427 392 q 401 359 419 370 q 374 351 387 351 q 360 352 370 351 q 342 370 350 354 q 266 676 271 509 q 176 409 200 524 q 168 182 151 291 q 267 59 186 66 z "},"":{"ha":761,"x_min":20,"x_max":866,"o":"m 215 -17 q 89 87 124 3 q 81 379 42 197 q 263 843 127 599 q 414 1071 334 968 q 734 1298 591 1298 q 857 1232 808 1298 q 862 1201 866 1218 q 859 1191 862 1200 q 841 1169 857 1181 q 808 1157 825 1157 q 798 1158 807 1157 q 778 1172 788 1158 q 716 1208 752 1208 q 618 1167 672 1208 q 477 1022 549 1115 q 342 814 406 929 q 168 371 214 585 q 174 140 138 227 q 305 65 205 65 q 494 135 377 65 q 753 335 615 207 q 791 351 771 351 q 817 340 807 351 q 826 306 830 326 q 809 277 823 290 q 529 62 660 140 q 300 -23 399 -16 l 265 -165 q 245 -195 260 -183 q 212 -207 231 -207 q 185 -193 195 -205 q 181 -161 176 -181 q 111 -232 123 -178 q 110 -259 109 -246 q 115 -280 112 -273 q 121 -288 117 -288 q 149 -267 125 -287 q 214 -231 189 -231 q 241 -255 235 -231 q 241 -274 243 -264 q 233 -293 239 -281 q 208 -314 227 -305 q 179 -334 195 -320 q 100 -374 139 -374 q 46 -347 68 -374 q 23 -288 27 -323 q 26 -231 20 -259 q 57 -159 33 -194 q 202 -72 106 -88 l 215 -17 z "},"":{"ha":720,"x_min":57,"x_max":854,"o":"m 737 1316 q 719 1320 728 1316 l 572 1402 q 556 1440 551 1415 q 565 1459 558 1450 q 608 1483 583 1483 q 627 1479 618 1483 l 774 1397 q 789 1359 794 1385 q 781 1340 787 1350 q 737 1316 764 1316 m 283 -25 q 209 -14 250 -25 q 127 41 168 -2 q 68 184 79 98 q 77 360 57 267 q 149 551 98 459 q 272 700 199 637 q 426 785 339 757 q 404 1076 377 952 q 418 1133 406 1087 q 480 1227 431 1179 q 642 1297 551 1297 q 767 1256 710 1297 q 852 1119 830 1211 q 852 1101 854 1109 q 817 1061 846 1073 q 798 1057 807 1057 q 764 1084 769 1057 q 709 1175 748 1143 q 621 1207 669 1207 q 541 1175 578 1207 q 490 1075 505 1143 q 490 933 478 1018 q 530 779 500 863 q 531 757 533 768 q 469 709 522 718 q 228 520 315 673 q 165 359 183 441 q 157 223 151 288 q 197 115 163 158 q 302 64 242 64 q 330 66 316 64 q 496 138 414 81 q 709 323 595 206 q 747 341 726 341 q 773 332 762 341 q 784 298 788 319 q 769 270 781 283 q 536 68 647 144 q 327 -22 433 -2 q 283 -25 305 -25 z "},"":{"ha":720,"x_min":57,"x_max":854,"o":"m 566 1316 q 533 1340 540 1316 q 533 1359 531 1350 q 564 1397 538 1385 l 747 1479 q 766 1483 757 1483 q 800 1459 792 1483 q 800 1440 802 1450 q 768 1402 795 1415 l 587 1320 q 566 1316 576 1316 m 283 -25 q 209 -14 250 -25 q 127 41 168 -2 q 68 184 79 98 q 77 360 57 267 q 149 551 98 459 q 272 700 199 637 q 426 785 339 757 q 404 1076 377 952 q 418 1133 406 1087 q 480 1227 431 1179 q 642 1297 551 1297 q 767 1256 710 1297 q 852 1119 830 1211 q 852 1101 854 1109 q 817 1061 846 1073 q 798 1057 807 1057 q 764 1084 769 1057 q 709 1175 748 1143 q 621 1207 669 1207 q 541 1175 578 1207 q 490 1075 505 1143 q 490 933 478 1018 q 530 779 500 863 q 531 757 533 768 q 469 709 522 718 q 228 520 315 673 q 165 359 183 441 q 157 223 151 288 q 197 115 163 158 q 302 64 242 64 q 330 66 316 64 q 496 138 414 81 q 709 323 595 206 q 747 341 726 341 q 773 332 762 341 q 784 298 788 319 q 769 270 781 283 q 536 68 647 144 q 327 -22 433 -2 q 283 -25 305 -25 z "},"":{"ha":720,"x_min":57,"x_max":854,"o":"m 800 1294 q 766 1320 772 1294 q 729 1438 752 1390 l 718 1459 q 585 1316 678 1431 q 544 1295 568 1295 q 523 1301 532 1295 q 510 1339 505 1314 q 521 1360 513 1350 q 627 1481 585 1439 q 737 1548 692 1548 q 808 1489 777 1548 q 852 1354 837 1432 q 852 1337 854 1345 q 818 1297 846 1310 q 800 1294 808 1294 m 283 -25 q 209 -14 250 -25 q 127 41 168 -2 q 68 184 79 98 q 77 360 57 267 q 149 551 98 459 q 272 700 199 637 q 426 785 339 757 q 404 1076 377 952 q 418 1133 406 1087 q 480 1227 431 1179 q 642 1297 551 1297 q 767 1256 710 1297 q 852 1119 830 1211 q 852 1101 854 1109 q 817 1061 846 1073 q 798 1057 807 1057 q 764 1084 769 1057 q 709 1175 748 1143 q 621 1207 669 1207 q 541 1175 578 1207 q 490 1075 505 1143 q 490 933 478 1018 q 530 779 500 863 q 531 757 533 768 q 469 709 522 718 q 228 520 315 673 q 165 359 183 441 q 157 223 151 288 q 197 115 163 158 q 302 64 242 64 q 330 66 316 64 q 496 138 414 81 q 709 323 595 206 q 747 341 726 341 q 773 332 762 341 q 784 298 788 319 q 769 270 781 283 q 536 68 647 144 q 327 -22 433 -2 q 283 -25 305 -25 z "},"":{"ha":720,"x_min":57,"x_max":854,"o":"m 725 1310 q 691 1328 703 1310 q 687 1358 684 1341 q 713 1396 692 1381 q 746 1406 729 1406 q 781 1388 771 1405 q 785 1358 788 1375 q 758 1320 780 1334 q 725 1310 743 1310 m 545 1305 q 509 1323 520 1305 q 506 1353 502 1337 q 532 1392 511 1377 q 564 1401 547 1401 q 599 1383 589 1400 q 603 1354 606 1370 q 576 1315 597 1330 q 545 1305 562 1305 m 283 -25 q 209 -14 250 -25 q 127 41 168 -2 q 68 184 79 98 q 77 360 57 267 q 149 551 98 459 q 272 700 199 637 q 426 785 339 757 q 404 1076 377 952 q 418 1133 406 1087 q 480 1227 431 1179 q 642 1297 551 1297 q 767 1256 710 1297 q 852 1119 830 1211 q 852 1101 854 1109 q 817 1061 846 1073 q 798 1057 807 1057 q 764 1084 769 1057 q 709 1175 748 1143 q 621 1207 669 1207 q 541 1175 578 1207 q 490 1075 505 1143 q 490 933 478 1018 q 530 779 500 863 q 531 757 533 768 q 469 709 522 718 q 228 520 315 673 q 165 359 183 441 q 157 223 151 288 q 197 115 163 158 q 302 64 242 64 q 330 66 316 64 q 496 138 414 81 q 709 323 595 206 q 747 341 726 341 q 773 332 762 341 q 784 298 788 319 q 769 270 781 283 q 536 68 647 144 q 327 -22 433 -2 q 283 -25 305 -25 z "},"":{"ha":294,"x_min":19,"x_max":587,"o":"m 524 1310 q 490 1328 501 1310 q 486 1358 482 1341 q 512 1396 491 1381 q 545 1406 528 1406 q 579 1388 570 1405 q 583 1358 587 1375 q 557 1320 578 1334 q 524 1310 541 1310 m 343 1305 q 308 1323 319 1305 q 304 1353 300 1337 q 330 1392 309 1377 q 362 1401 346 1401 q 397 1383 388 1400 q 401 1354 405 1370 q 375 1315 396 1330 q 343 1305 360 1305 m 68 -29 q 57 -29 66 -29 q 38 -15 48 -28 q 26 93 19 15 q 48 227 33 153 q 97 419 66 313 q 253 899 168 662 q 382 1253 319 1084 q 406 1282 389 1272 q 434 1291 419 1291 q 466 1273 457 1291 q 469 1247 472 1261 l 340 892 q 180 410 252 649 q 125 205 144 291 q 117 45 98 74 q 122 16 125 32 q 120 5 122 14 q 100 -18 117 -4 q 68 -29 85 -29 z "},"":{"ha":294,"x_min":19,"x_max":587,"o":"m 524 1310 q 490 1328 501 1310 q 486 1358 482 1341 q 512 1396 491 1381 q 545 1406 528 1406 q 579 1388 570 1405 q 583 1358 587 1375 q 557 1320 578 1334 q 524 1310 541 1310 m 343 1305 q 308 1323 319 1305 q 304 1353 300 1337 q 330 1392 309 1377 q 362 1401 346 1401 q 397 1383 388 1400 q 401 1354 405 1370 q 375 1315 396 1330 q 343 1305 360 1305 m 68 -29 q 57 -29 66 -29 q 38 -15 48 -28 q 26 93 19 15 q 48 227 33 153 q 97 419 66 313 q 253 899 168 662 q 382 1253 319 1084 q 406 1282 389 1272 q 434 1291 419 1291 q 466 1273 457 1291 q 469 1247 472 1261 l 340 892 q 180 410 252 649 q 125 205 144 291 q 117 45 98 74 q 122 16 125 32 q 120 5 122 14 q 100 -18 117 -4 q 68 -29 85 -29 z "},"":{"ha":300,"x_min":19,"x_max":592,"o":"m 529 1310 q 495 1328 507 1310 q 491 1358 488 1341 q 517 1396 496 1381 q 550 1406 533 1406 q 585 1388 575 1405 q 589 1358 592 1375 q 562 1320 584 1334 q 529 1310 547 1310 m 349 1305 q 313 1323 324 1305 q 310 1353 306 1337 q 336 1392 315 1377 q 368 1401 351 1401 q 403 1383 393 1400 q 407 1354 410 1370 q 380 1315 401 1330 q 349 1305 366 1305 m 68 -29 q 57 -29 66 -29 q 38 -15 48 -28 q 26 93 19 15 q 48 227 33 153 q 97 419 66 313 q 253 899 168 662 q 382 1253 319 1084 q 406 1282 389 1272 q 434 1291 419 1291 q 466 1273 457 1291 q 469 1247 472 1261 l 340 892 q 180 410 252 649 q 125 205 144 291 q 117 45 98 74 q 122 16 125 32 q 120 5 122 14 q 100 -18 117 -4 q 68 -29 85 -29 z "},"":{"ha":305,"x_min":19,"x_max":597,"o":"m 534 1310 q 500 1328 512 1310 q 496 1358 493 1341 q 523 1396 502 1381 q 555 1406 538 1406 q 590 1388 581 1405 q 594 1358 597 1375 q 568 1320 589 1334 q 534 1310 552 1310 m 354 1305 q 319 1323 330 1305 q 315 1353 311 1337 q 341 1392 320 1377 q 373 1401 357 1401 q 408 1383 399 1400 q 412 1354 416 1370 q 386 1315 407 1330 q 354 1305 371 1305 m 68 -29 q 57 -29 66 -29 q 38 -15 48 -28 q 26 93 19 15 q 48 227 33 153 q 97 419 66 313 q 253 899 168 662 q 382 1253 319 1084 q 406 1282 389 1272 q 434 1291 419 1291 q 466 1273 457 1291 q 469 1247 472 1261 l 340 892 q 180 410 252 649 q 125 205 144 291 q 117 45 98 74 q 122 16 125 32 q 120 5 122 14 q 100 -18 117 -4 q 68 -29 85 -29 z "},"":{"ha":857,"x_min":86,"x_max":1061,"o":"m 464 -27 q 393 -11 429 -27 q 374 28 368 1 q 380 45 375 37 q 428 72 398 72 q 444 68 436 72 q 479 60 461 60 q 587 111 530 60 q 692 237 646 166 q 904 680 823 435 q 943 824 928 754 q 960 920 949 855 q 960 1061 970 985 q 804 1215 937 1215 q 644 1174 728 1215 q 494 1074 563 1135 q 372 907 401 992 q 352 879 367 889 q 320 868 336 868 q 289 883 299 868 q 284 911 281 895 l 286 915 q 449 1139 326 1036 q 635 1256 535 1212 q 829 1301 735 1301 q 975 1248 915 1301 q 1050 1076 1035 1195 q 1029 812 1061 964 q 991 671 1015 743 q 760 192 904 399 q 464 -27 611 -21 m 374 376 q 332 207 347 279 q 317 128 327 182 q 321 50 307 74 q 326 22 330 37 q 323 12 326 21 q 304 -9 321 2 q 273 -21 288 -21 q 262 -20 271 -21 q 242 -6 252 -20 q 232 134 218 32 q 250 232 238 179 q 286 376 262 294 l 123 378 q 96 391 105 379 q 90 421 86 404 q 109 452 94 439 q 142 464 123 464 l 310 462 q 469 943 368 658 q 490 971 475 962 q 520 981 505 981 q 553 964 543 981 q 556 939 559 953 l 554 932 q 399 461 457 656 l 547 459 q 575 446 566 458 q 581 416 584 434 q 562 386 576 398 q 528 374 547 374 l 374 376 z "},"":{"ha":768,"x_min":8,"x_max":1061,"o":"m 71 -25 q 60 -25 69 -25 q 41 -11 50 -24 q 50 235 8 40 q 119 498 77 361 q 256 903 193 735 l 384 1257 q 408 1286 391 1276 q 437 1295 422 1295 q 469 1277 459 1295 q 471 1250 475 1265 l 470 1244 q 358 939 427 1131 q 435 1060 396 1002 q 579 1221 505 1162 q 732 1289 665 1289 q 817 890 901 1289 q 755 655 794 785 q 686 436 719 538 q 587 104 606 194 q 578 34 577 60 q 576 22 578 28 q 564 -3 574 10 q 522 -22 548 -22 q 499 -14 510 -22 q 486 12 488 -7 q 497 104 486 47 q 599 446 518 201 q 668 663 635 558 q 727 889 706 789 q 753 1067 749 992 q 704 1198 760 1198 q 605 1139 665 1198 q 509 1023 553 1088 q 396 841 452 938 q 174 385 237 573 q 123 203 141 283 q 110 117 115 162 q 119 50 105 72 q 124 20 127 36 q 122 9 124 18 q 103 -14 119 0 q 71 -25 87 -25 m 897 1278 q 774 1311 850 1278 q 684 1335 720 1335 q 616 1310 651 1335 q 584 1297 601 1297 q 556 1310 567 1297 q 551 1339 547 1323 q 570 1371 554 1358 q 694 1423 637 1423 q 732 1420 699 1423 q 821 1391 765 1417 q 916 1366 875 1366 q 991 1396 951 1366 q 1024 1409 1006 1409 q 1052 1397 1041 1409 q 1059 1367 1061 1384 q 1040 1337 1055 1350 q 941 1283 986 1293 q 897 1278 918 1278 z "},"":{"ha":610,"x_min":62,"x_max":819,"o":"m 680 1316 q 662 1320 671 1316 l 515 1402 q 499 1440 494 1415 q 508 1459 501 1450 q 551 1483 526 1483 q 570 1479 561 1483 l 717 1397 q 732 1359 737 1385 q 724 1340 730 1350 q 680 1316 707 1316 m 245 -30 q 129 24 168 -28 q 71 286 62 113 q 87 412 75 352 q 197 728 117 549 q 223 756 205 747 q 248 762 235 762 q 267 758 260 762 q 286 891 273 829 q 349 1068 308 991 q 462 1218 398 1163 q 614 1284 539 1284 q 778 1133 732 1284 q 767 737 819 983 l 764 720 q 585 243 696 442 q 425 48 517 125 q 245 -30 333 -28 m 267 59 q 395 124 330 60 q 507 273 460 189 q 682 754 618 471 q 692 1092 726 963 q 595 1192 665 1192 q 584 1192 590 1192 q 435 1057 505 1180 q 376 892 395 985 q 425 421 320 630 q 428 396 431 409 q 423 381 427 392 q 401 359 419 370 q 374 351 387 351 q 360 352 370 351 q 342 370 350 354 q 266 676 271 509 q 176 409 200 524 q 168 182 151 291 q 267 59 186 66 z "},"":{"ha":610,"x_min":62,"x_max":819,"o":"m 576 1316 q 543 1340 550 1316 q 543 1359 541 1350 q 574 1397 549 1385 l 757 1479 q 777 1483 767 1483 q 810 1459 802 1483 q 810 1440 812 1450 q 779 1402 805 1415 l 597 1320 q 576 1316 586 1316 m 245 -30 q 129 24 168 -28 q 71 286 62 113 q 87 412 75 352 q 197 728 117 549 q 223 756 205 747 q 248 762 235 762 q 267 758 260 762 q 286 891 273 829 q 349 1068 308 991 q 462 1218 398 1163 q 614 1284 539 1284 q 778 1133 732 1284 q 767 737 819 983 l 764 720 q 585 243 696 442 q 425 48 517 125 q 245 -30 333 -28 m 267 59 q 395 124 330 60 q 507 273 460 189 q 682 754 618 471 q 692 1092 726 963 q 595 1192 665 1192 q 584 1192 590 1192 q 435 1057 505 1180 q 376 892 395 985 q 425 421 320 630 q 428 396 431 409 q 423 381 427 392 q 401 359 419 370 q 374 351 387 351 q 360 352 370 351 q 342 370 350 354 q 266 676 271 509 q 176 409 200 524 q 168 182 151 291 q 267 59 186 66 z "},"":{"ha":610,"x_min":62,"x_max":819,"o":"m 739 1273 q 705 1299 711 1273 q 667 1417 690 1369 l 656 1438 q 524 1295 616 1410 q 482 1274 507 1274 q 461 1280 471 1274 q 449 1318 444 1293 q 460 1339 451 1329 q 566 1460 524 1418 q 676 1527 631 1527 q 747 1468 715 1527 q 791 1333 775 1411 q 791 1316 793 1324 q 756 1276 785 1289 q 739 1273 747 1273 m 245 -30 q 129 24 168 -28 q 71 286 62 113 q 87 412 75 352 q 197 728 117 549 q 223 756 205 747 q 248 762 235 762 q 267 758 260 762 q 286 891 273 829 q 349 1068 308 991 q 462 1218 398 1163 q 614 1284 539 1284 q 778 1133 732 1284 q 767 737 819 983 l 764 720 q 585 243 696 442 q 425 48 517 125 q 245 -30 333 -28 m 267 59 q 395 124 330 60 q 507 273 460 189 q 682 754 618 471 q 692 1092 726 963 q 595 1192 665 1192 q 584 1192 590 1192 q 435 1057 505 1180 q 376 892 395 985 q 425 421 320 630 q 428 396 431 409 q 423 381 427 392 q 401 359 419 370 q 374 351 387 351 q 360 352 370 351 q 342 370 350 354 q 266 676 271 509 q 176 409 200 524 q 168 182 151 291 q 267 59 186 66 z "},"":{"ha":663,"x_min":62,"x_max":961,"o":"m 796 1297 q 674 1330 749 1297 q 583 1354 620 1354 q 516 1329 550 1354 q 484 1316 500 1316 q 456 1329 467 1316 q 450 1358 447 1342 q 469 1390 454 1377 q 593 1442 537 1442 q 632 1439 599 1442 q 721 1410 665 1436 q 815 1385 774 1385 q 890 1415 851 1385 q 924 1428 906 1428 q 951 1416 941 1428 q 958 1386 961 1403 q 939 1356 954 1369 q 840 1302 886 1312 q 796 1297 818 1297 m 245 -30 q 129 24 168 -28 q 71 286 62 113 q 87 412 75 352 q 197 728 117 549 q 223 756 205 747 q 248 762 235 762 q 267 758 260 762 q 286 891 273 829 q 349 1068 308 991 q 462 1218 398 1163 q 614 1284 539 1284 q 778 1133 732 1284 q 767 737 819 983 l 764 720 q 585 243 696 442 q 425 48 517 125 q 245 -30 333 -28 m 267 59 q 395 124 330 60 q 507 273 460 189 q 682 754 618 471 q 692 1092 726 963 q 595 1192 665 1192 q 584 1192 590 1192 q 435 1057 505 1180 q 376 892 395 985 q 425 421 320 630 q 428 396 431 409 q 423 381 427 392 q 401 359 419 370 q 374 351 387 351 q 360 352 370 351 q 342 370 350 354 q 266 676 271 509 q 176 409 200 524 q 168 182 151 291 q 267 59 186 66 z "},"":{"ha":610,"x_min":62,"x_max":819,"o":"m 722 1310 q 688 1328 700 1310 q 684 1358 681 1341 q 711 1396 690 1381 q 743 1406 726 1406 q 778 1388 768 1405 q 782 1358 785 1375 q 755 1320 777 1334 q 722 1310 740 1310 m 542 1305 q 507 1323 517 1305 q 503 1353 499 1337 q 529 1392 508 1377 q 561 1401 545 1401 q 596 1383 587 1400 q 600 1354 604 1370 q 574 1315 595 1330 q 542 1305 559 1305 m 245 -30 q 129 24 168 -28 q 71 286 62 113 q 87 412 75 352 q 197 728 117 549 q 223 756 205 747 q 248 762 235 762 q 267 758 260 762 q 286 891 273 829 q 349 1068 308 991 q 462 1218 398 1163 q 614 1284 539 1284 q 778 1133 732 1284 q 767 737 819 983 l 764 720 q 585 243 696 442 q 425 48 517 125 q 245 -30 333 -28 m 267 59 q 395 124 330 60 q 507 273 460 189 q 682 754 618 471 q 692 1092 726 963 q 595 1192 665 1192 q 584 1192 590 1192 q 435 1057 505 1180 q 376 892 395 985 q 425 421 320 630 q 428 396 431 409 q 423 381 427 392 q 401 359 419 370 q 374 351 387 351 q 360 352 370 351 q 342 370 350 354 q 266 676 271 509 q 176 409 200 524 q 168 182 151 291 q 267 59 186 66 z "},"":{"ha":633,"x_min":-10,"x_max":830,"o":"m 479 538 q 631 -13 632 -7 q 587 -56 623 -49 l 578 -56 q 545 -33 553 -56 q 411 442 468 240 q 75 -33 268 240 q 31 -56 56 -56 l 23 -56 q -3 -13 -10 -49 q 384 538 -1 -7 q 248 1023 248 1021 q 249 1031 248 1027 q 292 1074 256 1066 l 300 1074 q 334 1050 326 1074 q 452 635 400 817 q 745 1050 581 817 q 791 1074 764 1074 l 797 1074 q 823 1031 830 1066 q 821 1023 822 1027 q 479 538 819 1021 z "},"":{"ha":884,"x_min":24,"x_max":1099,"o":"m 427 495 q 399 676 402 581 q 309 409 334 524 l 306 390 q 427 495 360 438 m 916 819 q 901 737 909 779 l 897 720 q 718 243 830 442 q 559 48 651 125 q 379 -30 467 -28 q 263 24 302 -28 q 205 201 213 90 q 97 107 153 155 q 67 94 81 94 l 64 94 q 43 98 52 94 q 29 136 24 111 q 38 157 31 148 q 206 304 39 158 q 221 412 210 360 q 330 728 250 549 q 357 756 339 747 q 381 762 369 762 q 401 758 393 762 q 420 891 407 829 q 482 1068 441 991 q 596 1218 532 1163 q 747 1284 673 1284 q 911 1133 865 1284 q 928 931 935 1048 q 1025 1016 976 972 q 1056 1029 1041 1029 q 1079 1025 1070 1029 q 1095 991 1099 1013 q 1085 967 1092 977 q 916 819 1084 966 m 294 279 q 301 182 294 230 q 401 59 320 66 q 529 124 463 60 q 640 273 594 189 q 809 726 745 460 q 531 484 694 626 q 559 421 543 452 q 562 396 564 409 q 557 381 561 392 q 534 359 553 370 q 507 351 521 351 q 493 352 503 351 q 475 370 484 354 q 454 417 463 393 q 294 279 378 352 m 507 565 q 832 848 648 688 q 826 1092 852 994 q 730 1192 799 1192 q 718 1192 724 1192 q 568 1057 639 1180 q 509 892 529 985 q 507 565 472 717 z "},"":{"ha":627,"x_min":-5,"x_max":887,"o":"m 618 1316 q 600 1320 608 1316 l 453 1402 q 437 1440 431 1415 q 446 1459 439 1450 q 489 1483 463 1483 q 507 1479 498 1483 l 654 1397 q 669 1359 675 1385 q 661 1340 667 1350 q 618 1316 644 1316 m 458 -33 q 427 -14 437 -33 q 425 13 421 -2 q 456 102 425 18 q 537 323 497 212 q 460 202 499 260 q 317 42 391 101 q 162 -26 231 -26 q 79 373 -5 -26 q 210 826 115 538 q 309 1158 290 1069 q 318 1229 319 1202 q 319 1240 318 1235 q 332 1265 322 1252 q 373 1284 347 1284 q 397 1277 385 1284 q 397 1156 420 1262 q 297 817 377 1060 q 228 600 260 704 q 168 373 190 473 q 142 195 146 271 q 192 64 136 64 q 291 123 232 64 q 387 240 343 174 q 500 421 444 324 q 722 878 659 689 q 772 1059 755 979 q 786 1145 781 1101 q 777 1213 791 1190 q 772 1243 768 1226 q 774 1254 772 1244 q 793 1275 777 1263 q 825 1288 809 1288 q 836 1288 826 1288 q 855 1273 845 1287 q 846 1027 887 1222 q 640 359 792 774 q 512 5 604 260 q 487 -24 505 -14 q 458 -33 473 -33 z "},"":{"ha":627,"x_min":-5,"x_max":887,"o":"m 584 1316 q 551 1340 557 1316 q 551 1359 549 1350 q 582 1397 556 1385 l 764 1479 q 784 1483 774 1483 q 817 1459 810 1483 q 818 1440 820 1450 q 786 1402 812 1415 l 604 1320 q 584 1316 593 1316 m 458 -33 q 427 -14 437 -33 q 425 13 421 -2 q 456 102 425 18 q 537 323 497 212 q 460 202 499 260 q 317 42 391 101 q 162 -26 231 -26 q 79 373 -5 -26 q 210 826 115 538 q 309 1158 290 1069 q 318 1229 319 1202 q 319 1240 318 1235 q 332 1265 322 1252 q 373 1284 347 1284 q 397 1277 385 1284 q 397 1156 420 1262 q 297 817 377 1060 q 228 600 260 704 q 168 373 190 473 q 142 195 146 271 q 192 64 136 64 q 291 123 232 64 q 387 240 343 174 q 500 421 444 324 q 722 878 659 689 q 772 1059 755 979 q 786 1145 781 1101 q 777 1213 791 1190 q 772 1243 768 1226 q 774 1254 772 1244 q 793 1275 777 1263 q 825 1288 809 1288 q 836 1288 826 1288 q 855 1273 845 1287 q 846 1027 887 1222 q 640 359 792 774 q 512 5 604 260 q 487 -24 505 -14 q 458 -33 473 -33 z "},"":{"ha":627,"x_min":-5,"x_max":887,"o":"m 730 1273 q 696 1299 703 1273 q 659 1417 682 1369 l 648 1438 q 515 1295 608 1410 q 474 1274 498 1274 q 453 1280 463 1274 q 441 1318 435 1293 q 452 1339 443 1329 q 558 1460 515 1418 q 668 1527 623 1527 q 739 1468 707 1527 q 783 1333 767 1411 q 783 1316 785 1324 q 748 1276 777 1289 q 730 1273 739 1273 m 458 -33 q 427 -14 437 -33 q 425 13 421 -2 q 456 102 425 18 q 537 323 497 212 q 460 202 499 260 q 317 42 391 101 q 162 -26 231 -26 q 79 373 -5 -26 q 210 826 115 538 q 309 1158 290 1069 q 318 1229 319 1202 q 319 1240 318 1235 q 332 1265 322 1252 q 373 1284 347 1284 q 397 1277 385 1284 q 397 1156 420 1262 q 297 817 377 1060 q 228 600 260 704 q 168 373 190 473 q 142 195 146 271 q 192 64 136 64 q 291 123 232 64 q 387 240 343 174 q 500 421 444 324 q 722 878 659 689 q 772 1059 755 979 q 786 1145 781 1101 q 777 1213 791 1190 q 772 1243 768 1226 q 774 1254 772 1244 q 793 1275 777 1263 q 825 1288 809 1288 q 836 1288 826 1288 q 855 1273 845 1287 q 846 1027 887 1222 q 640 359 792 774 q 512 5 604 260 q 487 -24 505 -14 q 458 -33 473 -33 z "},"":{"ha":627,"x_min":-5,"x_max":887,"o":"m 692 1310 q 659 1328 670 1310 q 654 1358 651 1341 q 681 1396 660 1381 q 713 1406 696 1406 q 748 1388 739 1405 q 752 1358 755 1375 q 726 1320 747 1334 q 692 1310 710 1310 m 512 1305 q 477 1323 488 1305 q 473 1353 469 1337 q 499 1392 478 1377 q 531 1401 515 1401 q 566 1383 557 1400 q 570 1354 574 1370 q 544 1315 565 1330 q 512 1305 529 1305 m 458 -33 q 427 -14 437 -33 q 425 13 421 -2 q 456 102 425 18 q 537 323 497 212 q 460 202 499 260 q 317 42 391 101 q 162 -26 231 -26 q 79 373 -5 -26 q 210 826 115 538 q 309 1158 290 1069 q 318 1229 319 1202 q 319 1240 318 1235 q 332 1265 322 1252 q 373 1284 347 1284 q 397 1277 385 1284 q 397 1156 420 1262 q 297 817 377 1060 q 228 600 260 704 q 168 373 190 473 q 142 195 146 271 q 192 64 136 64 q 291 123 232 64 q 387 240 343 174 q 500 421 444 324 q 722 878 659 689 q 772 1059 755 979 q 786 1145 781 1101 q 777 1213 791 1190 q 772 1243 768 1226 q 774 1254 772 1244 q 793 1275 777 1263 q 825 1288 809 1288 q 836 1288 826 1288 q 855 1273 845 1287 q 846 1027 887 1222 q 640 359 792 774 q 512 5 604 260 q 487 -24 505 -14 q 458 -33 473 -33 z "},"":{"ha":602,"x_min":56,"x_max":865,"o":"m 612 1316 q 579 1340 586 1316 q 579 1359 577 1350 q 610 1397 585 1385 l 793 1479 q 812 1483 803 1483 q 846 1459 838 1483 q 846 1440 848 1450 q 814 1402 841 1415 l 633 1320 q 612 1316 622 1316 m 246 -75 q 133 -43 186 -75 q 77 13 96 -21 q 66 95 56 50 q 112 164 75 134 q 143 176 127 176 q 153 175 144 176 q 172 162 162 175 q 178 133 181 149 q 175 123 177 132 q 157 102 173 114 q 151 93 153 98 q 186 35 149 58 q 267 11 224 11 q 296 15 282 11 q 660 840 461 73 l 712 1026 q 606 871 659 951 q 422 616 512 728 q 217 469 304 471 q 140 659 101 474 q 193 835 157 736 q 312 1115 233 942 q 304 1148 300 1127 q 316 1171 307 1160 q 370 1235 351 1212 q 413 1259 388 1259 q 431 1254 422 1259 q 446 1215 452 1241 q 415 1144 444 1208 q 225 659 257 807 q 236 555 203 557 q 292 585 259 555 q 536 907 367 653 q 652 1076 594 994 q 791 1245 723 1176 q 828 1261 808 1261 q 852 1251 842 1261 q 861 1218 865 1237 l 859 1208 q 759 886 819 1109 l 743 829 q 587 332 666 536 q 305 -67 454 -15 q 246 -75 275 -75 z "},"":{"ha":602,"x_min":56,"x_max":865,"o":"m 730 1310 q 696 1328 707 1310 q 692 1358 688 1341 q 718 1396 697 1381 q 751 1406 734 1406 q 785 1388 776 1405 q 789 1358 793 1375 q 763 1320 785 1334 q 730 1310 747 1310 m 549 1305 q 514 1323 525 1305 q 511 1353 507 1337 q 536 1392 515 1377 q 568 1401 552 1401 q 604 1383 594 1400 q 608 1354 611 1370 q 581 1315 602 1330 q 549 1305 566 1305 m 246 -75 q 133 -43 186 -75 q 77 13 96 -21 q 66 95 56 50 q 112 164 75 134 q 143 176 127 176 q 153 175 144 176 q 172 162 162 175 q 178 133 181 149 q 175 123 177 132 q 157 102 173 114 q 151 93 153 98 q 186 35 149 58 q 267 11 224 11 q 296 15 282 11 q 660 840 461 73 l 712 1026 q 606 871 659 951 q 422 616 512 728 q 217 469 304 471 q 140 659 101 474 q 193 835 157 736 q 312 1115 233 942 q 304 1148 300 1127 q 316 1171 307 1160 q 370 1235 351 1212 q 413 1259 388 1259 q 431 1254 422 1259 q 446 1215 452 1241 q 415 1144 444 1208 q 225 659 257 807 q 236 555 203 557 q 292 585 259 555 q 536 907 367 653 q 652 1076 594 994 q 791 1245 723 1176 q 828 1261 808 1261 q 852 1251 842 1261 q 861 1218 865 1237 l 859 1208 q 759 886 819 1109 l 743 829 q 587 332 666 536 q 305 -67 454 -15 q 246 -75 275 -75 z "},"":{"ha":340,"x_min":-14,"x_max":430,"o":"m 22 -93 q -5 -80 3 -92 q -10 -49 -14 -67 q 155 633 72 292 q 175 664 159 652 q 208 675 190 675 q 235 662 226 674 q 240 631 244 650 l 208 498 q 285 509 251 509 q 330 504 301 509 q 383 473 359 498 q 413 340 430 421 q 326 182 395 254 q 228 115 283 137 q 151 99 191 99 q 112 102 132 99 l 75 -52 q 55 -81 69 -70 q 22 -93 40 -93 m 167 185 q 269 234 222 185 q 328 340 315 282 q 315 407 336 383 q 269 423 301 423 q 186 408 236 423 l 134 190 q 167 185 151 185 z "},"":{"ha":391,"x_min":-14,"x_max":512,"o":"m 22 -93 q -5 -80 3 -92 q -10 -49 -14 -67 q 52 197 36 142 q 128 443 79 314 q 232 616 168 545 q 372 686 301 686 q 470 635 430 686 q 494 490 512 572 q 487 461 492 476 q 376 313 463 385 q 411 176 429 256 q 388 115 405 145 q 317 31 359 64 q 211 -11 264 -11 q 109 73 137 -11 l 108 81 q 75 -52 92 18 q 55 -81 70 -70 q 22 -93 40 -93 m 232 75 q 271 94 250 77 q 312 142 296 113 q 325 175 321 158 q 328 206 328 186 q 281 269 328 238 q 259 306 256 288 q 275 334 262 320 q 313 364 282 341 q 331 377 324 372 q 409 490 396 429 q 394 576 419 538 q 351 600 375 600 q 290 565 323 600 q 209 429 243 513 q 136 193 172 336 l 115 109 q 139 131 123 123 q 161 136 151 136 q 193 113 186 136 q 228 75 207 75 l 232 75 z "},"":{"ha":1112,"x_min":21,"x_max":1179,"o":"m 588 715 q 570 720 578 715 l 422 802 q 407 839 401 814 q 416 859 409 849 q 459 882 433 882 q 477 878 469 882 l 625 796 q 640 758 645 784 q 631 739 637 749 q 588 715 614 715 m 123 -27 q 92 -20 105 -27 q 43 35 58 -5 q 43 199 21 97 q 96 355 58 272 q 174 489 127 425 q 474 694 299 665 q 524 699 498 699 q 620 686 570 699 q 644 665 637 681 q 645 643 648 655 q 615 604 640 618 q 591 597 603 597 q 581 599 585 597 q 510 608 544 608 q 473 606 491 608 q 331 540 395 592 q 178 334 236 463 q 132 201 145 262 q 124 144 126 172 q 153 60 117 60 q 270 144 192 60 q 549 539 380 264 q 595 567 567 567 q 613 564 604 567 q 632 523 638 552 q 629 514 631 518 q 570 317 587 400 q 565 136 545 200 q 628 68 583 79 q 667 63 646 63 q 749 78 704 63 q 953 187 849 111 q 1099 318 1033 246 q 1139 337 1116 337 q 1163 329 1152 337 q 1175 293 1179 315 q 1161 267 1171 279 q 983 110 1081 180 q 761 -7 869 29 q 649 -26 701 -26 q 477 96 515 -26 q 473 278 456 163 q 317 91 387 160 q 123 -27 198 -27 z "},"":{"ha":1112,"x_min":21,"x_max":1179,"o":"m 472 698 q 439 722 446 698 q 439 741 437 731 q 470 779 444 766 l 652 861 q 672 865 663 865 q 705 841 699 865 q 706 821 708 831 q 674 784 701 796 l 492 702 q 472 698 481 698 m 123 -27 q 92 -20 105 -27 q 43 35 58 -5 q 43 199 21 97 q 96 355 58 272 q 174 489 127 425 q 474 694 299 665 q 524 699 498 699 q 620 686 570 699 q 644 665 637 681 q 645 643 648 655 q 615 604 640 618 q 591 597 603 597 q 581 599 585 597 q 510 608 544 608 q 473 606 491 608 q 331 540 395 592 q 178 334 236 463 q 132 201 145 262 q 124 144 126 172 q 153 60 117 60 q 270 144 192 60 q 549 539 380 264 q 595 567 567 567 q 613 564 604 567 q 632 523 638 552 q 629 514 631 518 q 570 317 587 400 q 565 136 545 200 q 628 68 583 79 q 667 63 646 63 q 749 78 704 63 q 953 187 849 111 q 1099 318 1033 246 q 1139 337 1116 337 q 1163 329 1152 337 q 1175 293 1179 315 q 1161 267 1171 279 q 983 110 1081 180 q 761 -7 869 29 q 649 -26 701 -26 q 477 96 515 -26 q 473 278 456 163 q 317 91 387 160 q 123 -27 198 -27 z "},"":{"ha":1112,"x_min":21,"x_max":1179,"o":"m 647 707 q 613 734 620 707 q 576 851 599 804 l 565 873 q 432 730 525 844 q 391 709 414 709 q 370 715 380 709 q 357 752 352 728 q 368 774 359 763 q 474 895 432 852 q 584 962 539 962 q 655 902 623 962 q 699 767 684 846 q 699 750 701 759 q 665 711 694 723 q 647 707 655 707 m 123 -27 q 92 -20 105 -27 q 43 35 58 -5 q 43 199 21 97 q 96 355 58 272 q 174 489 127 425 q 474 694 299 665 q 524 699 498 699 q 620 686 570 699 q 644 665 637 681 q 645 643 648 655 q 615 604 640 618 q 591 597 603 597 q 581 599 585 597 q 510 608 544 608 q 473 606 491 608 q 331 540 395 592 q 178 334 236 463 q 132 201 145 262 q 124 144 126 172 q 153 60 117 60 q 270 144 192 60 q 549 539 380 264 q 595 567 567 567 q 613 564 604 567 q 632 523 638 552 q 629 514 631 518 q 570 317 587 400 q 565 136 545 200 q 628 68 583 79 q 667 63 646 63 q 749 78 704 63 q 953 187 849 111 q 1099 318 1033 246 q 1139 337 1116 337 q 1163 329 1152 337 q 1175 293 1179 315 q 1161 267 1171 279 q 983 110 1081 180 q 761 -7 869 29 q 649 -26 701 -26 q 477 96 515 -26 q 473 278 456 163 q 317 91 387 160 q 123 -27 198 -27 z "},"":{"ha":1112,"x_min":21,"x_max":1179,"o":"m 627 723 q 505 755 580 723 q 414 780 450 780 q 347 754 380 780 q 314 742 331 742 q 286 755 297 742 q 281 783 277 768 q 299 815 284 802 q 424 868 368 868 q 462 865 429 868 q 551 836 495 862 q 646 810 605 810 q 721 841 682 810 q 754 854 736 854 q 782 842 771 854 q 788 812 791 829 q 770 781 785 794 q 671 728 716 737 q 627 723 648 723 m 123 -27 q 92 -20 105 -27 q 43 35 58 -5 q 43 199 21 97 q 96 355 58 272 q 174 489 127 425 q 474 694 299 665 q 524 699 498 699 q 620 686 570 699 q 644 665 637 681 q 645 643 648 655 q 615 604 640 618 q 591 597 603 597 q 581 599 585 597 q 510 608 544 608 q 473 606 491 608 q 331 540 395 592 q 178 334 236 463 q 132 201 145 262 q 124 144 126 172 q 153 60 117 60 q 270 144 192 60 q 549 539 380 264 q 595 567 567 567 q 613 564 604 567 q 632 523 638 552 q 629 514 631 518 q 570 317 587 400 q 565 136 545 200 q 628 68 583 79 q 667 63 646 63 q 749 78 704 63 q 953 187 849 111 q 1099 318 1033 246 q 1139 337 1116 337 q 1163 329 1152 337 q 1175 293 1179 315 q 1161 267 1171 279 q 983 110 1081 180 q 761 -7 869 29 q 649 -26 701 -26 q 477 96 515 -26 q 473 278 456 163 q 317 91 387 160 q 123 -27 198 -27 z "},"":{"ha":1112,"x_min":21,"x_max":1179,"o":"m 577 713 q 543 731 555 713 q 539 762 536 745 q 566 799 544 785 q 598 809 581 809 q 633 791 623 808 q 637 761 640 778 q 610 723 632 737 q 577 713 595 713 m 397 709 q 361 726 372 709 q 358 756 354 740 q 384 795 363 780 q 416 804 399 804 q 451 786 441 804 q 455 757 458 773 q 429 718 450 733 q 397 709 413 709 m 123 -27 q 92 -20 105 -27 q 43 35 58 -5 q 43 199 21 97 q 96 355 58 272 q 174 489 127 425 q 474 694 299 665 q 524 699 498 699 q 620 686 570 699 q 644 665 637 681 q 645 643 648 655 q 615 604 640 618 q 591 597 603 597 q 581 599 585 597 q 510 608 544 608 q 473 606 491 608 q 331 540 395 592 q 178 334 236 463 q 132 201 145 262 q 124 144 126 172 q 153 60 117 60 q 270 144 192 60 q 549 539 380 264 q 595 567 567 567 q 613 564 604 567 q 632 523 638 552 q 629 514 631 518 q 570 317 587 400 q 565 136 545 200 q 628 68 583 79 q 667 63 646 63 q 749 78 704 63 q 953 187 849 111 q 1099 318 1033 246 q 1139 337 1116 337 q 1163 329 1152 337 q 1175 293 1179 315 q 1161 267 1171 279 q 983 110 1081 180 q 761 -7 869 29 q 649 -26 701 -26 q 477 96 515 -26 q 473 278 456 163 q 317 91 387 160 q 123 -27 198 -27 z "},"":{"ha":1112,"x_min":21,"x_max":1179,"o":"m 478 727 q 422 743 448 727 q 395 846 380 780 q 431 924 404 888 q 535 981 476 981 q 597 956 570 981 q 628 882 625 927 q 625 846 629 863 q 594 783 618 813 q 511 731 559 744 q 478 727 494 727 m 496 812 q 507 814 501 812 q 539 845 534 823 q 540 863 541 854 q 517 895 534 895 q 490 870 501 895 q 480 844 483 854 q 478 828 479 837 q 484 816 478 820 q 496 812 489 812 m 123 -27 q 92 -20 105 -27 q 43 35 58 -5 q 43 199 21 97 q 96 355 58 272 q 174 489 127 425 q 474 694 299 665 q 524 699 498 699 q 620 686 570 699 q 644 665 637 681 q 645 643 648 655 q 615 604 640 618 q 591 597 603 597 q 581 599 585 597 q 510 608 544 608 q 473 606 491 608 q 331 540 395 592 q 178 334 236 463 q 132 201 145 262 q 124 144 126 172 q 153 60 117 60 q 270 144 192 60 q 549 539 380 264 q 595 567 567 567 q 613 564 604 567 q 632 523 638 552 q 629 514 631 518 q 570 317 587 400 q 565 136 545 200 q 628 68 583 79 q 667 63 646 63 q 749 78 704 63 q 953 187 849 111 q 1099 318 1033 246 q 1139 337 1116 337 q 1163 329 1152 337 q 1175 293 1179 315 q 1161 267 1171 279 q 983 110 1081 180 q 761 -7 869 29 q 649 -26 701 -26 q 477 96 515 -26 q 473 278 456 163 q 317 91 387 160 q 123 -27 198 -27 z "},"":{"ha":1718,"x_min":20,"x_max":1786,"o":"m 1255 437 q 1353 501 1310 463 q 1429 609 1416 557 q 1428 623 1431 618 q 1423 625 1426 625 q 1413 622 1419 625 q 1302 510 1373 606 q 1255 437 1278 476 m 1080 186 q 983 110 1034 146 q 761 -7 869 29 q 650 -26 701 -26 q 477 96 515 -26 q 473 278 456 163 q 317 91 387 160 q 123 -27 198 -27 q 92 -20 105 -27 q 43 35 58 -5 q 42 199 20 97 q 96 355 58 272 q 174 489 127 425 q 474 694 299 665 q 524 699 498 699 q 620 686 570 699 q 644 665 637 681 q 646 643 648 655 q 615 604 640 618 q 591 597 603 597 q 581 599 585 597 q 510 608 544 608 q 473 606 491 608 q 331 540 395 592 q 178 334 236 463 q 132 201 145 262 q 124 144 126 172 q 153 60 118 60 q 270 144 192 60 q 549 539 380 264 q 596 567 567 567 q 613 564 605 567 q 632 523 638 552 q 629 514 631 518 q 569 317 587 400 q 565 136 545 200 q 628 68 583 79 q 667 63 646 63 q 749 78 705 63 q 953 187 849 111 q 1099 318 1033 246 q 1111 328 1105 324 q 1115 340 1113 334 q 1231 550 1163 458 q 1390 701 1322 673 q 1445 715 1420 715 q 1487 703 1468 715 q 1515 602 1531 677 q 1404 440 1498 522 q 1201 326 1322 366 q 1176 245 1185 287 q 1196 93 1152 135 q 1271 66 1222 66 q 1440 116 1343 66 q 1706 321 1591 193 q 1747 340 1725 340 q 1770 332 1760 340 q 1781 295 1786 319 q 1681 184 1775 267 q 1468 38 1578 95 q 1335 -12 1402 5 q 1250 -23 1291 -23 q 1081 127 1101 -23 q 1080 186 1078 156 z "},"":{"ha":1523,"x_min":23,"x_max":1590,"o":"m 258 121 l 268 130 q 439 420 378 252 q 458 484 451 454 q 465 547 465 517 q 419 611 464 611 q 350 581 391 611 q 266 468 292 534 q 234 365 245 416 q 258 121 197 191 m 1059 433 q 1157 498 1114 460 q 1233 606 1219 553 q 1232 619 1235 614 q 1227 621 1230 621 q 1217 618 1223 621 q 1106 507 1177 602 q 1059 433 1082 473 m 157 56 q 179 60 166 56 q 131 194 138 112 l 126 175 q 121 97 116 127 q 157 56 127 56 m 884 182 q 812 130 850 155 q 512 -7 666 33 q 385 -24 445 -24 q 246 5 304 -24 q 138 -33 187 -33 q 31 66 51 -33 q 37 174 23 110 q 83 311 51 238 q 108 338 92 329 q 134 346 121 346 l 141 345 l 145 365 q 182 486 159 427 q 304 647 217 578 q 440 701 378 701 q 532 656 499 701 q 547 484 571 601 q 524 406 538 446 q 330 79 454 216 l 328 76 q 404 66 363 66 q 508 80 452 66 q 768 197 642 114 q 912 318 851 252 l 913 319 l 919 336 q 1035 547 967 454 q 1194 698 1126 670 q 1249 711 1224 711 q 1291 700 1272 711 q 1318 598 1335 673 q 1208 437 1302 519 q 1005 323 1126 363 q 980 241 989 283 q 1000 90 956 132 q 1075 63 1026 63 q 1244 113 1147 63 q 1510 318 1395 190 q 1551 337 1529 337 q 1574 329 1564 337 q 1585 292 1590 316 q 1485 181 1579 264 q 1272 35 1382 92 q 1139 -15 1206 1 q 1054 -26 1095 -26 q 885 123 905 -26 q 884 182 882 152 z "},"":{"ha":751,"x_min":-32,"x_max":818,"o":"m 163 -18 q 64 52 98 -1 q 50 232 25 117 q 170 488 76 356 q 368 670 259 612 q 465 695 418 695 q 549 645 532 695 q 553 584 559 616 q 548 567 551 576 q 481 498 524 498 q 467 501 474 498 q 446 543 440 513 q 452 559 448 551 q 464 584 461 572 q 463 599 466 592 q 444 606 460 606 q 397 595 422 606 q 240 447 317 554 q 165 313 195 383 q 138 231 147 271 q 132 187 134 209 q 257 65 128 65 q 300 67 267 65 q 387 89 332 70 q 612 208 502 130 q 738 318 683 259 q 779 337 756 337 q 802 329 791 337 q 812 292 818 315 q 800 267 810 279 q 654 139 736 197 q 400 5 530 51 q 248 -26 319 -22 l 214 -165 q 194 -195 209 -183 q 161 -207 179 -207 q 134 -193 143 -205 q 130 -161 125 -181 q 60 -232 71 -178 q 59 -259 57 -246 q 63 -280 60 -273 q 70 -288 66 -288 q 97 -267 74 -287 q 163 -231 138 -231 q 189 -255 183 -231 q 189 -274 191 -264 q 182 -293 188 -281 q 156 -314 176 -305 q 127 -334 143 -320 q 48 -374 87 -374 q -5 -347 17 -374 q -28 -288 -24 -323 q -26 -231 -32 -259 q 5 -159 -18 -194 q 151 -72 55 -88 l 163 -18 z "},"":{"ha":684,"x_min":39,"x_max":751,"o":"m 506 715 q 488 720 496 715 l 340 802 q 325 839 319 814 q 334 859 327 849 q 377 882 351 882 q 395 878 387 882 l 543 796 q 557 758 563 784 q 549 739 555 749 q 506 715 532 715 m 214 -26 q 45 123 65 -26 q 53 249 39 184 q 79 336 62 292 q 195 547 127 454 q 355 698 287 670 q 410 711 385 711 q 452 700 433 711 q 479 598 495 673 q 369 437 463 519 q 165 323 286 363 q 140 241 149 283 q 160 90 117 132 q 235 63 186 63 q 404 113 308 63 q 670 318 555 190 q 711 337 688 337 q 734 329 724 337 q 745 292 751 316 q 645 181 740 264 q 432 35 543 92 q 300 -15 366 1 q 214 -26 255 -26 m 220 433 q 317 498 274 460 q 393 606 380 553 q 392 619 395 614 q 387 621 391 621 q 378 618 384 621 q 267 507 337 602 q 220 433 242 473 z "},"":{"ha":684,"x_min":39,"x_max":751,"o":"m 302 698 q 269 722 276 698 q 269 741 267 731 q 300 779 275 766 l 483 861 q 503 865 493 865 q 536 841 529 865 q 536 821 538 831 q 505 784 531 796 l 323 702 q 302 698 312 698 m 214 -26 q 45 123 65 -26 q 53 249 39 184 q 79 336 62 292 q 195 547 127 454 q 355 698 287 670 q 410 711 385 711 q 452 700 433 711 q 479 598 495 673 q 369 437 463 519 q 165 323 286 363 q 140 241 149 283 q 160 90 117 132 q 235 63 186 63 q 404 113 308 63 q 670 318 555 190 q 711 337 688 337 q 734 329 724 337 q 745 292 751 316 q 645 181 740 264 q 432 35 543 92 q 300 -15 366 1 q 214 -26 255 -26 m 220 433 q 317 498 274 460 q 393 606 380 553 q 392 619 395 614 q 387 621 391 621 q 378 618 384 621 q 267 507 337 602 q 220 433 242 473 z "},"":{"ha":684,"x_min":39,"x_max":751,"o":"m 530 694 q 496 721 503 694 q 459 838 482 791 l 448 860 q 315 717 408 831 q 274 696 298 696 q 253 702 263 696 q 240 739 235 715 q 251 761 243 750 q 357 882 315 840 q 467 949 422 949 q 538 889 507 949 q 583 754 567 833 q 583 737 585 746 q 548 698 577 710 q 530 694 538 694 m 214 -26 q 45 123 65 -26 q 53 249 39 184 q 79 336 62 292 q 195 547 127 454 q 355 698 287 670 q 410 711 385 711 q 452 700 433 711 q 479 598 495 673 q 369 437 463 519 q 165 323 286 363 q 140 241 149 283 q 160 90 117 132 q 235 63 186 63 q 404 113 308 63 q 670 318 555 190 q 711 337 688 337 q 734 329 724 337 q 745 292 751 316 q 645 181 740 264 q 432 35 543 92 q 300 -15 366 1 q 214 -26 255 -26 m 220 433 q 317 498 274 460 q 393 606 380 553 q 392 619 395 614 q 387 621 391 621 q 378 618 384 621 q 267 507 337 602 q 220 433 242 473 z "},"":{"ha":684,"x_min":39,"x_max":751,"o":"m 490 713 q 456 731 468 713 q 452 762 449 745 q 479 799 457 785 q 511 809 494 809 q 546 791 536 808 q 550 761 553 778 q 524 723 545 737 q 490 713 508 713 m 310 709 q 275 726 286 709 q 271 756 267 740 q 297 795 276 780 q 329 804 313 804 q 364 786 355 804 q 368 757 372 773 q 342 718 363 733 q 310 709 326 709 m 214 -26 q 45 123 65 -26 q 53 249 39 184 q 79 336 62 292 q 195 547 127 454 q 355 698 287 670 q 410 711 385 711 q 452 700 433 711 q 479 598 495 673 q 369 437 463 519 q 165 323 286 363 q 140 241 149 283 q 160 90 117 132 q 235 63 186 63 q 404 113 308 63 q 670 318 555 190 q 711 337 688 337 q 734 329 724 337 q 745 292 751 316 q 645 181 740 264 q 432 35 543 92 q 300 -15 366 1 q 214 -26 255 -26 m 220 433 q 317 498 274 460 q 393 606 380 553 q 392 619 395 614 q 387 621 391 621 q 378 618 384 621 q 267 507 337 602 q 220 433 242 473 z "},"":{"ha":667,"x_min":35,"x_max":734,"o":"m 380 715 q 362 720 371 715 l 215 802 q 199 839 194 814 q 208 859 201 849 q 252 882 225 882 q 269 878 261 882 l 417 796 q 432 758 437 784 q 424 739 430 749 q 380 715 406 715 m 205 -38 q 107 -12 148 -38 q 39 116 48 26 q 47 225 35 163 q 259 670 87 411 q 305 696 277 696 q 322 693 314 696 q 340 652 346 680 q 333 634 338 643 q 137 228 171 389 q 130 141 126 178 q 223 52 140 52 q 494 174 329 52 q 654 319 570 233 q 695 337 673 337 q 719 328 709 337 q 729 292 734 313 q 714 266 726 278 q 543 111 627 175 q 205 -38 343 -38 z "},"":{"ha":667,"x_min":35,"x_max":734,"o":"m 313 698 q 280 722 287 698 q 280 741 278 731 q 311 779 286 766 l 494 861 q 513 865 504 865 q 547 841 540 865 q 547 821 549 831 q 515 784 542 796 l 334 702 q 313 698 323 698 m 205 -38 q 107 -12 148 -38 q 39 116 48 26 q 47 225 35 163 q 259 670 87 411 q 305 696 277 696 q 322 693 314 696 q 340 652 346 680 q 333 634 338 643 q 137 228 171 389 q 130 141 126 178 q 223 52 140 52 q 494 174 329 52 q 654 319 570 233 q 695 337 673 337 q 719 328 709 337 q 729 292 734 313 q 714 266 726 278 q 543 111 627 175 q 205 -38 343 -38 z "},"":{"ha":673,"x_min":40,"x_max":739,"o":"m 437 648 q 403 674 410 648 q 366 791 389 744 l 355 813 q 222 670 315 785 q 180 649 205 649 q 159 655 170 649 q 147 692 142 668 q 158 714 149 703 q 264 835 222 793 q 374 902 330 902 q 445 842 414 902 q 490 707 473 786 q 489 690 491 699 q 454 651 484 663 q 437 648 445 648 m 210 -38 q 113 -12 153 -38 q 45 116 54 26 q 53 225 40 163 q 264 670 92 411 q 311 696 282 696 q 328 693 319 696 q 346 652 351 680 q 338 634 344 643 q 142 228 176 389 q 136 141 132 178 q 229 52 146 52 q 499 174 334 52 q 660 319 576 233 q 701 337 678 337 q 724 328 714 337 q 734 292 739 313 q 720 266 732 278 q 548 111 632 175 q 210 -38 349 -38 z "},"":{"ha":667,"x_min":35,"x_max":734,"o":"m 401 713 q 367 731 378 713 q 363 762 359 745 q 389 799 368 785 q 422 809 405 809 q 456 791 447 808 q 460 761 464 778 q 434 723 456 737 q 401 713 418 713 m 220 709 q 185 726 196 709 q 182 756 178 740 q 208 795 186 780 q 239 804 223 804 q 275 786 265 804 q 279 757 282 773 q 252 718 273 733 q 220 709 237 709 m 205 -38 q 107 -12 148 -38 q 39 116 48 26 q 47 225 35 163 q 259 670 87 411 q 305 696 277 696 q 322 693 314 696 q 340 652 346 680 q 333 634 338 643 q 137 228 171 389 q 130 141 126 178 q 223 52 140 52 q 494 174 329 52 q 654 319 570 233 q 695 337 673 337 q 719 328 709 337 q 729 292 734 313 q 714 266 726 278 q 543 111 627 175 q 205 -38 343 -38 z "},"":{"ha":342,"x_min":4,"x_max":466,"o":"m 130 -84 q 52 -54 87 -84 q 17 81 4 -7 l 18 84 q 130 257 39 182 q 266 337 187 307 q 248 437 258 387 l 155 391 q 132 385 143 385 q 100 407 109 385 q 99 429 97 418 q 129 465 104 453 l 231 517 l 208 616 q 208 633 207 625 q 243 672 214 661 q 262 675 253 675 q 295 650 288 675 q 313 566 304 608 l 315 559 l 408 606 q 429 611 419 611 q 462 589 454 611 q 463 568 466 578 q 433 530 458 544 l 332 480 q 351 142 378 275 q 286 1 332 54 q 170 -78 237 -59 q 130 -84 149 -84 m 150 3 q 222 45 187 3 q 265 142 252 79 q 273 254 275 191 q 170 191 216 231 q 104 83 117 145 q 119 15 96 39 q 150 3 133 3 z "},"":{"ha":1031,"x_min":1,"x_max":1099,"o":"m 669 679 q 547 711 622 679 q 456 736 492 736 q 389 710 423 736 q 356 698 373 698 q 328 711 339 698 q 323 739 319 724 q 342 771 327 758 q 466 824 410 824 q 504 821 471 824 q 593 791 537 818 q 688 766 647 766 q 763 797 724 766 q 796 810 779 810 q 824 798 813 810 q 831 768 833 785 q 812 737 827 750 q 713 684 758 693 q 669 679 690 679 m 566 -26 q 524 -23 544 -26 q 411 51 440 -6 q 401 291 368 135 q 439 441 410 332 q 467 546 456 499 q 473 616 481 616 q 441 595 465 616 q 326 451 387 546 q 198 233 256 343 q 110 55 131 108 l 97 25 q 42 -24 75 -24 q 9 -7 20 -24 q 5 22 1 4 q 83 253 7 37 q 152 456 121 362 q 175 486 159 475 q 204 496 189 496 q 240 469 234 496 l 252 487 q 491 706 393 706 q 527 699 509 706 q 565 592 578 671 l 561 571 q 531 463 551 526 q 485 295 499 360 q 489 116 460 178 q 586 63 513 63 q 669 78 623 63 q 901 210 783 116 q 1018 318 964 260 q 1059 337 1036 337 q 1082 329 1072 337 q 1094 293 1099 315 q 1080 267 1090 279 q 951 147 1022 203 q 680 -7 815 39 q 566 -26 618 -26 z "},"":{"ha":926,"x_min":23,"x_max":993,"o":"m 515 715 q 497 720 506 715 l 350 802 q 334 839 329 814 q 343 859 336 849 q 387 882 360 882 q 404 878 396 882 l 552 796 q 567 758 572 784 q 559 739 565 749 q 515 715 541 715 m 137 -33 q 31 66 51 -33 q 37 174 23 110 q 83 311 50 238 q 108 338 92 329 q 135 346 121 346 l 141 345 l 145 365 q 182 486 158 427 q 304 647 217 578 q 439 701 378 701 q 532 656 499 701 q 547 484 571 601 q 524 406 538 446 q 330 79 454 216 l 328 76 q 404 66 363 66 q 508 80 452 66 q 768 197 642 114 q 912 318 851 252 q 953 337 930 337 q 976 329 966 337 q 988 293 993 315 q 975 267 985 279 q 812 130 905 192 q 512 -7 666 33 q 385 -24 445 -24 q 246 5 304 -24 q 137 -33 187 -33 m 258 121 l 268 130 q 439 420 378 252 q 458 484 451 454 q 465 547 465 517 q 419 611 463 611 q 350 581 390 611 q 266 468 292 534 q 234 365 245 416 q 258 121 197 191 m 157 56 q 179 60 166 56 q 131 194 138 112 l 126 175 q 121 97 116 127 q 157 56 127 56 z "},"":{"ha":926,"x_min":23,"x_max":993,"o":"m 357 698 q 323 722 330 698 q 323 741 321 731 q 355 779 329 766 l 537 861 q 557 865 547 865 q 590 841 583 865 q 591 821 593 831 q 559 784 585 796 l 377 702 q 357 698 366 698 m 137 -33 q 31 66 51 -33 q 37 174 23 110 q 83 311 50 238 q 108 338 92 329 q 135 346 121 346 l 141 345 l 145 365 q 182 486 158 427 q 304 647 217 578 q 439 701 378 701 q 532 656 499 701 q 547 484 571 601 q 524 406 538 446 q 330 79 454 216 l 328 76 q 404 66 363 66 q 508 80 452 66 q 768 197 642 114 q 912 318 851 252 q 953 337 930 337 q 976 329 966 337 q 988 293 993 315 q 975 267 985 279 q 812 130 905 192 q 512 -7 666 33 q 385 -24 445 -24 q 246 5 304 -24 q 137 -33 187 -33 m 258 121 l 268 130 q 439 420 378 252 q 458 484 451 454 q 465 547 465 517 q 419 611 463 611 q 350 581 390 611 q 266 468 292 534 q 234 365 245 416 q 258 121 197 191 m 157 56 q 179 60 166 56 q 131 194 138 112 l 126 175 q 121 97 116 127 q 157 56 127 56 z "},"":{"ha":926,"x_min":23,"x_max":993,"o":"m 568 707 q 534 734 541 707 q 497 851 520 804 l 486 873 q 353 730 446 844 q 312 709 336 709 q 291 715 301 709 q 278 752 273 728 q 290 774 281 763 q 395 895 353 852 q 505 962 460 962 q 576 902 545 962 q 621 767 605 846 q 621 750 623 759 q 586 711 615 723 q 568 707 576 707 m 137 -33 q 31 66 51 -33 q 37 174 23 110 q 83 311 50 238 q 108 338 92 329 q 135 346 121 346 l 141 345 l 145 365 q 182 486 158 427 q 304 647 217 578 q 439 701 378 701 q 532 656 499 701 q 547 484 571 601 q 524 406 538 446 q 330 79 454 216 l 328 76 q 404 66 363 66 q 508 80 452 66 q 768 197 642 114 q 912 318 851 252 q 953 337 930 337 q 976 329 966 337 q 988 293 993 315 q 975 267 985 279 q 812 130 905 192 q 512 -7 666 33 q 385 -24 445 -24 q 246 5 304 -24 q 137 -33 187 -33 m 258 121 l 268 130 q 439 420 378 252 q 458 484 451 454 q 465 547 465 517 q 419 611 463 611 q 350 581 390 611 q 266 468 292 534 q 234 365 245 416 q 258 121 197 191 m 157 56 q 179 60 166 56 q 131 194 138 112 l 126 175 q 121 97 116 127 q 157 56 127 56 z "},"":{"ha":926,"x_min":23,"x_max":993,"o":"m 602 723 q 480 755 555 723 q 389 780 426 780 q 322 754 356 780 q 290 742 307 742 q 262 755 273 742 q 256 783 253 768 q 275 815 260 802 q 399 868 343 868 q 438 865 405 868 q 527 836 471 862 q 621 810 581 810 q 696 841 657 810 q 730 854 712 854 q 758 842 747 854 q 764 812 767 829 q 745 781 760 794 q 646 728 692 737 q 602 723 624 723 m 137 -33 q 31 66 51 -33 q 37 174 23 110 q 83 311 50 238 q 108 338 92 329 q 135 346 121 346 l 141 345 l 145 365 q 182 486 158 427 q 304 647 217 578 q 439 701 378 701 q 532 656 499 701 q 547 484 571 601 q 524 406 538 446 q 330 79 454 216 l 328 76 q 404 66 363 66 q 508 80 452 66 q 768 197 642 114 q 912 318 851 252 q 953 337 930 337 q 976 329 966 337 q 988 293 993 315 q 975 267 985 279 q 812 130 905 192 q 512 -7 666 33 q 385 -24 445 -24 q 246 5 304 -24 q 137 -33 187 -33 m 258 121 l 268 130 q 439 420 378 252 q 458 484 451 454 q 465 547 465 517 q 419 611 463 611 q 350 581 390 611 q 266 468 292 534 q 234 365 245 416 q 258 121 197 191 m 157 56 q 179 60 166 56 q 131 194 138 112 l 126 175 q 121 97 116 127 q 157 56 127 56 z "},"":{"ha":926,"x_min":23,"x_max":993,"o":"m 541 713 q 507 731 519 713 q 503 762 500 745 q 530 799 508 785 q 562 809 545 809 q 597 791 587 808 q 601 761 604 778 q 574 723 596 737 q 541 713 559 713 m 361 709 q 326 726 336 709 q 322 756 318 740 q 348 795 327 780 q 380 804 363 804 q 415 786 406 804 q 419 757 422 773 q 393 718 414 733 q 361 709 377 709 m 137 -33 q 31 66 51 -33 q 37 174 23 110 q 83 311 50 238 q 108 338 92 329 q 135 346 121 346 l 141 345 l 145 365 q 182 486 158 427 q 304 647 217 578 q 439 701 378 701 q 532 656 499 701 q 547 484 571 601 q 524 406 538 446 q 330 79 454 216 l 328 76 q 404 66 363 66 q 508 80 452 66 q 768 197 642 114 q 912 318 851 252 q 953 337 930 337 q 976 329 966 337 q 988 293 993 315 q 975 267 985 279 q 812 130 905 192 q 512 -7 666 33 q 385 -24 445 -24 q 246 5 304 -24 q 137 -33 187 -33 m 258 121 l 268 130 q 439 420 378 252 q 458 484 451 454 q 465 547 465 517 q 419 611 463 611 q 350 581 390 611 q 266 468 292 534 q 234 365 245 416 q 258 121 197 191 m 157 56 q 179 60 166 56 q 131 194 138 112 l 126 175 q 121 97 116 127 q 157 56 127 56 z "},"":{"ha":439,"x_min":52,"x_max":498,"o":"m 443 217 l 89 220 q 62 233 71 221 q 56 264 52 245 q 75 294 60 282 q 108 306 90 306 l 461 302 q 489 290 479 302 q 495 259 498 277 q 476 229 490 241 q 443 217 461 217 m 286 338 l 279 338 q 250 356 259 340 q 246 385 243 369 q 273 424 252 409 q 304 433 288 433 q 340 416 329 433 q 343 386 347 402 q 317 347 338 362 q 286 338 302 338 m 235 103 q 200 121 211 103 q 197 151 193 134 q 222 189 201 174 q 255 199 238 199 q 290 181 279 199 q 294 151 297 168 q 267 113 288 127 q 235 103 252 103 z "},"":{"ha":1001,"x_min":-20,"x_max":1068,"o":"m 210 167 q 206 194 208 180 l 201 175 q 197 154 199 164 q 210 167 203 161 m 296 258 q 538 515 444 416 q 540 547 540 532 q 494 611 539 611 q 425 581 466 611 q 341 468 367 534 q 309 365 320 416 q 296 258 297 305 m 629 523 q 622 484 626 505 q 599 406 614 446 q 405 79 529 216 l 403 76 q 479 66 438 66 q 583 80 528 66 q 843 197 718 114 q 987 318 926 252 q 1028 337 1006 337 q 1051 329 1041 337 q 1063 293 1068 315 q 1050 267 1061 279 q 888 130 981 192 q 587 -7 741 33 q 460 -24 520 -24 q 321 5 380 -24 q 213 -33 262 -33 q 136 -1 163 -33 q 31 -111 33 -109 q 7 -119 19 -119 q -15 -105 -7 -119 q -18 -83 -20 -96 q -7 -64 -16 -74 q 108 58 53 0 q 106 66 107 62 q 113 174 98 110 q 159 311 126 238 q 183 338 167 329 q 210 346 196 346 l 216 345 l 220 365 q 257 486 234 427 q 380 647 292 578 q 515 701 453 701 q 607 656 574 701 q 627 610 621 636 q 702 688 701 688 q 726 696 713 696 q 748 683 740 696 q 751 661 753 673 q 740 642 749 652 q 629 523 682 580 m 204 73 q 232 56 213 56 q 254 60 241 56 q 230 100 240 78 q 204 73 216 85 m 304 178 q 334 121 313 144 l 343 130 q 502 389 442 240 q 304 178 389 269 z "},"":{"ha":1041,"x_min":10,"x_max":1108,"o":"m 433 715 q 415 720 424 715 l 268 802 q 252 839 247 814 q 261 859 254 849 q 304 882 278 882 q 322 878 314 882 l 470 796 q 485 758 490 784 q 477 739 483 749 q 433 715 459 715 m 104 -33 q 44 -3 64 -33 q 38 179 10 48 q 57 252 45 214 q 155 520 96 382 q 210 661 183 589 q 233 690 217 680 q 261 699 247 699 q 294 680 285 699 q 297 654 300 668 q 240 509 293 637 q 121 157 149 288 q 125 56 100 60 q 170 90 138 56 q 262 218 213 138 q 398 467 336 341 l 434 540 q 494 661 463 602 q 522 687 505 679 q 543 692 533 692 q 557 690 550 692 q 578 646 586 680 l 577 640 q 527 450 555 572 q 616 61 444 61 q 732 91 665 61 q 1027 318 888 163 q 1068 337 1046 337 q 1092 329 1081 337 q 1103 292 1108 315 q 1090 267 1101 279 q 986 165 1042 214 q 754 11 871 65 q 597 -28 667 -28 q 413 152 443 -28 q 414 318 404 229 q 231 38 312 127 q 104 -33 167 -33 z "},"":{"ha":1041,"x_min":10,"x_max":1108,"o":"m 412 698 q 378 722 385 698 q 378 741 376 731 q 410 779 384 766 l 592 861 q 612 865 602 865 q 645 841 638 865 q 646 821 648 831 q 614 784 640 796 l 432 702 q 412 698 421 698 m 104 -33 q 44 -3 64 -33 q 38 179 10 48 q 57 252 45 214 q 155 520 96 382 q 210 661 183 589 q 233 690 217 680 q 261 699 247 699 q 294 680 285 699 q 297 654 300 668 q 240 509 293 637 q 121 157 149 288 q 125 56 100 60 q 170 90 138 56 q 262 218 213 138 q 398 467 336 341 l 434 540 q 494 661 463 602 q 522 687 505 679 q 543 692 533 692 q 557 690 550 692 q 578 646 586 680 l 577 640 q 527 450 555 572 q 616 61 444 61 q 732 91 665 61 q 1027 318 888 163 q 1068 337 1046 337 q 1092 329 1081 337 q 1103 292 1108 315 q 1090 267 1101 279 q 986 165 1042 214 q 754 11 871 65 q 597 -28 667 -28 q 413 152 443 -28 q 414 318 404 229 q 231 38 312 127 q 104 -33 167 -33 z "},"":{"ha":1041,"x_min":10,"x_max":1108,"o":"m 562 707 q 528 734 535 707 q 491 851 514 804 l 480 873 q 347 730 440 844 q 306 709 330 709 q 285 715 295 709 q 272 752 267 728 q 283 774 275 763 q 389 895 347 852 q 499 962 454 962 q 570 902 538 962 q 614 767 599 846 q 614 750 616 759 q 580 711 609 723 q 562 707 570 707 m 104 -33 q 44 -3 64 -33 q 38 179 10 48 q 57 252 45 214 q 155 520 96 382 q 210 661 183 589 q 233 690 217 680 q 261 699 247 699 q 294 680 285 699 q 297 654 300 668 q 240 509 293 637 q 121 157 149 288 q 125 56 100 60 q 170 90 138 56 q 262 218 213 138 q 398 467 336 341 l 434 540 q 494 661 463 602 q 522 687 505 679 q 543 692 533 692 q 557 690 550 692 q 578 646 586 680 l 577 640 q 527 450 555 572 q 616 61 444 61 q 732 91 665 61 q 1027 318 888 163 q 1068 337 1046 337 q 1092 329 1081 337 q 1103 292 1108 315 q 1090 267 1101 279 q 986 165 1042 214 q 754 11 871 65 q 597 -28 667 -28 q 413 152 443 -28 q 414 318 404 229 q 231 38 312 127 q 104 -33 167 -33 z "},"":{"ha":1041,"x_min":10,"x_max":1108,"o":"m 509 713 q 475 731 486 713 q 471 762 467 745 q 497 799 475 785 q 530 809 513 809 q 564 791 555 808 q 568 761 572 778 q 542 723 564 737 q 509 713 526 713 m 328 709 q 293 726 304 709 q 290 756 286 740 q 315 795 294 780 q 347 804 331 804 q 382 786 373 804 q 387 757 390 773 q 360 718 381 733 q 328 709 345 709 m 104 -33 q 44 -3 64 -33 q 38 179 10 48 q 57 252 45 214 q 155 520 96 382 q 210 661 183 589 q 233 690 217 680 q 261 699 247 699 q 294 680 285 699 q 297 654 300 668 q 240 509 293 637 q 121 157 149 288 q 125 56 100 60 q 170 90 138 56 q 262 218 213 138 q 398 467 336 341 l 434 540 q 494 661 463 602 q 522 687 505 679 q 543 692 533 692 q 557 690 550 692 q 578 646 586 680 l 577 640 q 527 450 555 572 q 616 61 444 61 q 732 91 665 61 q 1027 318 888 163 q 1068 337 1046 337 q 1092 329 1081 337 q 1103 292 1108 315 q 1090 267 1101 279 q 986 165 1042 214 q 754 11 871 65 q 597 -28 667 -28 q 413 152 443 -28 q 414 318 404 229 q 231 38 312 127 q 104 -33 167 -33 z "},"":{"ha":958,"x_min":-149,"x_max":1024,"o":"m 458 698 q 425 722 431 698 q 425 741 422 731 q 456 779 430 766 l 638 861 q 658 865 648 865 q 691 841 684 865 q 692 821 694 831 q 660 784 686 796 l 478 702 q 458 698 467 698 m -45 -840 q -125 -770 -102 -837 q -126 -600 -149 -703 q -81 -458 -113 -534 q 271 -62 24 -218 q 351 -14 310 -37 q 420 215 366 30 q 457 350 432 254 q 246 61 347 176 q 104 -25 165 -25 q 50 2 71 -25 q 42 197 11 53 q 164 533 73 342 q 250 692 205 619 q 296 720 269 720 q 313 717 305 720 q 333 675 339 705 q 326 659 331 667 q 245 511 284 591 q 130 193 160 333 q 120 111 120 146 q 136 63 119 63 q 316 283 172 63 q 503 581 457 499 q 557 668 530 629 q 600 690 574 690 q 637 664 629 690 q 638 642 640 653 l 635 632 q 595 511 610 572 l 560 382 q 460 44 515 213 q 628 127 518 74 q 949 326 838 229 q 985 339 967 339 q 1013 326 1002 339 q 1020 294 1024 313 q 1002 264 1017 277 q 654 50 876 157 q 422 -68 460 -48 q 158 -671 290 -454 q 109 -741 138 -704 q -45 -840 31 -838 m -23 -749 q 3 -736 -14 -749 q 82 -637 39 -707 q 309 -134 191 -460 q 126 -284 202 -201 q 2 -477 51 -367 q -37 -598 -25 -543 q -41 -725 -54 -675 q -23 -749 -36 -749 z "},"":{"ha":340,"x_min":-14,"x_max":430,"o":"m 22 -93 q -5 -80 3 -92 q -10 -49 -14 -67 q 155 633 72 292 q 175 664 159 652 q 208 675 190 675 q 235 662 226 674 q 240 631 244 650 l 208 498 q 285 509 251 509 q 330 504 301 509 q 383 473 359 498 q 413 340 430 421 q 326 182 395 254 q 228 115 283 137 q 151 99 191 99 q 112 102 132 99 l 75 -52 q 55 -81 69 -70 q 22 -93 40 -93 m 167 185 q 269 234 222 185 q 328 340 315 282 q 315 407 336 383 q 269 423 301 423 q 186 408 236 423 l 134 190 q 167 185 151 185 z "},"":{"ha":958,"x_min":-149,"x_max":1024,"o":"m 556 713 q 522 731 534 713 q 518 762 515 745 q 545 799 523 785 q 577 809 560 809 q 612 791 602 808 q 616 761 619 778 q 589 723 611 737 q 556 713 574 713 m 376 709 q 340 726 351 709 q 337 756 333 740 q 363 795 342 780 q 395 804 378 804 q 430 786 420 804 q 434 757 437 773 q 408 718 429 733 q 376 709 392 709 m -45 -840 q -125 -770 -102 -837 q -126 -600 -149 -703 q -81 -458 -113 -534 q 271 -62 24 -218 q 351 -14 310 -37 q 420 215 366 30 q 457 350 432 254 q 246 61 347 176 q 104 -25 165 -25 q 50 2 71 -25 q 42 197 11 53 q 164 533 73 342 q 250 692 205 619 q 296 720 269 720 q 313 717 305 720 q 333 675 339 705 q 326 659 331 667 q 245 511 284 591 q 130 193 160 333 q 120 111 120 146 q 136 63 119 63 q 316 283 172 63 q 503 581 457 499 q 557 668 530 629 q 600 690 574 690 q 637 664 629 690 q 638 642 640 653 l 635 632 q 595 511 610 572 l 560 382 q 460 44 515 213 q 628 127 518 74 q 949 326 838 229 q 985 339 967 339 q 1013 326 1002 339 q 1020 294 1024 313 q 1002 264 1017 277 q 654 50 876 157 q 422 -68 460 -48 q 158 -671 290 -454 q 109 -741 138 -704 q -45 -840 31 -838 m -23 -749 q 3 -736 -14 -749 q 82 -637 39 -707 q 309 -134 191 -460 q 126 -284 202 -201 q 2 -477 51 -367 q -37 -598 -25 -543 q -41 -725 -54 -675 q -23 -749 -36 -749 z "},"":{"ha":115,"x_min":-8,"x_max":314,"o":"m 28 -64 q 1 -50 10 -62 q -4 -20 -8 -38 l 225 922 q 245 952 230 940 q 278 964 260 964 q 305 950 296 963 q 310 920 314 938 l 81 -22 q 61 -52 76 -40 q 28 -64 46 -64 z "},"":{"ha":342,"x_min":173,"x_max":522,"o":"m 468 793 q 434 819 440 793 q 396 936 420 889 l 385 958 q 252 814 340 924 q 212 793 235 793 q 191 800 201 793 q 178 837 173 813 q 189 859 180 848 q 295 980 253 938 q 406 1046 360 1046 q 475 987 445 1046 q 520 852 505 930 q 520 836 522 844 q 486 796 514 808 q 468 793 476 793 z "},"":{"ha":342,"x_min":211,"x_max":562,"o":"m 351 793 q 271 860 307 793 q 214 981 245 901 q 213 1003 211 991 q 242 1040 218 1026 q 266 1046 254 1046 q 298 1025 290 1046 q 370 881 342 909 q 390 903 375 888 q 477 1021 433 950 q 522 1047 495 1047 q 538 1044 530 1047 q 556 1004 562 1031 q 549 987 555 996 q 448 852 500 909 q 351 793 391 793 z "},"":{"ha":396,"x_min":186,"x_max":589,"o":"m 533 846 l 222 848 q 195 861 205 848 q 189 891 186 873 q 208 921 193 909 q 241 933 223 933 l 551 932 q 579 919 570 931 q 585 889 589 907 q 566 859 581 871 q 533 846 551 847 z "},"":{"ha":326,"x_min":197,"x_max":526,"o":"m 328 795 l 319 795 q 198 913 229 799 q 198 932 197 922 q 231 970 204 958 q 250 974 241 974 q 283 949 277 974 q 315 891 295 907 q 345 881 329 881 q 375 888 359 881 q 448 944 412 903 q 488 962 465 962 q 510 955 500 962 q 522 920 526 942 q 509 896 519 907 q 395 810 455 836 q 328 795 360 795 z "},"":{"ha":96,"x_min":185,"x_max":289,"o":"m 225 840 q 192 858 203 840 q 189 888 185 871 q 214 926 193 912 q 247 936 230 936 q 282 918 272 935 q 286 888 289 905 q 259 850 280 865 q 225 840 243 840 z "},"":{"ha":231,"x_min":170,"x_max":418,"o":"m 267 749 q 212 765 237 749 q 184 868 170 800 q 220 946 193 910 q 325 1003 266 1003 q 387 978 360 1003 q 418 897 417 946 q 415 867 418 882 q 384 804 408 834 q 298 753 348 765 q 267 749 282 749 m 286 834 q 302 838 291 834 q 330 867 325 846 q 329 889 331 875 q 318 912 327 903 q 306 918 312 918 q 286 904 296 918 q 269 863 275 890 q 268 852 269 860 q 274 838 267 844 q 286 834 279 834 z "},"":{"ha":178,"x_min":-20,"x_max":192,"o":"m 76 -227 q 54 -220 64 -227 q -12 -123 3 -178 q -13 -60 -20 -92 q 138 95 8 39 q 157 99 148 99 q 190 74 183 99 q 191 56 192 65 q 157 17 184 30 q 90 -26 111 -3 q 73 -58 76 -43 q 74 -87 70 -73 q 117 -149 83 -121 q 129 -184 133 -163 q 116 -208 126 -197 q 76 -227 99 -227 z "},"":{"ha":502,"x_min":179,"x_max":694,"o":"m 529 797 q 407 829 483 797 q 317 854 352 854 q 250 828 283 854 q 216 816 233 816 q 189 829 199 816 q 182 859 179 842 q 202 889 186 876 q 327 943 271 943 q 365 940 332 943 q 454 909 398 937 q 548 884 508 884 q 623 915 584 884 q 656 928 639 928 q 683 915 673 928 q 690 884 694 903 q 671 855 686 868 q 573 802 618 811 q 529 797 551 797 z "},"":{"ha":195,"x_min":175,"x_max":399,"o":"m 210 795 q 184 809 193 797 q 178 840 175 822 l 205 944 q 226 974 211 962 q 259 985 241 985 q 285 972 276 984 q 291 943 294 960 l 264 837 q 244 807 259 819 q 210 795 229 795 m 315 796 q 288 810 297 798 q 283 839 279 822 l 309 945 q 330 975 315 963 q 363 986 345 986 q 390 972 381 985 q 395 941 399 960 l 368 838 q 348 808 363 819 q 315 796 333 796 z "},"":{"ha":440,"x_min":53,"x_max":498,"o":"m 443 217 l 90 220 q 62 233 71 221 q 56 264 53 245 q 75 294 60 282 q 109 306 90 306 l 462 302 q 489 290 480 302 q 495 259 498 277 q 476 229 491 241 q 443 217 461 217 z "},"":{"ha":692,"x_min":53,"x_max":750,"o":"m 695 217 l 90 220 q 62 233 72 221 q 56 264 53 245 q 75 294 60 281 q 109 306 90 306 l 713 303 q 741 290 731 302 q 747 260 750 278 q 728 230 743 241 q 695 217 713 218 z "},"":{"ha":90,"x_min":174,"x_max":294,"o":"m 210 796 q 183 810 193 798 q 178 841 174 823 l 205 945 q 225 975 210 963 q 258 986 240 986 q 286 972 277 985 q 290 941 294 960 l 264 838 q 243 808 258 819 q 210 796 229 796 z "},"":{"ha":90,"x_min":175,"x_max":294,"o":"m 211 796 q 184 810 193 798 q 179 841 175 823 l 205 945 q 226 975 211 963 q 259 986 241 986 q 286 972 277 985 q 291 943 294 960 l 264 838 q 244 808 259 819 q 211 796 229 796 z "},"":{"ha":90,"x_min":-31,"x_max":88,"o":"m 6 -172 q -22 -160 -14 -172 q -28 -130 -31 -147 l -1 -24 q 19 6 4 -5 q 50 17 33 17 q 79 4 70 17 q 84 -25 88 -8 l 58 -132 q 38 -161 52 -149 q 6 -172 23 -172 z "},"":{"ha":194,"x_min":174,"x_max":398,"o":"m 210 795 q 183 809 193 797 q 178 838 174 821 l 205 944 q 225 974 210 962 q 258 985 240 985 q 285 971 276 984 q 290 941 294 959 l 263 837 q 243 807 258 819 q 210 795 228 795 m 314 796 q 288 810 296 798 q 283 841 279 823 l 309 945 q 329 975 314 963 q 362 986 345 986 q 389 972 380 985 q 394 941 398 960 l 368 838 q 347 808 362 819 q 314 796 332 796 z "},"":{"ha":195,"x_min":175,"x_max":399,"o":"m 210 795 q 184 809 193 797 q 178 840 175 822 l 205 944 q 226 974 211 962 q 259 985 241 985 q 285 972 276 984 q 290 943 294 960 l 264 837 q 244 807 259 819 q 210 795 229 795 m 315 796 q 288 810 297 798 q 283 839 279 822 l 309 945 q 330 975 315 963 q 363 986 345 986 q 390 972 381 985 q 395 941 399 960 l 368 838 q 348 808 363 819 q 315 796 333 796 z "},"":{"ha":193,"x_min":-31,"x_max":191,"o":"m 6 -172 q -22 -160 -13 -172 q -28 -130 -31 -147 l -1 -24 q 19 6 4 -5 q 50 17 33 17 q 79 4 70 17 q 84 -27 88 -9 l 58 -132 q 38 -161 52 -149 q 6 -172 23 -172 m 109 -172 q 79 -159 90 -172 q 75 -130 71 -147 l 102 -24 q 121 6 106 -5 q 153 17 136 17 q 181 4 172 17 q 186 -27 191 -9 l 160 -132 q 140 -161 155 -149 q 109 -172 125 -172 z "},"":{"ha":529,"x_min":90,"x_max":625,"o":"m 227 -93 q 200 -80 209 -92 q 195 -49 191 -67 l 303 397 l 127 399 q 99 411 109 399 q 94 441 90 423 q 113 472 98 460 q 146 484 127 484 l 323 483 l 370 671 q 389 701 374 689 q 422 713 404 713 q 449 699 440 711 q 454 669 458 686 l 409 482 l 589 480 q 616 467 606 479 q 622 437 625 455 q 603 407 617 419 q 570 395 588 395 l 389 396 l 280 -52 q 260 -81 275 -70 q 227 -93 245 -93 z "},"":{"ha":529,"x_min":30,"x_max":626,"o":"m 227 -93 q 200 -80 210 -92 q 195 -49 191 -67 l 234 112 l 66 114 q 39 126 49 114 q 33 157 30 138 q 53 187 38 175 q 85 199 67 199 l 255 198 l 303 397 l 127 399 q 100 411 109 399 q 94 441 90 423 q 113 472 98 460 q 146 484 127 484 l 324 483 l 370 671 q 389 701 374 689 q 422 713 404 713 q 449 699 440 711 q 455 669 458 686 l 410 482 l 589 480 q 616 467 607 479 q 622 437 626 455 q 603 407 618 419 q 570 395 588 395 l 389 396 l 340 197 l 528 195 q 556 182 547 195 q 562 153 565 170 q 543 122 557 134 q 509 110 528 110 l 319 111 l 280 -52 q 260 -81 275 -70 q 227 -93 245 -93 z "},"":{"ha":283,"x_min":54,"x_max":354,"o":"m 174 146 q 127 155 151 146 q 68 213 83 174 q 63 296 54 252 q 118 398 75 356 q 238 452 173 452 q 300 434 274 452 q 346 364 335 409 q 347 296 354 332 q 271 182 332 228 q 174 146 224 146 z "},"":{"ha":334,"x_min":26,"x_max":368,"o":"m 69 94 q 34 113 45 94 q 30 142 26 125 q 57 180 35 165 q 89 191 72 191 q 123 174 113 190 q 127 142 131 159 q 101 104 122 118 q 69 94 86 94 m 191 94 q 157 113 167 94 q 153 142 149 125 q 180 180 158 166 q 211 191 195 191 q 246 172 235 190 q 250 142 254 159 q 224 104 245 119 q 191 94 209 94 m 307 94 q 271 113 282 94 q 268 144 264 126 q 294 180 273 165 q 326 191 309 191 q 361 174 351 190 q 365 142 368 159 q 338 104 359 118 q 307 94 323 94 z "},"":{"ha":230,"x_min":53,"x_max":335,"o":"m 204 88 q 140 128 180 88 q 92 187 113 154 q 62 293 53 248 q 138 401 73 340 q 267 511 184 446 q 298 522 283 522 q 308 522 299 522 q 326 508 317 522 q 332 479 335 495 q 329 469 332 478 q 311 448 327 460 q 191 345 211 370 q 149 294 153 311 q 170 242 146 277 q 237 170 205 186 q 256 131 262 159 q 250 114 254 123 q 204 88 232 88 z "},"":{"ha":230,"x_min":28,"x_max":302,"o":"m 63 88 q 30 114 36 88 q 30 131 28 123 q 64 170 36 159 q 163 242 104 186 q 205 294 202 278 q 186 345 209 311 q 109 448 176 370 q 102 479 98 461 q 119 508 105 495 q 153 522 136 522 q 180 511 170 522 q 262 401 236 446 q 292 293 302 340 q 218 187 283 248 q 145 128 182 154 q 63 88 87 88 z "},"":{"ha":467,"x_min":-14,"x_max":632,"o":"m 26 -81 q 8 -77 17 -81 q -8 -37 -14 -64 q 0 -20 -6 -28 l 549 768 q 593 793 567 793 q 610 789 602 793 q 627 750 632 776 q 618 731 625 741 l 69 -57 q 26 -81 52 -81 z "},"":{"ha":662,"x_min":7,"x_max":804,"o":"m 180 -98 q 153 -84 162 -96 q 148 -54 144 -72 l 161 5 l 44 6 q 17 19 26 7 q 11 49 7 31 q 30 79 15 67 q 63 92 45 91 l 182 90 l 226 271 q 203 285 211 273 q 199 313 196 297 q 217 342 203 330 q 247 355 230 353 l 309 613 q 278 626 288 613 q 272 656 269 638 q 291 686 277 674 q 324 699 306 699 l 345 699 q 375 708 359 708 q 399 698 390 707 l 767 695 q 795 682 785 694 q 800 652 804 670 q 781 622 796 633 q 749 610 766 610 l 395 612 l 332 355 l 694 352 q 722 339 712 351 q 728 309 731 327 q 708 279 723 291 q 675 267 694 267 l 311 269 l 268 90 l 387 89 q 415 76 406 88 q 421 45 425 64 q 402 15 416 27 q 369 3 387 3 l 248 4 l 233 -56 q 213 -86 228 -74 q 180 -98 198 -98 z "},"":{"ha":465,"x_min":58,"x_max":568,"o":"m 99 -60 q 81 -54 89 -60 q 62 -20 58 -41 q 75 5 65 -9 q 177 230 151 108 l 181 252 q 130 264 155 264 q 101 260 115 264 q 89 258 95 258 q 62 280 66 258 q 62 292 61 286 q 145 333 71 333 q 189 326 168 333 q 189 357 189 342 q 150 364 169 364 q 123 361 136 364 q 110 359 116 359 q 83 380 87 359 q 83 393 82 387 q 114 425 88 416 q 163 433 139 433 q 183 432 174 433 q 190 501 182 469 q 213 566 197 536 q 330 680 258 646 q 409 697 370 697 q 533 631 488 697 q 568 517 563 587 q 567 505 568 511 q 527 464 560 473 q 514 462 520 462 q 493 469 504 462 q 481 493 482 476 q 456 575 476 545 q 390 611 431 611 q 353 603 372 611 q 290 541 313 585 q 275 502 280 523 q 273 437 269 473 q 275 403 275 420 q 347 385 317 385 q 389 395 368 385 q 407 400 398 400 q 433 383 427 400 q 434 366 436 375 q 411 336 430 347 q 335 316 371 316 q 275 326 304 316 q 273 296 275 311 q 327 285 303 285 q 367 295 347 285 q 385 300 377 300 q 412 283 405 300 q 413 265 414 274 q 390 236 409 246 q 313 216 351 216 q 261 222 286 216 q 199 56 243 139 q 357 83 274 80 q 457 54 416 83 q 469 18 473 40 q 456 -5 466 6 q 416 -24 439 -24 q 394 -17 404 -24 q 336 -1 372 -1 q 146 -47 270 -1 q 99 -60 113 -60 z "},"":{"ha":1634,"x_min":-3,"x_max":1701,"o":"m 56 -75 q 45 -74 54 -75 q 26 -60 35 -73 q 37 177 -3 -12 q 111 456 65 302 q 316 1078 197 747 q 298 1118 292 1090 q 305 1135 300 1126 q 380 1257 358 1217 q 408 1282 390 1274 q 427 1286 417 1286 q 441 1284 434 1286 q 461 1244 466 1273 q 456 1227 459 1236 q 294 767 374 998 q 527 1074 401 928 q 688 1219 610 1166 q 799 1258 747 1258 q 829 1255 814 1258 q 904 1177 886 1236 q 905 992 927 1097 q 764 715 873 844 q 237 428 578 496 l 229 427 q 206 434 217 427 q 194 458 195 441 q 111 152 137 271 q 104 -4 85 30 q 108 -33 111 -18 q 105 -43 107 -35 q 87 -63 102 -52 q 56 -75 71 -75 m 220 505 q 238 512 229 510 q 425 567 341 532 q 701 761 597 638 q 818 989 792 867 q 825 1122 834 1064 q 780 1173 816 1173 q 587 1025 718 1173 q 362 728 467 885 q 220 505 264 581 m 922 -90 q 836 35 842 -90 q 857 203 835 100 q 1081 906 919 473 l 920 892 q 899 901 907 892 q 894 926 890 909 q 916 955 898 945 q 963 972 921 958 q 1006 985 1000 985 q 1032 969 1025 985 l 1107 976 q 1192 1199 1173 1147 q 1215 1227 1198 1217 q 1241 1236 1227 1236 q 1273 1218 1264 1236 q 1276 1193 1279 1206 l 1197 984 q 1432 1005 1428 1005 q 1453 996 1444 1005 q 1457 970 1461 987 q 1445 948 1455 958 q 1420 937 1434 939 q 1171 914 1333 928 q 943 205 993 440 q 924 54 923 111 q 945 -4 924 -4 q 1012 37 964 -4 q 1242 299 1117 127 q 1284 323 1259 323 q 1303 318 1294 323 q 1318 280 1324 305 q 1202 122 1314 258 q 1061 -24 1135 40 q 922 -90 980 -90 m 1301 -90 l 1290 -90 q 1214 -77 1249 -90 q 1143 -26 1165 -58 q 1132 24 1126 0 q 1143 50 1133 31 q 1337 165 1164 94 l 1362 176 l 1357 214 q 1347 290 1356 218 q 1350 473 1334 398 q 1358 504 1353 488 q 1525 680 1394 624 q 1545 684 1535 684 q 1578 659 1571 684 q 1578 641 1580 650 q 1545 602 1573 615 q 1476 557 1501 584 q 1436 473 1447 524 q 1429 404 1429 443 q 1448 216 1428 357 q 1630 326 1562 269 q 1664 339 1646 339 q 1690 327 1680 339 q 1697 296 1701 314 q 1680 267 1694 279 q 1457 133 1596 196 q 1451 41 1461 83 q 1442 4 1450 33 q 1390 -58 1434 -24 q 1301 -90 1347 -88 m 1309 -4 q 1367 44 1356 -4 q 1370 94 1371 64 q 1251 43 1258 45 q 1222 26 1224 32 q 1253 5 1221 15 q 1309 -4 1285 -4 z "},"":{"ha":545,"x_min":61,"x_max":669,"o":"m 276 -89 q 234 -85 253 -89 q 132 0 155 -67 q 134 161 111 56 q 161 259 144 208 q 130 264 145 264 q 101 260 115 264 q 89 258 95 258 q 62 280 66 258 q 62 292 61 286 q 145 333 71 333 q 188 326 168 333 l 201 353 q 151 364 175 364 q 123 361 136 364 q 109 359 116 359 q 83 380 87 359 q 83 393 82 387 q 114 425 88 416 q 163 433 139 433 q 235 418 200 433 q 368 581 292 516 q 528 645 444 645 q 652 598 591 645 q 664 562 669 584 q 652 538 662 550 q 612 519 635 519 q 590 527 600 519 q 509 559 548 559 q 415 519 462 559 q 311 391 357 470 q 344 385 328 385 q 389 395 366 385 q 406 400 397 400 q 433 383 427 400 q 434 366 436 375 q 411 336 430 347 q 335 316 371 316 q 276 325 304 316 q 264 298 270 312 q 325 284 300 284 q 367 295 346 284 q 385 300 376 300 q 412 283 405 300 q 413 265 414 274 q 390 236 409 246 q 313 215 349 215 q 238 230 277 215 q 218 155 224 189 q 215 43 202 84 q 293 -3 231 -3 q 395 17 334 -3 q 410 19 404 19 q 445 -9 440 19 q 444 -24 446 -17 q 408 -64 438 -53 q 276 -89 331 -89 z "},"":{"ha":780,"x_min":-14,"x_max":813,"o":"m 371 -94 q 337 -66 342 -94 q 233 501 280 312 q 51 -85 89 -60 q 23 -94 38 -94 q -7 -78 2 -94 q -10 -48 -14 -66 q 174 607 68 186 q 210 666 185 648 q 237 675 223 675 q 256 671 243 675 q 313 557 283 662 q 395 147 349 422 l 544 668 q 565 696 550 686 q 595 707 579 707 q 625 693 615 707 q 629 664 632 681 l 562 427 q 474 123 553 401 l 422 -54 q 387 -92 414 -81 q 371 -94 378 -94 m 637 208 q 583 224 608 208 q 551 288 555 244 q 555 325 551 306 q 591 406 564 370 q 695 463 637 463 q 757 437 730 463 q 789 356 787 406 q 785 328 789 341 q 754 264 779 294 q 669 212 718 224 q 637 208 652 208 m 656 294 q 673 297 662 294 q 691 310 684 301 q 700 328 698 318 q 700 349 701 335 q 688 372 698 362 q 677 376 683 376 q 656 362 667 376 q 641 327 645 348 q 639 309 639 317 q 644 297 640 300 q 656 294 649 294 m 758 98 l 522 100 q 494 113 504 101 q 489 143 485 125 q 508 173 493 161 q 541 186 523 185 l 777 184 q 804 171 794 183 q 810 140 813 159 q 790 111 805 123 q 758 98 776 98 z "},"":{"ha":606,"x_min":172,"x_max":781,"o":"m 382 372 q 354 386 362 372 q 349 416 345 399 l 366 485 q 462 797 422 717 q 546 869 500 869 q 591 819 577 869 q 596 699 600 783 q 642 770 629 747 q 703 857 684 837 q 745 878 724 878 q 779 848 770 878 q 768 762 781 827 q 707 507 751 682 l 687 420 q 667 390 682 401 q 633 378 652 378 q 607 391 616 378 q 602 422 597 404 l 656 647 q 581 541 606 576 q 522 493 545 493 q 497 512 504 493 q 494 560 490 532 q 509 694 507 639 l 508 693 q 452 482 475 582 l 433 412 q 413 383 428 394 q 382 372 399 372 m 211 376 q 182 391 191 376 q 178 420 174 404 q 279 791 242 625 q 211 784 215 784 q 183 794 194 784 q 176 827 172 807 q 192 855 179 842 q 223 869 205 867 q 450 894 337 880 l 456 894 q 481 884 471 894 q 490 852 494 873 q 474 824 486 837 q 443 808 461 811 l 368 800 q 262 414 328 627 q 241 386 256 396 q 211 376 227 376 z "},"":{"ha":439,"x_min":20,"x_max":528,"o":"m 159 -78 q 126 -73 142 -78 q 23 66 36 -43 q 27 129 20 97 q 46 187 31 149 q 114 277 61 225 q 312 382 182 345 q 395 397 350 393 q 413 398 404 398 q 395 566 433 513 q 326 598 373 598 q 242 581 292 598 q 224 577 233 577 q 191 604 197 577 q 192 621 191 612 q 228 660 198 649 q 346 684 296 684 q 465 632 424 684 q 497 394 528 553 q 513 352 520 382 q 479 315 505 325 q 445 220 465 267 q 368 74 407 132 q 159 -78 266 -78 m 174 9 q 298 109 230 9 q 392 313 354 194 q 318 300 351 309 q 114 127 140 248 q 111 96 111 111 q 163 10 113 25 q 174 9 168 9 z "},"":{"ha":756,"x_min":-9,"x_max":754,"o":"m 699 -71 l 601 -71 q 28 -68 347 -68 q 0 -56 10 -68 q -5 -26 -9 -44 q 14 5 -1 -7 q 46 17 28 17 l 60 17 q 460 588 241 271 l 446 638 q 446 656 444 648 q 479 696 452 682 q 498 700 489 700 q 532 675 524 700 q 710 14 549 616 q 744 2 734 14 q 750 -28 754 -10 q 731 -59 745 -47 q 699 -71 717 -71 m 615 15 l 487 489 q 155 17 340 280 l 615 15 z "},"":{"ha":522,"x_min":-12,"x_max":659,"o":"m 457 -87 q 429 -75 439 -87 q 423 -45 419 -62 q 500 307 455 106 q 562 592 540 487 l 215 593 q 155 319 193 495 q 77 -41 106 91 q 58 -71 73 -59 q 24 -83 43 -83 q -3 -70 6 -82 q -8 -39 -12 -58 q 50 231 14 60 q 140 637 137 637 q 159 667 145 656 q 192 679 174 679 l 622 677 q 649 666 640 677 q 656 635 659 654 q 640 558 654 623 q 509 -45 531 60 q 490 -75 505 -62 q 457 -87 475 -87 z "},"":{"ha":459,"x_min":7,"x_max":587,"o":"m 150 -50 q 27 -37 50 -50 q 12 -5 7 -24 q 22 17 14 5 q 201 273 134 177 l 209 283 l 127 578 q 127 597 125 587 q 159 635 132 623 q 180 640 170 640 q 205 629 195 640 q 214 630 209 630 q 550 629 382 630 q 577 616 568 629 q 584 586 587 604 q 564 556 579 568 q 531 543 549 544 l 232 545 l 306 279 q 307 260 308 269 q 273 221 300 233 q 258 217 266 218 l 132 37 l 415 36 q 443 24 433 36 q 448 -7 452 12 q 430 -37 444 -25 q 396 -50 415 -49 l 264 -49 q 150 -50 187 -50 z "},"":{"ha":410,"x_min":60,"x_max":477,"o":"m 421 252 l 96 254 q 69 267 78 255 q 63 298 60 279 q 82 328 68 316 q 115 340 97 340 l 440 338 q 467 325 458 337 q 473 294 477 313 q 454 264 469 276 q 421 252 439 252 z "},"":{"ha":668,"x_min":92,"x_max":808,"o":"m 320 -89 q 281 -52 292 -89 q 273 35 275 -27 l 246 431 l 142 396 q 127 394 134 394 q 92 422 98 394 q 93 437 92 430 q 130 477 99 465 l 278 526 q 294 529 286 529 q 319 515 309 529 q 332 480 330 502 l 357 111 q 509 412 422 263 q 744 680 616 595 q 772 689 758 689 q 785 687 775 689 q 802 671 794 686 q 805 646 808 659 q 801 633 804 643 q 781 612 798 623 q 581 381 677 542 q 422 61 513 263 q 372 -46 393 -1 q 320 -89 349 -89 z "},"":{"ha":659,"x_min":45,"x_max":737,"o":"m 162 107 q 100 123 125 107 q 59 178 71 143 q 56 261 45 216 q 148 391 73 343 q 257 420 193 420 q 391 382 317 420 q 434 353 412 370 q 631 450 558 450 q 708 414 684 450 q 723 302 737 368 q 652 176 707 227 q 559 137 610 137 q 459 193 511 137 q 417 239 439 217 q 295 151 358 190 q 162 107 220 107 m 180 192 q 358 292 237 192 q 337 305 348 300 q 237 335 279 335 q 182 321 203 335 q 141 260 149 298 q 158 198 132 218 q 180 192 166 192 m 581 225 q 602 234 593 225 q 637 302 628 259 q 633 356 644 336 q 614 365 627 365 q 580 357 604 365 q 492 300 556 350 l 491 300 q 530 256 511 279 q 581 225 559 225 z "},"":{"ha":406,"x_min":-18,"x_max":663,"o":"m 52 -84 q -8 -38 -18 -84 q 22 0 -3 -13 q 43 5 33 5 q 55 3 49 5 l 60 3 q 121 69 89 3 q 188 263 157 146 q 251 516 220 381 q 297 708 274 614 q 377 972 332 852 q 482 1163 422 1093 q 624 1234 543 1234 q 653 1222 644 1234 q 659 1192 663 1209 q 639 1161 655 1173 q 606 1149 623 1149 q 519 1088 558 1149 q 382 705 453 987 q 336 515 358 609 q 271 252 304 375 q 198 46 238 130 q 52 -84 134 -84 z "},"":{"ha":442,"x_min":43,"x_max":528,"o":"m 356 157 q 322 159 352 157 q 241 186 292 161 q 165 206 197 206 q 113 186 139 206 q 80 174 97 174 q 53 187 63 174 q 46 218 43 200 q 66 248 50 235 q 176 295 126 295 q 210 292 181 295 q 288 267 239 290 q 366 245 334 245 q 426 269 395 245 q 460 282 441 282 q 487 270 477 282 q 493 238 497 257 q 475 210 490 222 q 356 157 409 157 m 388 302 q 353 305 384 302 q 272 332 323 307 q 197 352 228 352 q 144 332 170 352 q 113 320 128 320 q 83 332 94 320 q 77 363 73 346 q 96 393 81 380 q 208 440 158 440 q 241 438 212 440 q 319 412 269 435 q 397 391 365 391 q 457 415 426 391 q 490 428 473 428 q 517 415 507 428 q 524 385 528 403 q 505 355 520 368 q 388 302 441 302 z "},"":{"ha":412,"x_min":24,"x_max":492,"o":"m 406 202 q 357 208 385 202 q 191 263 278 225 q 85 366 74 317 q 220 467 95 416 q 443 545 296 498 q 458 547 450 547 q 491 517 487 547 q 490 503 492 510 q 452 463 484 473 q 233 386 312 418 q 193 366 194 371 q 212 355 192 361 q 391 292 319 308 q 424 288 413 288 l 431 288 q 456 278 446 288 q 464 245 468 265 q 448 217 460 230 q 406 202 432 202 m 385 82 l 60 85 q 33 98 43 85 q 27 128 24 110 q 46 158 32 146 q 79 170 61 170 l 404 168 q 432 155 422 167 q 437 125 441 142 q 418 94 433 106 q 385 82 404 82 z "},"":{"ha":412,"x_min":24,"x_max":494,"o":"m 92 202 q 56 218 66 202 q 52 245 49 230 q 75 278 56 265 q 104 288 88 288 l 111 288 q 145 292 121 288 q 350 355 222 308 q 375 366 374 361 q 343 386 376 371 q 156 463 278 418 q 136 485 140 469 q 136 504 134 494 q 168 543 141 530 q 187 547 178 547 q 201 545 194 547 q 390 467 328 498 q 484 366 494 416 q 332 263 473 317 q 143 208 230 225 q 92 202 113 202 m 62 82 q 34 94 43 82 q 28 125 24 106 q 46 155 32 142 q 79 168 61 167 l 405 170 q 433 158 423 170 q 439 128 442 146 q 420 98 435 110 q 387 85 406 85 l 62 82 z "},"":{"ha":2060,"x_min":2,"x_max":2109,"o":"m 102 -26 q 72 -20 85 -26 q 24 35 39 -5 q 24 200 2 97 q 154 489 56 352 q 455 694 281 665 q 505 699 479 699 q 601 686 551 699 q 625 666 618 681 q 626 644 628 655 q 595 604 620 617 q 572 598 584 598 q 562 600 567 598 q 492 608 526 608 q 454 606 473 608 q 312 540 376 592 q 159 334 217 463 q 113 199 126 262 q 104 144 106 170 q 134 60 99 60 q 251 145 172 60 q 530 539 359 262 q 578 567 548 567 q 593 564 585 567 q 613 523 619 552 l 610 515 q 551 317 568 401 l 545 288 q 596 76 511 121 q 669 63 627 63 q 1093 117 768 63 q 1379 160 1237 140 q 1651 181 1536 181 q 1888 97 1855 181 q 1890 75 1892 86 q 1860 37 1885 50 q 1836 31 1847 31 q 1802 52 1811 31 q 1651 96 1784 96 q 1372 72 1545 96 q 1088 29 1232 52 q 711 -22 871 -8 q 663 -24 686 -24 q 552 -8 601 -24 q 451 122 468 25 q 454 278 439 198 q 298 92 368 160 q 102 -26 180 -26 m 1906 91 q 1902 91 1904 91 q 1894 109 1899 92 q 1892 220 1881 164 q 1919 278 1900 254 q 1972 309 1944 309 q 2000 293 1988 309 q 2004 232 2012 277 q 2069 258 2043 258 l 2083 258 q 2104 240 2096 258 q 2106 217 2109 230 q 2092 186 2104 206 q 2037 138 2081 165 q 1960 102 1999 115 q 1906 91 1925 91 z "},"":{"ha":1896,"x_min":-15,"x_max":1976,"o":"m 226 -45 q 195 -38 209 -45 q 157 20 162 -22 q 159 57 155 37 q 227 171 171 111 q 372 255 302 252 l 384 256 q 408 254 396 256 l 425 290 q 457 387 436 318 q 482 483 472 435 q 473 626 512 626 q 416 587 456 626 q 317 466 372 541 q 96 61 176 268 q 75 1 81 17 q 54 -25 68 -15 q 23 -35 39 -35 q -7 -18 2 -35 q -12 10 -15 -5 l 3 68 q 77 359 23 159 q 387 1270 191 789 q 412 1298 395 1288 q 439 1305 425 1305 q 472 1286 463 1305 q 474 1260 477 1274 l 471 1252 q 179 405 290 806 q 486 704 363 704 q 522 696 505 704 q 568 457 608 652 q 481 214 541 331 q 536 208 500 208 q 962 262 641 208 q 1520 326 1352 326 q 1757 242 1723 326 q 1758 220 1761 231 q 1728 181 1753 195 q 1704 175 1715 175 q 1670 197 1679 175 q 1514 241 1652 241 q 1240 217 1412 241 q 957 174 1101 197 q 581 123 740 136 q 524 121 550 121 q 435 131 470 121 q 226 -45 327 -45 m 250 46 q 264 52 254 46 q 361 166 307 75 q 288 118 332 165 q 245 55 251 79 q 250 46 244 46 m 1774 236 l 1770 236 q 1761 254 1765 237 q 1755 299 1756 272 q 1758 361 1752 333 q 1786 423 1767 399 q 1839 454 1811 454 q 1867 438 1855 454 q 1870 377 1879 422 q 1937 404 1910 404 q 1971 385 1963 404 q 1973 361 1976 375 q 1960 331 1971 351 q 1904 283 1948 311 q 1827 247 1865 260 q 1774 236 1792 236 z "},"":{"ha":2038,"x_min":24,"x_max":2092,"o":"m 2019 91 l 2016 91 q 1965 103 1997 91 q 1905 138 1934 115 q 1870 216 1861 176 q 1881 240 1872 230 q 1925 258 1897 258 q 1979 232 1950 258 q 2011 295 1990 277 q 2043 309 2027 309 q 2083 277 2071 309 q 2084 216 2092 254 q 2036 109 2072 162 q 2019 91 2024 92 m 239 -23 q 171 -19 209 -23 q 97 5 133 -15 q 43 66 62 25 q 27 174 24 106 q 36 232 29 202 q 156 488 62 356 q 354 670 245 612 q 453 696 405 696 q 536 645 519 693 q 540 586 546 616 q 516 528 534 558 q 488 503 505 510 q 469 498 478 498 q 453 502 461 498 q 433 525 437 509 q 433 543 431 534 q 439 559 435 551 q 450 585 448 573 q 433 606 455 606 q 384 595 410 606 q 227 447 304 554 q 151 313 181 383 q 125 231 133 271 q 119 187 120 209 q 156 86 116 112 q 256 64 189 64 q 302 66 278 64 q 666 117 448 81 q 951 160 809 140 q 1223 181 1109 181 q 1461 97 1428 181 q 1462 75 1465 86 q 1432 37 1457 50 q 1409 31 1419 31 q 1374 52 1383 31 q 1223 96 1356 96 q 945 72 1117 96 q 661 29 804 52 q 284 -22 444 -8 q 239 -23 261 -23 m 1478 91 q 1459 154 1463 91 q 1463 220 1457 189 q 1491 278 1471 254 q 1544 309 1515 309 q 1571 293 1559 309 q 1575 232 1584 277 q 1640 258 1615 258 l 1655 258 q 1676 240 1668 258 q 1677 217 1680 230 q 1664 186 1675 206 q 1608 138 1653 165 q 1531 102 1569 115 q 1478 91 1496 91 z "},"":{"ha":2079,"x_min":2,"x_max":2127,"o":"m 106 -27 q 24 35 45 -27 q 24 200 2 97 q 76 355 39 273 q 170 512 113 437 q 299 637 227 587 q 471 695 383 695 q 563 670 549 695 q 568 643 570 658 q 729 1053 627 827 q 836 1256 781 1164 q 882 1284 854 1284 q 899 1280 891 1284 q 919 1240 924 1268 q 911 1223 917 1232 q 815 1038 863 1141 q 669 675 727 842 q 587 396 612 514 q 568 188 560 269 q 680 68 578 88 q 760 60 717 60 q 1010 97 837 60 q 1398 160 1127 123 q 1671 181 1556 181 q 1908 97 1874 181 q 1910 75 1912 86 q 1879 37 1904 50 q 1855 31 1867 31 q 1822 52 1831 31 q 1670 96 1804 96 q 1392 72 1565 96 q 1007 11 1145 37 q 734 -25 825 -25 q 642 -18 686 -25 q 477 153 500 7 q 483 304 470 220 l 485 319 q 302 97 381 180 q 182 -3 243 34 q 106 -27 142 -27 m 134 60 q 176 77 149 60 q 389 318 241 117 q 514 504 470 427 q 555 604 535 543 q 564 632 558 617 q 537 604 555 614 q 513 597 526 597 q 503 599 508 597 q 456 605 479 605 q 339 564 398 605 q 233 459 279 522 q 113 199 141 334 q 104 144 106 170 q 134 60 98 60 m 1925 91 q 1906 154 1910 91 q 1910 219 1904 189 q 1938 278 1918 254 q 1990 309 1963 309 q 2018 293 2006 309 q 2022 232 2030 277 q 2087 258 2062 258 l 2102 258 q 2123 240 2115 258 q 2125 217 2127 230 q 2111 186 2122 206 q 2056 138 2100 165 q 1978 102 2017 115 q 1925 91 1944 91 z "},"":{"ha":1632,"x_min":1,"x_max":1681,"o":"m 236 -23 q 180 -21 212 -23 q 115 -3 148 -18 q 43 252 1 56 q 68 336 52 295 q 184 547 117 454 q 344 698 276 670 q 399 711 374 711 q 469 659 456 711 q 469 598 475 629 q 359 437 452 519 q 155 323 274 363 q 130 245 139 286 q 121 185 124 216 q 240 63 114 63 q 666 117 341 63 q 951 160 809 140 q 1223 181 1109 181 q 1461 97 1428 181 q 1462 75 1465 86 q 1432 37 1457 50 q 1409 31 1419 31 q 1374 52 1383 31 q 1223 96 1356 96 q 945 72 1117 96 q 661 29 804 52 q 284 -22 444 -8 q 236 -23 259 -23 m 209 434 q 225 442 217 437 q 307 498 271 467 q 382 606 369 553 q 381 619 385 615 q 377 621 380 621 q 367 618 373 621 q 256 507 326 602 q 209 434 231 473 m 1478 91 q 1459 154 1463 91 q 1463 220 1457 189 q 1491 278 1471 254 q 1544 309 1515 309 q 1571 293 1559 309 q 1575 232 1584 277 q 1640 258 1615 258 l 1655 258 q 1676 240 1668 258 q 1678 217 1681 230 q 1664 186 1675 206 q 1608 138 1653 165 q 1531 102 1569 115 q 1478 91 1496 91 z "},"":{"ha":1587,"x_min":-205,"x_max":1657,"o":"m -100 -842 q -172 -803 -144 -842 q -203 -694 -199 -765 q -173 -443 -205 -593 q -156 -369 -165 -408 q 47 271 -78 -62 q 184 619 119 465 q 305 876 265 811 q 351 904 323 904 q 368 901 360 904 q 388 860 393 888 q 380 842 386 852 q 267 600 344 782 q 102 176 187 411 q 129 184 116 184 q 153 176 141 184 q 217 164 169 164 q 642 218 321 164 q 928 261 787 242 q 1206 282 1086 282 q 1438 199 1404 282 q 1440 176 1442 188 q 1409 138 1434 152 q 1385 132 1396 132 q 1352 154 1360 132 q 1202 197 1333 197 q 638 130 1043 197 q 261 80 420 93 q 203 78 230 78 l 189 78 q 214 -63 210 -3 q 187 -393 223 -215 q 48 -736 143 -602 q -100 -842 -31 -842 m -83 -751 q -23 -696 -64 -751 q 96 -401 58 -583 q 123 -86 132 -233 q 82 96 117 31 q 77 105 79 100 q -67 -372 -11 -148 q -83 -441 -76 -408 q -112 -672 -113 -581 q -83 -751 -111 -749 m 1453 192 q 1436 255 1440 192 q 1440 321 1434 290 q 1467 380 1448 356 q 1520 410 1492 410 q 1552 333 1566 410 q 1619 360 1592 360 q 1653 342 1645 360 q 1655 319 1657 332 q 1641 288 1652 308 q 1586 239 1630 267 q 1508 203 1547 216 q 1453 192 1472 192 z "},"":{"ha":1918,"x_min":-142,"x_max":1880,"o":"m -39 -840 q -120 -770 -96 -837 q -120 -598 -142 -702 q -75 -458 -106 -534 q 70 -234 -19 -330 q 357 -15 181 -112 q 450 274 412 146 q 298 91 380 176 q 103 -27 180 -27 q 72 -20 85 -27 q 23 35 38 -5 q 22 197 1 96 q 76 355 39 271 q 154 489 108 425 q 455 694 280 665 q 505 699 479 699 q 600 686 551 699 q 624 665 617 681 q 625 642 628 655 q 595 604 620 617 q 571 597 583 597 q 561 599 566 597 q 491 608 525 608 q 454 605 472 608 q 224 446 322 583 q 113 201 140 329 q 104 144 106 172 q 134 60 98 60 q 250 144 172 60 q 429 381 347 253 q 526 533 481 458 q 575 568 543 568 q 592 564 584 568 q 612 522 619 554 l 611 517 q 562 357 585 437 q 457 17 532 242 q 527 22 488 22 q 579 20 552 22 q 935 -31 733 6 q 1200 -74 1068 -54 q 1468 -98 1363 -98 q 1638 -54 1602 -98 q 1682 -33 1656 -33 q 1703 -39 1693 -33 q 1716 -77 1722 -52 q 1706 -99 1714 -88 q 1433 -183 1636 -183 q 1169 -161 1318 -183 q 902 -119 1036 -142 q 500 -65 599 -65 q 430 -76 452 -65 q 425 -79 427 -78 q -39 -840 161 -837 m -16 -749 q 9 -736 -7 -749 q 88 -637 44 -707 q 315 -134 197 -460 q 132 -284 208 -201 q 8 -477 56 -367 q -31 -598 -19 -543 q -35 -726 -47 -675 q -16 -749 -29 -749 m 1698 -311 q 1657 -279 1670 -311 q 1656 -222 1649 -256 q 1705 -111 1670 -163 q 1725 -93 1717 -93 q 1775 -105 1744 -93 q 1836 -140 1807 -117 q 1871 -219 1880 -178 q 1860 -242 1868 -232 q 1816 -260 1844 -260 q 1763 -234 1790 -260 q 1730 -297 1752 -279 q 1698 -311 1714 -311 z "},"":{"ha":1980,"x_min":-19,"x_max":2029,"o":"m 18 -41 q -12 -24 -3 -41 q -16 3 -19 -13 q 66 326 33 203 q 234 852 123 541 q 393 1253 303 1044 q 418 1280 401 1271 q 444 1287 431 1287 q 477 1267 469 1287 q 479 1243 481 1256 l 476 1234 q 319 837 382 1015 q 169 374 224 570 q 469 700 356 700 q 488 697 479 700 q 545 580 545 681 q 526 456 540 519 q 511 393 519 425 q 491 309 501 355 q 478 239 485 279 q 477 156 471 199 q 526 75 486 91 q 594 63 553 63 q 1015 117 696 63 q 1300 159 1158 140 q 1578 180 1458 180 q 1809 97 1776 180 q 1811 75 1813 86 q 1781 36 1806 50 q 1756 30 1768 30 q 1723 52 1732 30 q 1567 96 1705 96 q 1010 28 1417 96 q 633 -22 792 -9 q 589 -24 610 -24 q 476 -3 523 -24 q 390 128 410 26 q 388 233 381 177 q 410 358 395 288 q 425 422 416 389 q 440 487 434 456 q 448 610 467 610 q 415 584 439 610 q 135 134 293 457 q 71 -3 98 59 q 49 -32 64 -22 q 18 -41 35 -41 m 1827 91 q 1808 154 1812 91 q 1812 220 1806 189 q 1839 278 1820 254 q 1892 309 1864 309 q 1920 293 1908 309 q 1924 232 1932 277 q 1990 258 1964 258 q 2024 240 2016 258 q 2026 217 2029 230 q 2012 186 2024 206 q 1957 137 2001 165 q 1880 102 1919 115 q 1827 91 1845 91 z "},"":{"ha":1609,"x_min":1,"x_max":1658,"o":"m 1456 91 l 1452 91 q 1443 109 1448 92 q 1441 220 1430 164 q 1468 278 1449 254 q 1521 309 1493 309 q 1549 293 1537 309 q 1553 232 1561 277 q 1619 258 1593 258 q 1653 240 1646 258 q 1655 217 1658 230 q 1642 186 1653 206 q 1586 137 1630 165 q 1509 102 1548 115 q 1456 91 1475 91 m 342 724 l 338 724 q 330 742 334 724 q 328 852 315 797 q 354 911 335 887 q 407 941 379 941 q 435 925 423 941 q 439 865 447 909 q 505 891 479 891 q 540 873 532 891 q 541 850 544 863 q 528 819 539 839 q 472 770 516 798 q 395 734 433 747 q 342 724 361 724 m 268 -26 q 35 197 1 -26 l 41 231 q 252 670 79 410 q 297 696 270 696 q 315 692 307 696 q 333 652 338 680 q 326 634 331 643 q 220 458 262 538 q 127 231 146 321 q 139 111 111 156 q 283 60 170 60 q 465 75 359 60 q 711 117 611 96 q 959 160 836 141 q 1207 180 1092 180 q 1438 97 1405 180 q 1440 75 1442 86 q 1410 36 1435 50 q 1385 30 1397 30 q 1352 52 1361 30 q 1196 96 1334 96 q 958 74 1101 96 q 699 29 772 45 q 268 -26 401 -26 z "},"":{"ha":1503,"x_min":-530,"x_max":1466,"o":"m -436 -840 l -439 -840 q -527 -728 -521 -837 q -515 -593 -530 -662 q -480 -479 -504 -537 q -321 -226 -422 -337 q -43 -14 -214 -109 q 65 321 18 165 q 159 647 113 484 q 180 677 165 666 q 212 688 195 688 q 243 673 233 688 q 247 642 251 661 q 60 18 145 277 q 109 20 83 20 q 165 18 136 20 q 521 -33 319 5 q 1055 -100 897 -100 q 1224 -56 1187 -100 q 1267 -34 1243 -34 q 1288 -40 1278 -34 q 1302 -79 1308 -54 q 1291 -101 1299 -90 q 1018 -184 1221 -184 q 755 -163 904 -184 q 488 -121 621 -144 q 85 -66 190 -66 q 28 -73 50 -66 q -50 -284 -5 -168 q -217 -644 -131 -495 q -310 -771 -262 -722 q -436 -840 -378 -840 m -414 -749 q -371 -721 -399 -749 q -294 -612 -335 -684 q -85 -134 -195 -439 q -399 -502 -308 -273 q -427 -591 -418 -547 q -436 -703 -439 -648 q -414 -749 -434 -749 m 1282 -313 q 1243 -281 1255 -313 q 1242 -220 1234 -258 q 1291 -113 1255 -165 q 1311 -94 1303 -94 q 1361 -106 1330 -94 q 1421 -141 1392 -118 q 1457 -220 1466 -179 q 1444 -244 1454 -233 q 1403 -262 1430 -262 q 1348 -235 1377 -262 q 1315 -299 1337 -281 q 1282 -313 1299 -313 m 212 724 q 172 771 198 724 q 150 874 140 827 q 158 898 151 880 q 184 928 164 916 q 210 937 197 937 q 233 929 218 937 q 258 881 248 922 q 335 933 298 933 q 355 926 347 933 q 366 880 373 912 q 328 814 360 852 q 265 754 298 779 q 212 724 231 730 z "},"":{"ha":1754,"x_min":-19,"x_max":1803,"o":"m 18 -41 q -12 -24 -3 -41 q -15 6 -19 -12 q -2 58 -11 18 q 234 852 84 429 q 393 1253 309 1061 q 418 1280 401 1271 q 444 1287 431 1287 q 477 1267 469 1287 q 479 1243 482 1256 l 477 1234 q 319 837 395 1048 q 169 374 224 570 q 211 443 191 410 q 497 701 327 620 q 518 705 508 705 q 553 682 545 705 q 553 661 555 671 q 521 621 547 635 q 389 531 446 585 q 242 291 269 418 q 254 125 222 199 q 311 69 275 80 q 376 62 336 62 q 484 71 420 62 q 743 109 632 89 q 1352 180 1156 180 q 1584 97 1551 180 q 1586 74 1588 86 q 1555 36 1581 50 q 1531 30 1543 30 q 1497 52 1507 30 q 1341 96 1479 96 q 1067 72 1244 96 q 732 20 850 41 q 471 -18 614 -1 q 370 -24 415 -24 q 270 -14 311 -24 q 174 68 209 1 q 152 168 153 111 q 72 -3 94 53 q 49 -32 64 -22 q 18 -41 35 -41 m 1601 91 l 1597 91 q 1589 109 1593 92 q 1582 154 1584 127 q 1586 216 1580 188 q 1613 278 1594 254 q 1666 309 1638 309 q 1695 293 1683 309 q 1698 232 1707 277 q 1765 258 1739 258 q 1799 240 1791 258 q 1801 216 1803 230 q 1787 185 1799 205 q 1731 137 1776 165 q 1655 102 1693 115 q 1601 91 1620 91 z "},"":{"ha":1681,"x_min":43,"x_max":1729,"o":"m 1527 91 l 1523 91 q 1515 109 1519 92 q 1508 154 1510 127 q 1512 216 1506 188 q 1539 278 1520 254 q 1592 309 1565 309 q 1620 293 1608 309 q 1624 232 1632 277 q 1691 258 1664 258 q 1725 240 1717 258 q 1727 216 1729 230 q 1713 185 1725 205 q 1657 137 1702 165 q 1580 102 1619 115 q 1527 91 1546 91 m 328 -26 q 288 -25 308 -26 q 72 127 115 -14 q 83 428 43 242 q 128 595 99 505 q 275 991 199 808 q 366 1203 330 1122 q 388 1252 379 1232 q 413 1280 396 1271 q 439 1287 426 1287 q 472 1267 464 1287 q 474 1243 477 1256 q 448 1179 472 1235 q 209 580 304 868 q 165 420 181 492 q 144 264 148 336 q 214 91 138 134 q 355 62 266 62 q 622 99 452 62 q 1000 159 750 126 q 1278 180 1160 180 q 1510 97 1478 180 q 1512 75 1514 86 q 1481 36 1506 50 q 1457 30 1468 30 q 1423 52 1433 30 q 1267 96 1405 96 q 994 72 1171 96 q 612 11 753 38 q 328 -26 431 -26 z "},"":{"ha":2234,"x_min":-14,"x_max":2283,"o":"m 33 -23 q -1 -12 12 -23 q -11 20 -14 -1 l -7 35 q -2 62 -4 49 q 4 96 0 76 q 17 150 9 117 q 90 422 62 326 q 111 453 95 441 q 144 464 126 464 q 176 445 166 464 q 252 580 217 528 q 380 683 321 683 q 431 652 415 683 q 420 317 468 581 q 612 613 515 496 q 758 708 694 708 q 777 705 768 708 q 814 554 842 683 q 777 423 802 494 q 737 291 747 335 q 770 85 705 137 q 828 67 794 68 l 846 67 q 1269 121 949 67 q 1826 185 1659 185 q 2064 101 2030 185 q 2065 78 2068 90 q 2035 40 2060 54 q 2011 34 2022 34 q 1978 56 1986 34 q 1822 100 1960 100 q 1548 76 1718 100 q 1264 33 1408 56 q 887 -18 1047 -5 q 831 -20 859 -20 q 769 -16 805 -20 q 699 12 733 -12 q 639 136 645 56 q 651 294 632 205 q 700 464 664 355 q 736 585 729 551 q 733 617 743 617 q 677 565 722 617 q 517 321 599 470 l 496 284 q 357 15 391 103 q 334 -14 350 -3 q 304 -22 319 -22 q 273 -6 284 -22 q 271 25 267 7 q 299 137 286 77 q 321 250 313 199 l 335 316 q 367 548 362 444 q 361 592 368 592 q 340 566 357 592 q 326 543 334 555 q 213 329 277 470 q 87 9 172 237 q 65 -15 81 -7 q 33 -23 50 -23 m 2081 95 q 2076 95 2079 95 q 2068 113 2073 96 q 2062 158 2064 131 q 2067 224 2060 193 q 2094 282 2075 258 q 2146 313 2118 313 q 2175 297 2163 313 q 2178 236 2186 281 q 2245 262 2218 262 q 2279 244 2271 262 q 2281 221 2283 234 q 2267 190 2279 210 q 2211 141 2256 170 q 2134 106 2172 119 q 2081 95 2100 95 z "},"":{"ha":1954,"x_min":-39,"x_max":2004,"o":"m 566 -20 q 347 180 343 -20 q 363 308 348 235 q 385 396 374 354 q 427 553 415 498 q 434 621 440 616 l 433 621 q 401 600 425 621 q 157 237 302 507 q 70 59 90 109 l 57 29 q 2 -20 35 -20 q -31 -3 -20 -20 q -35 26 -39 8 q 41 254 -34 34 q 112 460 80 364 q 134 490 119 479 q 166 500 149 500 q 200 473 194 500 l 212 491 q 451 710 354 710 q 487 703 469 710 q 525 596 538 675 l 521 576 q 480 431 511 531 q 445 298 456 349 q 434 204 435 251 q 479 88 433 115 q 574 67 511 67 q 626 70 598 67 q 989 121 772 84 q 1548 185 1381 185 q 1785 101 1752 185 q 1786 79 1789 90 q 1756 40 1781 54 q 1732 34 1744 34 q 1699 56 1708 34 q 1542 100 1681 100 q 1269 76 1440 100 q 985 33 1129 56 q 608 -18 768 -5 q 566 -20 586 -20 m 1803 95 l 1799 95 q 1789 113 1794 96 q 1783 158 1785 131 q 1787 220 1781 192 q 1814 282 1795 258 q 1867 313 1839 313 q 1895 297 1883 313 q 1899 236 1907 281 q 1965 262 1939 262 q 2000 244 1992 262 q 2001 220 2004 234 q 1988 190 1999 210 q 1932 141 1976 170 q 1855 106 1893 119 q 1803 95 1821 95 z "},"":{"ha":1714,"x_min":0,"x_max":1768,"o":"m 114 -29 q 8 70 28 -29 q 14 177 0 114 q 60 315 27 241 q 85 342 68 333 q 111 349 98 349 l 118 349 l 122 368 q 159 490 136 431 q 281 651 194 581 q 416 705 355 705 q 509 660 476 705 q 524 488 549 605 q 500 409 515 450 q 431 257 471 328 q 313 89 390 181 l 323 89 q 753 143 431 89 q 1039 186 897 167 q 1312 207 1197 207 q 1549 123 1514 207 q 1550 101 1552 112 q 1520 62 1545 77 q 1496 56 1508 56 q 1462 78 1472 56 q 1311 122 1444 122 q 749 55 1154 122 q 372 5 532 18 q 315 3 341 3 q 228 12 262 3 q 114 -29 172 -29 m 235 124 q 351 283 297 189 q 416 425 388 347 q 435 488 428 458 q 442 551 441 521 q 396 615 441 615 q 327 585 368 615 q 243 472 269 538 q 212 369 222 420 q 235 124 175 197 m 134 60 q 156 64 143 60 q 107 198 116 115 l 104 183 q 99 101 93 133 q 134 60 104 60 m 1566 117 q 1547 180 1551 117 q 1552 246 1545 215 q 1578 304 1559 281 q 1630 335 1603 335 q 1663 258 1677 335 q 1729 285 1703 285 q 1764 267 1756 285 q 1765 243 1768 256 q 1752 212 1763 233 q 1696 163 1740 191 q 1619 128 1657 140 q 1566 117 1584 117 z "},"":{"ha":1957,"x_min":-299,"x_max":2038,"o":"m -258 -833 q -291 -817 -280 -833 q -295 -783 -299 -804 q -243 -611 -291 -766 q 102 432 -126 -234 q 126 462 109 451 q 155 471 139 471 q 186 454 176 471 q 190 427 193 441 l 189 420 q 120 220 157 329 q 162 300 141 261 q 398 634 273 504 q 535 708 473 708 q 570 700 554 708 q 616 456 658 656 q 533 224 591 340 q 599 214 551 214 q 1023 268 703 214 q 1309 311 1166 292 q 1581 332 1467 332 q 1819 248 1785 332 q 1820 225 1822 237 q 1790 187 1815 201 q 1765 181 1777 181 q 1732 203 1741 181 q 1576 248 1714 248 q 1302 223 1474 248 q 1019 180 1162 203 q 642 130 802 143 q 587 127 612 127 q 488 140 524 127 q 433 60 461 97 q 348 -18 399 17 q 275 -43 308 -43 q 237 -34 255 -43 q 206 22 210 -17 q 209 57 205 38 q 231 114 214 83 q 342 232 273 189 q 433 260 388 260 q 457 258 445 260 q 507 391 480 307 q 531 487 521 439 q 530 627 557 607 q 522 630 527 630 q 464 590 504 630 q 241 275 345 466 q 99 -15 164 133 q -103 -522 12 -215 q -208 -798 -153 -660 q -258 -833 -223 -833 m 299 50 q 314 56 303 50 q 410 170 356 79 q 336 122 380 169 q 295 59 300 84 q 299 50 293 50 m 1836 242 l 1832 242 q 1823 260 1827 243 q 1817 305 1818 278 q 1820 368 1814 339 q 1847 429 1828 405 q 1900 460 1872 460 q 1929 444 1917 460 q 1933 383 1941 428 q 1999 410 1973 410 q 2034 391 2025 410 q 2035 368 2038 381 q 2021 337 2032 357 q 1966 289 2010 317 q 1889 253 1927 266 q 1836 242 1854 242 z "},"":{"ha":1977,"x_min":5,"x_max":2047,"o":"m 1845 193 q 1826 256 1830 193 q 1830 318 1824 290 q 1858 380 1838 355 q 1910 410 1883 410 q 1939 394 1926 410 q 1942 334 1951 378 q 2007 360 1982 360 l 2022 360 q 2043 342 2035 360 q 2045 318 2047 332 q 2031 287 2042 307 q 1976 239 2020 267 q 1899 204 1937 216 q 1845 193 1864 193 m 290 -838 q 217 -426 130 -838 q 413 223 288 -117 q 302 95 360 154 q 107 -23 182 -23 q 75 -16 90 -23 q 28 39 42 -1 q 27 203 5 101 q 158 493 59 355 q 458 699 284 669 q 509 703 483 703 q 605 690 555 703 q 633 698 619 698 q 652 694 643 698 q 675 661 680 685 l 672 652 q 490 176 596 476 q 519 184 503 184 q 543 176 532 184 q 609 165 559 165 q 1033 218 707 165 q 1318 262 1177 242 q 1591 283 1476 283 q 1828 199 1794 283 q 1830 177 1832 188 q 1799 138 1824 151 q 1775 132 1787 132 q 1742 154 1751 132 q 1590 198 1724 198 q 1312 174 1485 198 q 1029 131 1172 154 q 600 79 724 79 l 585 79 q 606 -80 603 5 q 575 -395 608 -242 q 437 -732 532 -599 q 290 -838 359 -838 m 138 64 q 255 149 176 64 q 520 522 373 280 q 541 557 533 542 l 561 604 q 496 612 528 612 q 458 609 477 612 q 315 544 379 596 q 162 338 221 467 q 117 205 130 267 q 109 148 111 176 q 138 64 102 64 m 307 -747 q 366 -692 326 -747 q 486 -397 448 -576 q 512 -83 520 -224 q 490 56 508 -2 q 467 109 484 75 q 305 -441 354 -212 q 277 -669 276 -578 q 307 -747 279 -745 z "},"":{"ha":1999,"x_min":-28,"x_max":2087,"o":"m 1883 273 q 1866 336 1870 273 q 1870 403 1864 372 q 1897 461 1878 437 q 1950 492 1922 492 q 1982 414 1996 492 q 2048 441 2022 441 q 2083 423 2075 441 q 2084 400 2087 413 q 2070 369 2082 389 q 2015 320 2059 349 q 1938 285 1976 298 q 1883 273 1902 273 m 9 -34 q -20 -19 -9 -34 q -24 12 -28 -6 q 39 235 -20 35 q 98 444 75 361 q 119 474 104 463 q 152 486 134 486 q 186 461 178 486 l 193 472 q 388 699 300 657 q 431 710 412 710 q 447 708 439 710 q 488 562 500 696 q 550 288 472 349 q 711 245 604 245 q 772 248 741 245 q 971 281 873 260 q 1358 342 1095 307 q 1636 363 1516 363 q 1868 280 1834 363 q 1869 258 1872 269 q 1839 219 1864 233 q 1815 213 1826 213 q 1782 235 1790 213 q 1631 279 1763 279 q 1351 255 1525 279 q 982 197 1128 224 q 697 162 798 162 q 594 171 643 162 q 412 330 455 199 q 397 549 387 416 q 399 561 397 553 q 396 606 406 606 q 380 595 391 606 q 159 229 284 496 q 62 4 90 84 q 41 -24 56 -14 q 9 -34 26 -34 z "},"":{"ha":1603,"x_min":-31,"x_max":1677,"o":"m 1475 208 q 1456 271 1460 208 q 1460 334 1454 305 q 1487 395 1468 372 q 1539 427 1512 427 q 1568 410 1556 427 q 1571 349 1580 394 q 1638 376 1612 376 q 1672 358 1665 376 q 1674 334 1677 347 q 1661 303 1672 323 q 1605 255 1649 283 q 1529 220 1567 232 q 1475 208 1493 208 m 51 -54 q -2 -30 20 -54 q -18 66 -31 7 q 41 166 -4 128 q 86 191 62 183 q 65 359 81 241 q 68 513 55 448 q 121 633 84 588 q 264 709 184 709 q 355 670 318 709 q 384 561 392 631 q 383 555 384 558 q 363 524 379 536 q 329 511 347 511 q 300 524 310 511 q 294 555 290 536 q 282 604 297 587 q 246 620 267 620 q 189 589 214 620 q 159 516 169 564 q 159 364 146 458 q 180 187 176 233 q 239 180 199 180 q 663 235 340 180 q 948 277 806 258 q 1221 298 1106 298 q 1458 215 1424 298 q 1459 193 1461 204 q 1429 154 1454 167 q 1405 148 1417 148 q 1371 170 1380 148 q 1220 214 1354 214 q 941 189 1114 214 q 659 146 802 170 q 227 94 352 94 q 180 96 201 94 q 175 64 178 79 q 75 -50 155 -28 q 51 -54 62 -54 m 75 37 q 84 59 79 37 q 88 102 91 100 q 79 85 86 102 q 72 66 74 75 q 71 53 71 59 q 75 37 69 37 z "},"":{"ha":1674,"x_min":-51,"x_max":1723,"o":"m 1519 92 q 1501 155 1506 92 q 1506 218 1499 190 q 1533 279 1514 255 q 1586 310 1558 310 q 1614 294 1602 310 q 1617 233 1626 278 q 1684 260 1657 260 q 1718 241 1710 260 q 1720 217 1723 231 q 1707 186 1718 207 q 1651 138 1695 166 q 1575 103 1612 115 q 1519 92 1537 92 m 294 -21 q 66 153 90 -21 q 86 429 52 267 q 244 907 122 597 q 104 917 154 917 q 23 898 28 917 q 6 873 19 883 q -22 864 -6 864 q -44 876 -37 865 q -48 901 -51 886 q -9 957 -37 937 q 130 988 36 988 q 273 978 184 988 q 370 1205 302 1053 q 392 1253 383 1234 q 417 1282 400 1272 q 443 1289 429 1289 q 475 1268 467 1289 q 477 1244 480 1257 q 451 1181 476 1236 q 359 968 384 1031 q 490 958 450 958 q 535 968 528 958 q 557 989 543 982 q 574 993 566 993 q 585 991 580 993 q 603 957 608 983 q 600 946 602 951 q 454 890 567 890 q 329 898 396 890 q 212 581 265 745 q 171 427 186 497 q 163 387 166 407 q 149 186 139 272 q 311 66 167 66 q 345 67 327 66 q 709 118 492 81 q 994 161 852 142 q 1266 182 1152 182 q 1504 98 1470 182 q 1505 75 1508 87 q 1475 37 1500 52 q 1451 31 1463 31 q 1417 53 1427 31 q 1267 97 1399 97 q 704 30 1109 97 q 294 -21 429 -18 z "},"":{"ha":2011,"x_min":-18,"x_max":2060,"o":"m 1855 90 q 1845 107 1849 90 q 1839 153 1840 125 q 1843 219 1836 188 q 1869 277 1850 254 q 1923 308 1894 308 q 1954 231 1968 308 q 2021 258 1994 258 q 2055 239 2047 258 q 2057 216 2060 229 q 2043 185 2054 205 q 1987 136 2032 165 q 1911 102 1949 114 q 1855 90 1874 90 m 90 -33 l 87 -33 q 24 180 -18 -21 q 43 252 32 214 q 124 477 78 368 q 196 662 178 612 q 221 691 203 680 q 248 699 234 699 q 281 681 271 699 q 283 655 287 669 q 208 462 274 622 q 109 162 136 288 q 113 57 87 60 q 156 91 125 57 q 250 220 200 139 q 421 541 345 378 q 481 662 450 603 q 530 692 498 692 q 564 671 555 692 q 566 649 568 661 q 511 438 532 537 q 490 190 480 290 q 540 81 498 105 q 629 62 572 62 q 680 65 652 62 q 1044 116 827 79 q 1331 159 1189 140 q 1609 180 1489 180 q 1840 96 1807 180 q 1842 74 1844 85 q 1811 35 1836 50 q 1787 29 1799 29 q 1754 52 1762 29 q 1598 96 1735 96 q 1040 28 1448 96 q 663 -22 823 -9 q 621 -24 641 -24 q 488 4 540 -24 q 400 153 421 41 q 401 319 389 230 q 325 186 363 250 q 218 39 271 98 q 90 -33 153 -33 z "},"":{"ha":1885,"x_min":0,"x_max":1934,"o":"m 99 -33 l 95 -33 q 20 132 0 -24 q 33 205 24 167 q 110 468 50 288 q 161 643 149 581 l 165 661 q 182 690 168 677 q 219 705 199 705 q 246 694 235 705 q 254 665 256 683 l 250 644 q 197 458 235 574 q 115 177 136 278 q 108 139 111 157 q 120 56 94 62 q 167 89 135 56 q 273 220 218 140 q 290 422 269 323 q 424 679 330 614 q 481 697 454 697 q 550 645 534 697 q 549 571 557 609 q 501 442 536 511 q 368 215 444 328 q 422 87 377 120 q 514 65 452 65 q 555 67 533 65 q 920 118 703 81 q 1205 161 1063 142 q 1478 182 1363 182 q 1715 98 1681 182 q 1716 76 1719 87 q 1687 37 1712 52 q 1662 31 1674 31 q 1629 53 1638 31 q 1478 97 1611 97 q 915 30 1320 97 q 538 -20 698 -7 q 497 -22 517 -22 q 366 10 414 -22 q 292 111 320 41 q 99 -33 178 -33 m 376 383 q 459 569 441 496 q 461 581 460 573 q 463 597 463 589 q 462 608 463 604 q 382 420 418 584 q 376 383 378 399 m 1731 92 q 1713 155 1717 92 q 1718 220 1711 190 q 1744 279 1725 256 q 1797 310 1769 310 q 1829 233 1843 310 q 1895 260 1869 260 q 1930 241 1922 260 q 1931 218 1934 231 q 1918 187 1929 208 q 1862 138 1906 166 q 1786 103 1824 115 q 1731 92 1749 92 z "},"":{"ha":2163,"x_min":5,"x_max":2212,"o":"m 2009 92 q 1991 155 1995 92 q 1996 221 1989 190 q 2022 279 2003 256 q 2075 310 2047 310 q 2107 233 2121 310 q 2174 260 2147 260 q 2208 241 2200 260 q 2209 218 2212 231 q 2196 187 2207 208 q 2140 138 2184 166 q 2064 103 2102 115 q 2009 92 2026 92 m 374 -33 l 370 -33 q 294 132 273 -24 q 185 7 239 47 q 102 -27 139 -27 q 33 20 56 -27 q 31 197 5 77 q 42 241 36 218 q 180 634 92 415 q 203 692 195 671 q 227 722 210 711 q 255 731 241 731 q 287 713 277 731 q 290 686 293 701 q 264 618 288 676 q 115 178 145 319 q 124 69 92 69 q 246 210 160 69 q 383 473 321 340 q 437 510 403 510 q 471 488 464 510 q 472 461 475 475 q 457 416 469 451 q 388 172 408 265 l 382 139 q 395 56 368 62 q 548 220 429 56 q 564 422 543 323 q 699 679 606 615 q 756 697 728 697 q 824 645 808 697 q 824 573 832 610 q 776 442 811 512 q 642 215 717 325 q 688 87 651 116 q 778 64 717 64 q 1198 118 880 64 q 1483 161 1341 142 q 1756 182 1641 182 q 1993 98 1959 182 q 1994 76 1997 87 q 1965 37 1990 52 q 1940 31 1952 31 q 1907 53 1915 31 q 1756 97 1889 97 q 1193 30 1598 97 q 817 -20 976 -7 q 768 -22 791 -22 q 694 -16 732 -22 q 623 19 656 -10 q 567 111 589 48 q 374 -33 451 -33 m 650 383 q 734 569 718 503 q 736 581 735 573 q 737 597 737 589 q 736 608 737 604 q 707 573 720 599 q 657 420 678 517 q 650 383 652 399 z "},"":{"ha":1757,"x_min":-157,"x_max":1806,"o":"m 396 -27 q 308 -19 355 -27 q 112 155 170 3 l 109 165 q -118 -24 -79 -24 q -128 -24 -119 -24 q -147 -11 -137 -24 q -154 20 -157 3 q -152 30 -154 21 q -132 53 -149 39 q 85 255 -39 127 q 65 660 50 437 l 66 666 q 81 694 69 682 q 121 711 97 711 q 146 702 135 711 q 157 673 157 692 q 164 339 143 499 q 448 676 342 531 q 492 701 466 701 q 511 696 502 701 q 528 656 533 682 q 518 636 526 646 q 220 281 406 481 l 184 243 q 196 208 189 224 q 425 62 249 62 q 454 63 439 62 q 675 96 560 71 q 1078 161 821 126 q 1350 182 1236 182 q 1587 98 1554 182 q 1588 76 1591 87 q 1558 37 1583 51 q 1534 31 1546 31 q 1501 53 1510 31 q 1350 97 1482 97 q 1071 73 1244 97 q 669 9 821 38 q 435 -26 547 -17 q 396 -27 415 -27 m 1603 92 q 1585 155 1589 92 q 1589 218 1583 190 q 1616 279 1597 255 q 1669 310 1641 310 q 1701 233 1715 310 q 1767 260 1741 260 q 1802 241 1794 260 q 1803 217 1806 231 q 1790 186 1801 207 q 1734 138 1778 166 q 1658 103 1695 115 q 1603 92 1621 92 z "},"":{"ha":1887,"x_min":-157,"x_max":1849,"o":"m -54 -834 q -135 -765 -112 -832 q -136 -595 -157 -697 q -90 -454 -121 -530 q 54 -229 -34 -326 q 262 -58 142 -133 q 342 -9 301 -33 q 448 355 400 172 q 237 66 338 181 q 93 -20 157 -20 q 20 98 20 -20 q 32 201 20 144 q 155 538 62 345 q 241 697 196 624 q 288 725 259 725 q 304 722 296 725 q 323 680 330 709 q 317 664 321 672 q 237 516 275 596 q 121 199 151 338 q 111 116 111 151 q 127 68 111 68 q 307 288 163 68 q 494 586 448 504 q 547 673 522 635 q 591 695 564 695 q 628 669 619 695 q 629 647 631 659 q 626 637 628 642 q 586 515 601 577 l 551 387 q 441 16 502 205 q 496 18 467 18 q 548 16 520 18 q 903 -35 702 3 q 1168 -77 1037 -58 q 1437 -102 1331 -102 q 1607 -58 1570 -102 q 1651 -36 1625 -36 q 1671 -41 1662 -36 q 1685 -80 1691 -56 q 1674 -102 1683 -92 q 1401 -186 1605 -186 q 1138 -165 1286 -186 q 871 -122 1004 -146 q 469 -68 567 -68 q 412 -74 433 -68 q 149 -667 290 -436 q -54 -834 45 -834 m -32 -745 q -5 -731 -22 -745 q 73 -632 29 -703 q 300 -129 182 -454 q 117 -279 193 -197 q -7 -473 41 -362 q -46 -593 -35 -538 q -50 -720 -62 -671 q -32 -745 -45 -745 m 1666 -314 q 1626 -282 1638 -314 q 1625 -222 1617 -259 q 1673 -115 1638 -168 q 1693 -96 1685 -96 q 1744 -108 1712 -96 q 1804 -143 1775 -120 q 1840 -222 1849 -181 q 1828 -245 1837 -235 q 1784 -264 1812 -264 q 1731 -237 1759 -264 q 1699 -300 1721 -282 q 1666 -314 1682 -314 z "},"":{"ha":1929,"x_min":-245,"x_max":1887,"o":"m -110 -834 q -219 -770 -187 -834 q -229 -640 -245 -718 q -130 -427 -205 -530 q 65 -223 -43 -307 q 364 -29 173 -138 q 348 140 371 64 q 245 277 320 233 q 228 317 222 292 q 248 350 231 335 q 366 467 320 408 q 424 575 414 531 q 417 615 430 605 q 403 620 411 620 q 262 503 353 620 q 149 310 195 410 q 122 282 140 292 q 100 277 111 277 q 65 298 73 277 q 64 321 61 309 q 67 332 64 326 q 190 540 117 441 q 431 710 321 710 q 485 691 463 710 q 511 572 524 657 q 437 427 497 509 q 344 327 400 378 q 437 178 411 267 q 460 -3 463 93 q 535 2 493 2 q 587 0 559 2 q 942 -50 741 -14 q 1207 -94 1076 -74 q 1476 -118 1369 -118 q 1645 -74 1609 -118 q 1689 -52 1664 -52 q 1710 -58 1700 -52 q 1724 -96 1729 -72 q 1713 -119 1721 -108 q 1440 -203 1643 -203 q 1177 -181 1325 -203 q 909 -138 1042 -162 q 509 -85 613 -85 q 451 -90 473 -85 l 444 -131 q 371 -347 421 -235 q 231 -595 313 -483 q -1 -806 109 -755 q -110 -834 -62 -834 m -85 -747 q 160 -555 15 -747 q 288 -328 235 -453 q 350 -132 329 -231 q 111 -289 223 -203 q -62 -472 9 -368 q -138 -635 -125 -569 q -99 -745 -157 -732 q -85 -747 -92 -747 m 1705 -330 q 1664 -298 1677 -330 q 1664 -238 1656 -275 l 1666 -231 q 1687 -175 1674 -202 q 1712 -131 1699 -149 q 1728 -113 1725 -113 q 1733 -113 1731 -113 q 1782 -124 1751 -113 q 1843 -159 1813 -136 q 1879 -239 1887 -197 q 1867 -262 1875 -252 q 1824 -280 1851 -280 q 1770 -254 1799 -280 q 1737 -317 1758 -298 q 1705 -330 1721 -330 z "},"":{"ha":2450,"x_min":39,"x_max":2590,"o":"m 2060 -20 q 1887 102 1927 -20 q 1884 285 1866 170 q 1729 98 1797 167 q 1533 -20 1610 -20 q 1489 -7 1508 -20 q 1394 -17 1450 -17 q 1339 -15 1368 -17 q 984 36 1185 -1 q 719 79 850 59 q 451 103 556 103 q 280 59 317 103 q 237 37 262 37 q 216 43 226 37 q 202 82 197 56 q 214 104 205 93 q 486 188 281 188 q 749 167 601 188 q 1017 123 883 147 q 1419 70 1319 70 q 1447 71 1434 70 q 1454 207 1437 127 q 1584 496 1487 359 q 1885 701 1711 672 q 1935 705 1910 705 q 2031 692 1982 705 q 2054 673 2049 688 q 2056 650 2058 662 q 2026 611 2050 624 q 2003 605 2015 605 q 1991 606 1997 605 q 1922 615 1956 615 q 1884 612 1902 615 q 1742 547 1806 599 q 1589 340 1648 471 q 1543 206 1556 269 q 1535 151 1537 177 q 1564 66 1529 66 q 1681 152 1603 66 q 1961 546 1787 267 q 2008 574 1978 574 q 2024 571 2016 574 q 2043 530 2049 559 l 2040 522 q 1982 329 1999 410 q 2039 75 1933 103 q 2078 70 2058 70 q 2161 85 2115 70 q 2364 194 2260 118 q 2509 325 2443 253 q 2551 344 2528 344 q 2574 336 2564 344 q 2585 299 2590 322 q 2572 274 2582 286 q 2394 117 2493 187 q 2171 0 2281 37 q 2060 -20 2112 -20 m 197 98 l 193 98 q 143 110 175 98 q 83 144 112 121 q 47 223 39 182 q 59 247 50 237 q 102 265 75 265 q 157 239 128 265 q 189 302 168 283 q 221 315 205 315 q 261 283 249 315 q 262 223 270 260 q 214 116 250 169 q 197 98 202 98 z "},"":{"ha":2266,"x_min":71,"x_max":2402,"o":"m 1695 -31 q 1664 -24 1678 -31 q 1626 33 1631 -8 q 1628 71 1624 51 q 1695 184 1640 124 q 1841 269 1771 266 l 1853 269 q 1877 267 1865 269 l 1893 304 q 1927 401 1905 332 q 1951 496 1941 449 q 1943 640 1982 640 q 1885 600 1925 640 q 1786 479 1841 555 q 1565 75 1645 281 q 1544 15 1550 31 q 1523 -11 1538 -1 q 1493 -21 1508 -21 q 1462 -5 1472 -21 q 1458 26 1454 8 q 1485 138 1462 38 q 1425 135 1457 135 q 1372 137 1400 135 q 1017 187 1218 150 q 751 231 883 211 q 488 255 590 255 q 313 211 350 255 q 270 189 295 189 q 248 195 258 189 q 235 233 229 209 q 245 256 237 245 q 518 340 315 340 q 1049 275 685 340 q 1451 221 1347 221 q 1508 227 1486 221 q 1856 1283 1630 726 q 1881 1312 1864 1301 q 1908 1319 1895 1319 q 1941 1299 1932 1319 q 1943 1274 1946 1288 l 1941 1265 q 1648 418 1759 820 q 1955 718 1832 718 q 1990 709 1974 718 q 2050 557 2055 677 q 2037 473 2046 515 q 2014 388 2030 441 q 1957 241 1990 310 l 1973 233 q 2083 201 2032 201 q 2104 202 2094 201 q 2327 330 2193 210 q 2364 345 2344 345 q 2391 332 2380 345 q 2398 299 2402 319 q 2380 271 2395 283 q 2276 188 2324 220 q 2096 113 2171 120 q 2062 111 2079 111 q 1919 152 1994 111 l 1912 155 q 1695 -31 1800 -31 m 1719 60 q 1735 66 1724 60 q 1830 180 1776 89 q 1756 132 1801 179 q 1715 68 1720 93 q 1719 60 1713 60 m 229 250 l 226 250 q 176 261 208 250 q 115 296 144 273 q 80 376 71 334 q 92 399 83 389 q 134 417 107 417 q 189 391 160 417 q 221 454 199 435 q 253 467 237 467 q 294 435 281 467 q 295 378 302 413 q 246 268 281 319 q 229 250 234 250 z "}}}
